<?xml version="1.0" encoding="UTF-8"?>
<svg id="Layer_1" xmlns="http://www.w3.org/2000/svg" width="425" height="434" version="1.1" viewBox="0 0 425 434">
  <!-- Generator: Adobe Illustrator 29.2.1, SVG Export Plug-In . SVG Version: 2.1.0 Build 116)  -->
  <defs>
    <style>
      .st0 {
        fill: #583a28;
      }

      .st1 {
        fill: #41311d;
      }

      .st2 {
        fill: #433218;
      }

      .st3 {
        fill: #6b3615;
      }

      .st4 {
        fill: #67300d;
      }

      .st5 {
        fill: #6d381a;
      }

      .st6 {
        fill: #ada99e;
      }

      .st7 {
        fill: #572b13;
      }

      .st8 {
        fill: #3c2a16;
      }

      .st9 {
        fill: #72401e;
      }

      .st10 {
        fill: #552811;
      }

      .st11 {
        fill: #afaaa0;
      }

      .st12 {
        fill: #faf9f8;
      }

      .st13 {
        fill: #b0aca1;
      }

      .st14 {
        fill: #652e0c;
      }
    </style>
  </defs>
  <path class="st9" d="M114.8,325.9c-.9,1-1.4,2.6-2.7,3.5-15.3,10.6-31.1,15.1-46.9,22.8-17.6,8.6-34.9,18.1-52.4,26.6-2.6,2-6,16.8-6.4,21.1-1.8,16.1-1.4,36.9,11.7,44.7,11.9,7.1,54,9.1,67.6,7,1.8-.3,3-.6,4.6-1.8,4.3-3.1,2.6-10.5,7.9-9.1-.2,0-4.1-1.7-3.6-3.1h4.8s8.4-93.2,8.4-93.2l2.4,2.3,1.4,89.1c1.3,2.8,22.2,1.8,26.1,1.8,8.4,0,16.8,0,25.1,0-.8-14.9-9.6-26.1-10.8-41.9s0-1,0-1.6c-1.2-.5-.9-2-1.2-3.1s.3-1.8-1.2-3.1c-4.2-3.8-14.6-41.4-17.3-51.2s-3.1-4.3-3-10.9,0-1,0-1.6c-3.6,1-2.2-4.2-3.3-7.4-3.4-10-6.5,4.6-8.6,7.9s-2.3.8-2.5,1Z"/>
  <path class="st9" d="M405.3,377.1c-5.2-2.9-13.5-4.2-19.1-7-1.5-.8-7.8-3.8-7.2-7-13.4-5.6-57.1-20.5-64.6-31.8-4-6.1-7.1-18.3-10.7-24.1-4.7,1.3-3.7,3.9-3.6,9.3.3,15.9-2.9,22.9-5.2,37.5-4.5,28-8.2,56-13.9,83.6,6.4-.8,14.1,1.1,20.3,0s15.5-7.5,22.6-7.9l-.5-80.6c.5,0,1.7,10,1.8,11.7,1.6,22,2.5,39.2,0,60.6-.8,7,1.2,12.7,5.9,16.2,4.1,3,14.6,4.3,19.7,4.7,15.7,1.2,40.8,1.7,56.3,0,6.7-.7,12.9-3.3,16.6-11s-2-18.6-.8-29.8c-1.1-4.2-2.2-9.4-4.5-12.8s-11.1-10.4-13.2-11.6Z"/>
  <path class="st12" d="M278.6,439.2c1.6-13.6,4.9-26.9,7.2-40.4l-26,26.2-2.7-.5-6-7.8,35.9-31.8c3.8-22.7,9.4-45.2,12-68.3l-4.8,1.6c-.2-1.4.3-3.6,0-4.7-2.9,8.5-11.5,19.8-17.5,24.6-4.8,3.9-36.9,21.4-41.6,22-34.2,4.4-86.6-6.9-107.1-46.6-3.4,5.2,2.5,8.2,2.5,8.7,0,1.2-1.3,2-1.3,2.2,0,.5,0,1,0,1.6.7,2,2.7,2.6,3.5,4.4,4.3,9.9,11.9,35.4,15,46.9.9,3.4.8,7.4,1.8,10.9,1.5,1.3.8,1.7,1.2,3.1h1.2l37.1,22.5c2.7,3-2.9,10.2-4.2,13.2-.9.3-6.6-6.2-8.1-7.8s-.8-3-.9-3.1c-.5-.5-3-.7-4.7-2.4-4.9-5.1-12-15.1-16.9-18.6-.7-.5-.9,0-1.1.8l14.3,45c37.1.1,74.4-.9,111.2-1.6ZM197.3,395.7c-.2.6.4,1.9-.2,2.8l-13,8-4.8-43.5c18.5-.7,36.7,5.9,55.1.9,7.5-2.1,14.7-7.4,22.6-8.6.8-.1,1.6,0,2.4,0,1.4-3.2,3.9-2.4,6-3.1s1.6-2.6,3.6-1.5l-2.4,4.6-2.4,41.9v3.1s-3,0-3,0l-.6-1.5c-3.3.3-6.6-3.3-9.6-4.7s-.8.2-1.2,0c-4.3-2-8.5-5.5-13.2-6.2-6-.9-20.3-.9-26.3,0-2.6.4-4,2.4-6,3.1s-.8-.1-1.2,0c-1.1,6.8-2.8,3.8-6,4.7Z"/>
  <path class="st10" d="M135.1,440.8l2.4-3.1c-3.9,0-24.8,1-26.1-1.8l-1.4-89.1-2.4-2.3-8.4,93.1h-4.8c-.5,1.4,3.4,3.1,3.6,3.1,10.4,1.8,26,0,37.1,0Z"/>
  <path class="st7" d="M331.2,437.7c-4.8-3.5-6.7-9.1-5.9-16.2,2.4-21.4,1.5-38.6,0-60.6s-1.3-11.7-1.8-11.7l.5,80.6c-7.1.4-16.3,6.8-22.6,7.9l1.2,1.6c9.5-.4,19.4,1.4,28.7-1.6Z"/>
  <path class="st4" d="M302.5,439.2l-1.2-1.6c-6.2,1.1-13.9-.8-20.3,0,5.7-27.6,9.5-55.7,13.9-83.6,2.3-14.5,5.5-21.5,5.2-37.5h-1.2c-2.6,23.1-8.1,45.6-12,68.3-.6,3.8-.5,9.8-1.2,14-2.3,13.4-5.5,26.7-7.2,40.4,7.5-.1,16.2.3,23.9,0Z"/>
  <path class="st3" d="M167.4,440.8l-14.3-45h-1.2c1.2,15.8,9.9,27,10.8,41.9-8.4,0-16.8,0-25.1,0l-2.4,3.1c10.7,0,21.5,0,32.3,0Z"/>
  <path class="st0" d="M298.9,316.6h1.2c-.1-5.4-1.1-8,3.6-9.3-2.5-4-9.2-4-13.1-4.6-.9,1.1,3,8.7,3.6,10.9s-.2,3.3,0,4.7l4.8-1.6Z"/>
  <path class="st14" d="M405.3,377.1c3.2-3.4,0-2.8-1.5-3.5-8.2-3.7-16.6-7-24.8-10.5-.6,3.1,5.7,6.2,7.2,7,5.7,2.8,13.9,4.1,19.1,7Z"/>
  <path class="st5" d="M114.8,325.9c.2-.2,1.4.5,2.5-1,2.1-3.3,5.2-17.9,8.6-7.9,1.1,3.1-.3,8.3,3.3,7.4,0-.2,1.3-1,1.3-2.2s-5.9-3.5-2.5-8.7c-.3-.6.3-4.2-1.1-5.5h-3.7s-8.3,17.9-8.3,17.9Z"/>
  <path class="st6" d="M151.9,391.1c0,1,0,2.1,0,3.1s0,1,0,1.6h1.2c.3-.9.4-1.4,1.1-.8,4.9,3.5,11.9,13.6,16.9,18.6,1.7,1.7,4.2,1.9,4.7,2.4-.1,0,.2-1.9-.9-3.1-2.7-2.9-6.4-4.9-8.7-8.5,7.4,1.2,12.5,10.2,20.3,10.1l-1.2,7.7c-.7.6-8.2-4.9-9.6-6.2.1.1-.2,2,.9,3.1s7.1,8,8.1,7.8c1.3-3,6.9-10.2,4.2-13.2l-37.1-22.5Z"/>
  <path class="st5" d="M149.5,388c-1-3.4-.9-7.5-1.8-10.9-3.1-11.5-10.7-37-15-46.9-.8-1.7-2.8-2.4-3.5-4.4-.1,6.5,1.8,6.5,3,10.9,2.7,9.8,13.1,47.5,17.3,51.2Z"/>
  <path class="st3" d="M151.9,391.1h-1.2c.3,1.1,0,2.6,1.2,3.1,0-1,0-2.1,0-3.1Z"/>
  <path class="st2" d="M197.3,395.7c.2-.7-.4-2,.2-2.8,1.7-1.6,4.1-1.1,5.8-1.8s.8.1,1.2,0c1.1-3.5,3.5-3.8,6-4.7,6.1-2.1,10.5-1.5,16.7-1.6.4,0,.8,0,1.2,0,2.4,0,4.8-.1,7.2,0s14.8,5.1,18.8,7.3,1.7,5.8,6.1,3.3l4.9-39.4c0-1.5-4.6-.8-6-.8s-1.6-.1-2.4,0c.2,4.4-1.8,3.9-4,4.9-12.1,5.7-26.9,10.8-39.6,10.6-4.4,0-28.8-5.3-30.5-3.1l3.6,31c3.7-.5,7.1-2.1,10.7-3.1Z"/>
  <path class="st8" d="M257.1,355.4c-8,1.2-15.2,6.6-22.6,8.6-18.4,5.1-36.6-1.6-55.1-.9l4.8,43.5,13-8c.6-.9,0-2.2.2-2.8,3.2-.9,4.9,2.1,6-4.7-1.7.7-4.1.2-5.8,1.8-.5.8,0,2.2-.2,2.8-3.6,1-7.1,2.5-10.7,3.1l-3.6-31c1.7-2.2,26.1,3,30.5,3.1,12.7.2,27.5-4.9,39.6-10.6,2.2-1,4.2-.5,4-4.9Z"/>
  <path class="st11" d="M287,384.9l-35.9,31.8,6,7.8,2.7.5,26-26.2c.7-4.1.5-10.1,1.2-14Z"/>
  <path class="st8" d="M260.7,398.9c.3,0,2.2-2.5,3.6-1.6l2.4-41.9-1.2-3.1c-2.1.7-4.6-.1-6,3.1,1.4,0,5.9-.7,6,.8l-4.9,39.4c-4.4,2.5-4.4-2.4-6.1-3.3-4.1-2.2-15.9-7.2-18.8-7.3l1.2,3.1c4.7.7,8.8,4.2,13.2,6.2l.6-1.5.6,1.5c3,1.4,6.3,5,9.6,4.7Z"/>
  <path class="st1" d="M236.8,388l-1.2-3.1c-2.4-.1-4.8,0-7.2,0l-.6,1.5-.6-1.5c-6.2,0-10.6-.6-16.7,1.6v1.6c6-.9,20.3-.9,26.3,0Z"/>
  <path class="st1" d="M266.7,355.4l2.4-4.6c-1.9-1-2.9,1.3-3.6,1.5l1.2,3.1Z"/>
  <path class="st1" d="M260.7,398.9l.6,1.5h3s0-3.1,0-3.1c-1.4-1-3.3,1.5-3.6,1.6Z"/>
  <path class="st8" d="M210.5,388v-1.6c-2.4.9-4.9,1.2-6,4.7,1.9-.7,3.4-2.7,6-3.1Z"/>
  <path class="st1" d="M249.9,394.2c.4.2.8-.2,1.2,0l-.6-1.5-.6,1.5Z"/>
  <path class="st13" d="M175.8,415.9c1.3,1.3,8.9,6.8,9.6,6.2l1.2-7.7c-7.8,0-12.9-8.9-20.3-10.1,2.3,3.6,6,5.6,8.7,8.5s.8,3,.9,3.1Z"/>
  <path class="st8" d="M228.4,384.9c-.4,0-.8,0-1.2,0l.6,1.5.6-1.5Z"/>
</svg>