<?xml version="1.0" encoding="UTF-8"?>
<svg id="Layer_1" xmlns="http://www.w3.org/2000/svg" width="425" height="444" version="1.1" viewBox="0 0 425 444">
  <!-- Generator: Adobe Illustrator 29.2.1, SVG Export Plug-In . SVG Version: 2.1.0 Build 116)  -->
  <defs>
    <style>
      .st0 {
        fill: #2e2228;
      }

      .st1 {
        fill: #d97556;
      }

      .st2 {
        fill: #9a4342;
      }
    </style>
  </defs>
  <path class="st0" d="M224.8,421.5c17.9.8,36.1,0,54-.6,2.2-1.8,1.3-24.8,1.3-29.7-5.8-.4-11.9.9-17.5-.7,0-3.3,14.3-11.8,17.5-14.4s6.5-5.3,9.4-7.6c3-2.4,8-5.4,10.1-7.6,3.2-3.2,8.9-18.2,12.1-18.3l.7,25.9c1.2,0,2.5,1.6,2.7,1.6,9.7.3,19.4.3,29-1.7l26.3,3.2c0-1-.1-2.1,0-3h2.7c-4.9-1.1-2.6-16.8-1.3-21.3-6.2-3.1-12.7-6-18.9-9.1.8,4.6-2.1,2.9-4.7,3-11,.5-22.1-.3-33.1,0l1.3-22.8c-9.8-6.7-17.2-16.4-26.3-24.1-3.2,0-5.1,14.6-6.1,18.1,4.9,1.8,10,4.5,14.5,7.2,1.2.7,2.2-.6,1.5,2.4l-11.9,24.7-12.2-6.9c-2.1,4.5-7.6,11.3-10.8,15.2s-3.3,3.6-6.7,6.9-14.7,12.5-14.9,13.7c-1.1,5,15.1,9.9,17.5,13.7,0,2.7-19.6,10-22.9,11.4s-6.8,1.2-10.4,2.8c-11.3,5-23.3,17.5-3.1,18.5l.2-.5Z"/>
  <path class="st0" d="M199.2,421.5h1.3l2.7-6.7c-6.1-12.3-16.9-20.8-25.7-31.3l-6.1,6-16.3-16.7c-1.6-3.4,3.9-7.2,6.1-9.1-2.3-3.1-3.6-6.3-5.4-9.1s-4.9-5.6-6.5-8.6c-6.6-12.4-9.8-33.4-12.4-47.6-1.5-1.8-14.9,8.3-17.5,10.7,1.5,6.5,15.7,26.1,14.9,31.1l-21.7,11.5c.2.4-.2,1,0,1.6,1.8,5.2,3.5,10.7,5.6,15.8s.7,4.8,3.8,3.9c1.5-1.2,3.8-1.9,5.4-3,3-2.1,5.3-7.9,10.7-6,1.6,12.2,13.9,19.3,21.6,26.5-7,1.7-14.4.3-21.6.7s-.9,0-1.3,0v28.9c20.8-.2,41.3.5,62,1.6h.4Z"/>
  <path class="st2" d="M200.5,421.5h10.8c.4-3.9-3.7-4.6-4.1-8.4-.8-8.7,16.2-27.7,22.9-24.3s5.8,8.9,8.1,11.5c3.3-1.3,22.9-8.7,22.9-11.4-2.4-3.7-18.6-8.7-17.5-13.7.2-1,12.5-11.3,14.9-13.7,3.4-3.3,3.6-3.2,6.7-6.9l-60.1,4.7-49.2-4.7c1.7,2.8,3.1,6,5.4,9.1,5,6.8,10.8,13.4,16.2,19.8,8.8,10.5,19.6,18.9,25.7,31.3l-2.7,6.7h0Z"/>
  <path class="st2" d="M429.8,421.5l-19.6-1.4c-1.2-8.6-.5-17.3-.6-25.9-12.8.9-26.7-1.9-39.1,1.6v25.9c-19.3.1-38.7-.2-58,0,0-9.4-.5-19.5,0-28.9,19.3.3,38.7-.3,58,0,0-6.8-.6-14.7,0-21.2l-26.3-3.2c-9.6,2-19.3,1.9-29,1.7-.6,7.1-2.3,15.8-2.7,22.8-11.1-.2-21.4-.7-32.4-1.6v-15.2c-3.2,2.6-17.5,11.1-17.5,14.4,5.7,1.8,11.8.3,17.5.7,0,4.9,1,27.9-1.3,29.7-17.9.6-36.1,1.6-54,.6l-1.3,22.8h56.6l1.3-22.2c10.3-1.3,20.8-.5,31.1-.6,0,7.5,1,15.9-1.3,22.8,20.7,0,41.4-.1,62,0l-1.3-22.8h36.4v22.8c7.5.3,20.7,6.8,22.9-6.9.3-1.7,1-12.6.9-13.8s-2.1-2-2.1-2.2l-.2.2Z"/>
  <path class="st0" d="M103.4,369.9c0-4.2,1.1-8.9,1.3-13.7s-.2-9.1,0-13.7h-31c-8.8,4.7-18.2,9-27,13.7v13.7c18.9-.3,37.8.2,56.6,0h0Z"/>
  <path class="st2" d="M103.4,444.4v-22.8c11.3-.1,23-1.4,33.7-1.6v24.3h58c1-7.8-3.1-18.3,4-22.8-20.7-.9-41.2-1.7-62-1.6v-28.9c-11.2.5-22.3,1.3-33.7,1.6,0,9.6,0,19.3,0,28.9-18.8.2-37.8,0-56.6,0v-28.9c18.9,0,37.8.3,56.6,0,0-7.6-.2-15.2,0-22.8,5.5.3,5,8.7,8.8,12.1,3.1-3.3,6.6-6.4,10.1-9.1-3.1.7-2.9-1.8-3.8-3.9-2.1-5.1-3.8-10.6-5.6-15.8l-8.1,3c-.2,4.8-1.2,9.5-1.3,13.7-18.9.2-37.8-.3-56.6,0v-13.7c-8.2,4.3-16.9,7.5-24.3,13.7,6.9-1,16.8.1,24.3,0v22.8H13.1c-.2-5.1.9-10.6-1.3-15.2-3.7,3.9-8.9,10.2-10.8,15.2h12.1c.3,10,2,18,2.7,27.3,9.7,2.8,20.9,1.4,31,1.6v19.8c16.3,5.6,38.3,2.9,56.6,3h0Z"/>
  <path class="st1" d="M223.5,444.4l1.3-22.8c-20.2-1-8.2-13.6,3.1-18.5s7.6-1.6,10.4-2.8c-2.3-2.6-5.5-10.1-8.1-11.5-6.7-3.4-23.7,15.6-22.9,24.3s4.5,4.5,4.1,8.4h-10.8c-3.6,0-.9,0-1.3,0-7.1,4.6-3.1,15-4,22.8h28.3-.1Z"/>
  <path class="st2" d="M112.9,351.6l21.7-11.5c.7-4.9-13.4-24.5-14.9-31.1-5.4,5-11.3,13.7-16.3,17.4s-21.4,11.7-29.5,16h31c0-3.1-1.4-7.1,2.7-6.1,1.5,5.2,3.6,10.1,5.4,15.2h-.1Z"/>
  <path class="st1" d="M408.2,444.4v-22.8h-36.4l1.3,22.8c11.6,0,23.4-.4,35.1,0Z"/>
  <path class="st1" d="M137.1,444.4v-24.3c-10.8,0-22.4,1.3-33.7,1.6v22.8h33.7Z"/>
  <path class="st1" d="M46.8,392.6v-22.8c-7.4.1-17.4-1-24.3,0-6.9,1-7.2,3.8-10.8,7.6,2.3,4.6,1.2,10.1,1.3,15.2h33.8Z"/>
  <path class="st1" d="M311.1,444.4c2.4-6.8,1.3-15.3,1.3-22.8-10.3.1-20.8-.6-31.1.6l-1.3,22.2h31.1Z"/>
  <path class="st1" d="M46.8,441.3v-19.8c-10.1,0-21.3,1.2-31-1.6v1.6c.4,6.5-.3,13.2,0,19.8,5.6-.2,27.4-1.2,31,0Z"/>
  <path class="st0" d="M429.8,421.5c0-.5,2.2-5.2,2.2-8.1,0-7.8-3.3-12.9-4.9-19.3l-17.5-1.6v1.6c0,8.6-.6,17.4.6,25.9l19.6,1.4h0Z"/>
  <path class="st2" d="M427.1,394.2c-.7-2.8,1-5.6-1.3-9.9-9-17.6-38.5-29.4-54-37.2-1.2,4.6-3.5,20.2,1.3,21.2h36.4v24.3l17.5,1.6h.1Z"/>
  <path class="st2" d="M276,339.5l12.2,6.9,11.9-24.7c.7-3-.3-1.6-1.5-2.4-4.5-2.8-9.6-5.5-14.5-7.2-2.3,8.1-4.8,20.3-8.1,27.3h0Z"/>
  <path class="st2" d="M316.5,318.2l-1.3,22.8c11-.3,22.1.5,33.1,0,2.6-.1,5.4,1.6,4.7-3-11.9-6-25.4-12.1-36.4-19.8h-.1Z"/>
  <path class="st0" d="M15.8,421.5v-1.6c-.7-9.3-2.4-17.3-2.7-27.3H1c-3.3,8.6-3.7,18.3-1.3,27.3l16.2,1.6h-.1Z"/>
  <path class="st2" d="M15.8,441.3c-.3-6.5.4-13.2,0-19.8l-16.2-1.6c-4-2.3-1.7,12.6-1,15.5,1.7,7.6,6.7,7.7,12.6,7.3,2.3-.1,4.3-1.7,4.6-1.7h0Z"/>
  <path class="st1" d="M409.5,394.2v-25.9h-39.1c-.1,1,0,2.1,0,3-.6,6.5,0,14.5,0,21.2s0,2.1,0,3c12.4-3.4,26.3-.6,39.1-1.6v.2Z"/>
  <path class="st1" d="M312.4,392.6c.4-6.9,2.1-15.6,2.7-22.8-.2,0-1.5-1.4-2.7-1.6-7.6-.4-15.3.3-22.9,0-2.9,2.4-6.5,5.3-9.4,7.6v15.2c10.9.8,21.3,1.3,32.4,1.6h-.1Z"/>
  <path class="st2" d="M312.4,368.4l-.7-25.9c-3.2,0-8.9,15-12.1,18.3s-7.1,5.2-10.1,7.6c7.6.3,15.3-.4,22.9,0h0Z"/>
  <path class="st1" d="M137.1,391.2h1.3v-21.3h-10.8c-1.6,1.1-3.8,1.9-5.4,3-3.5,2.7-7,5.8-10.1,9.1-3.8-3.4-3.3-11.8-8.8-12.1-.2,7.6,0,15.2,0,22.8,11.4-.2,22.5-.9,33.7-1.6h.1Z"/>
  <path class="st2" d="M138.5,391.2c7.1-.4,14.5.9,21.6-.7-7.7-7.3-20-14.3-21.6-26.5-5.4-1.9-7.8,3.9-10.7,6h10.8v21.2h-.1Z"/>
  <path class="st1" d="M177.6,383.5c-5.4-6.4-11.2-12.9-16.2-19.8-2.3,1.9-7.7,5.7-6.1,9.1l16.3,16.7,6.1-6h-.1Z"/>
  <path class="st1" d="M112.9,353.2c-.2-.4.2-1,0-1.6-1.8-5.1-3.9-10-5.4-15.2-4.1-1-2.5,3-2.7,6.1-.2,4.6.2,9.1,0,13.7l8.1-3Z"/>
  <path class="st0" d="M312.4,421.5c19.3-.2,38.7.1,58,0v-28.9c-19.2-.3-38.7.3-58,0-.5,9.4,0,19.4,0,28.9Z"/>
  <path class="st0" d="M103.4,421.5c0-9.6,0-19.3,0-28.9-18.8.3-37.8,0-56.6,0v28.9c18.9,0,37.8.2,56.6,0Z"/>
</svg>