<?xml version="1.0" encoding="UTF-8"?>
<svg id="Layer_1" xmlns="http://www.w3.org/2000/svg" width="425" height="434" version="1.1" viewBox="0 0 425 434">
  <!-- Generator: Adobe Illustrator 29.2.1, SVG Export Plug-In . SVG Version: 2.1.0 Build 116)  -->
  <defs>
    <style>
      .st0 {
        fill: #d7d7d7;
      }

      .st1 {
        fill: #d8d8d8;
      }

      .st2 {
        fill: #d6d6d6;
      }

      .st3 {
        fill: #fefefe;
      }
    </style>
  </defs>
  <path class="st3" d="M94.5,451.6l-1.3-9,24.7-1,3.3,10c2.7,0,5.3,0,8,0v-10.3s24.6,0,24.6,0l2.1,10.4c3.1,0,6.2,0,9.3,0l-1.3-11.6h22c.7,0,2.8-2,4.7-1.3l1.4,11.6h6.7s0-11.6,0-11.6h25.3l.8,11.6h5.9c.8-.8-1.7-10,2-11.6h25.3c3.7,2.7-.5,7.5.7,11.6h6.7s2.6-11.1,2.6-11.1c.9-.6,1.8.8,2,.8h24.7l-1.3,10.3,6.7-.6,1.8-8.5h28.7c0,0-1.3,9.1-1.3,9.1h5.8c0,0,2.2-8.9,2.2-8.9,14.4.4,27.7,3.8,41.3-2.7-2.5-9.2,2.7-18.9,2.7-28.3,6.9,1.3,21.4-.2,27.1,1.3s.4,3,1.5,2.6c9.6-9.6,10.1-22.4,11.7-35.1l3.6-7.4c-2.3-3.3-4.2-4.1-6.7-6.4-.9,3-3.4,2.5-5.9,2.7-7.8.5-15.7-.3-23.4-1.4,2.2-5-.5-13.6,4-16.7-2.5-1.1-4.6-1.7-6.7-2.6l-5.2,18.8-29.4-.8,4.6-23.3,14-1.2c-7.2-2.9-15.6-7.6-22.7-10.3,1,1.7,3.3,3.6-.6,3.9-4.8.3-25.2.7-27.9-1.2l.6-11.7c-2-.7-4.1-1.7-6.7-2.6l-1.3,14.2-20,1.3,6.7-20.6c-.8-3.4-8.2-20.3-12-16.8.4,5.2-3.3,9.8-6.1,14.1-11.4,17.5-28.1,32.6-39.2,49.1,4.5-.6,3.6,5.8,5,8.7s2.9,3.2,3.9,5.2c4.6,9.1,7.9,18.8,13.7,27.4l-29.3-1.3c.2-7.8,1.6-14.7,1.3-22.6,0-2.5,1.4-5.2-2.7-4.4-2.1,3.8-3.5,8.2-5.3,11.6v15.5s-8-1.3-8-1.3c-1.1,2.2-4.2,4.4-4,7.7,2.4-.5,5.9.1,8.5.2l2,1.9c0,7.3,0,17.4-3.1,23.7h-26l-1.3-25.8c4.3.4,9.2-.5,13.3,0-.8-2.7-4.2-4.8-5.3-6.4h-9.3s0-14.2,0-14.2c-2.9-4.2-5-9.7-9.3-12.9,2.5,8.5.2,18.4,2.7,27-7.9-.6-13.6-.7-21.3,1.3-1.7-1.6,9.2-34.2,12-38.6-10-14.5-22.8-27.5-32.6-42.6s-10.8-15.1-11.5-23.1c-2.3-2.4-11.7,15.6-12,16.7-1.3,6.1,4.1,12.1,4,18l-14.5-1.5-1.5-14c-4.1,1.1-8,2.6-12,3.9,4,1.8,2.6,6.9,4,10.3-8.2-1-16.6-2.7-24.7,0l2-3.9c-9.9,3.6-20,6.6-29.3,11.6,3.4-.5,10.7.6,14.7,0l4,25.8h-28l-4-19.3c-5,2.4-11.4,3.5-14.7,7.7.4-.2,2,.3,3.1,0s.2-4,3.6-2.6l1.4,14.9-24.1.6c-5,5.4-6.8,7.1-9.3,14.2,4.3-.7,2.2,2.1,2.6,4.5s2.4,18.9,3,19.8,9.9,5.8,10.4,9.9l26.6-2,4.3,26.8c13.6,4.6,24.8,9.3,39.7,5.5.1,3.4,3.3,5.9-1.3,7.7,4,0,8-.1,12,0ZM82.5,434.9l-29.3,2.6-4-27.1,27.9-1.2,5.5,25.6ZM374.6,410.4l-5.2,25.2c-1.2.9-29.3-.8-30.2-2l4.9-24.3,30.5,1.1ZM86.5,407.8h28l4,25.8-25.9,1.2c-3-.7-4.5-22.8-6.1-26.9ZM331.8,434.8l-29.3-1.2,4.2-25.6,29.2,1.1-4.1,25.7ZM270.6,407.8h28l-2.7,25.8c-9.4.2-18.7-1.1-28-1.3l2.7-24.5ZM153.2,432.3h-25.3l-4-24.5h26.7l2.7,24.5ZM187.9,406.6c.5,7.2,1.9,14.6,2.1,21.9,0,1.2,1.1,2.2-.7,3.3l-26.7-.7-4-23.2,29.3-1.3ZM259.2,432.3h-27.3l2.9-25.6,29.2,1.1-2.9,22.3-1.8,2.2ZM7.8,374.3h22c.5,0,2-1.8,3.3-1.3l5.3,29.6-24.5,2.7-6.2-31ZM387.9,374.3h26c1.4,1,1.4,1.1,1.5,2.6,0,8.3-5.5,19.4-4.8,28.3-9.3-1.2-18.6-1.6-28-1.3l5.3-29.6ZM379.9,373c-.7,7.9-1.6,16.9-3.3,24.5-2.1,9.8-3.3,5.2-10.7,5-6.9-.2-13.8.3-20.7,0l4.3-27.5,1.8-2.2h28.7ZM311.9,371.8h28.7l2,3.2-6,26.6c-1.5,1.3-2.3-.2-2.7-.2h-26l4-29.6ZM42.5,373h27.3l1.8,2.1,4.2,24.9-27.2,1.1-2-2-4.2-26.2ZM165.2,401.4h-9.2c0-.1-6.8-21.9-6.8-21.9l14.7,17.4,1.3,4.5ZM299.9,401.4h-26c-.6,0-2.2-2-1.9-3.1,3.3-8.3.1-19.7,5.9-26.5h26l-4,29.6ZM113.2,398.8h-26c-.3,0-1.5,1.9-2,1.3l-5.3-27.1h29.3l4,25.8ZM149.2,398.8h-26.7l-4-25.8h24.7c.5,0,2.5-3.2,3.3-2.6.3,4,6.6,8.6-1.3,7.7l4,20.6ZM131.7,341c2,8,6.3,16.3,12.1,22.4-1,1.3-1.1,1.5-2.7,1.4-7.8-.1-16.1-1.9-23.9-.8l-4-24.5,18.5,1.4ZM309.2,340.8l-2.9,22.3-1.8,2.1h-23.3l8.7-24.5h19.3ZM347.9,340.8l-2.9,22.3-1.8,2.2h-30l4-24.5h30.7ZM107.8,364h-29.3l-4-25.8c9.8,0,19.4,2.1,29.3,1.4l4.1,24.4Z"/>
  <path class="st2" d="M165.2,451.6c12.4.3,21.1,1.7,32.6,2.6,49,4,103.8-3.2,153.5,0l3.4-.7c-1.7-2.6,6.1-5.8,7.2-5.8h72.7c.3-8.9,1.5-17.5,1.4-26.5-.2-17.1-.5-35.1-10.7-49.5l-3.6,7.4c-1.6,12.7-2.1,25.6-11.7,35.1-1.1.4-.1-2.2-1.5-2.6-5.8-1.5-20.3,0-27.1-1.3,0,9.4-5.2,19.1-2.7,28.3-13.6,6.5-26.9,3.1-41.3,2.7l-2.2,9h-5.8c0,0,1.3-9.1,1.3-9.1h-28.7c0,0-1.8,8.4-1.8,8.4l-6.7.6,1.3-10.3h-24.7c-.3,0-1.1-1.4-2-.8l-2.6,11.1h-6.7c-1.2-4.1,3-8.9-.7-11.6h-25.3c-3.7,1.6-1.2,10.8-2,11.6h-5.9s-.8-11.6-.8-11.6h-25.3v11.6s-6.7,0-6.7,0l-1.4-11.6c-1.8-.7-4,1.3-4.7,1.3h-22l1.3,11.6Z"/>
  <path class="st2" d="M82.5,451.6c4.6-1.8,1.4-4.3,1.3-7.7-14.9,3.8-26.1-.9-39.7-5.5l-4.3-26.8-26.6,2c-.5-4.1-9.7-8.8-10.4-9.9s-2.5-17.1-3-19.8,1.7-5.2-2.6-4.5c-6.4,17.7-1.8,32.7,2.3,49.9.8,3.2-.1,6.6.6,9.7.2.9,4.6,9,5,9.3,2.6,1.7,48.8.3,56.8.6s13.3,2.4,20.6,2.6Z"/>
  <path class="st2" d="M215.9,406.5c-1.1.2.2,2.9-5.3,1.7-.7-.2-1.2-1.7-1.4-1.7-4.1-.5-9.1.4-13.3,0l1.3,25.8h26c3.2-6.2,3.1-16.3,3.1-23.7l-2-1.9c-2.6,0-6.1-.7-8.5-.2Z"/>
  <path class="st2" d="M386.6,347.3c-5.3-2.3-10.6-4.3-16-6.4l-14,1.2-4.6,23.3,29.4.8,5.2-18.8Z"/>
  <path class="st2" d="M37.2,344.7l4,19.3h28l-4-25.8c-4,.6-11.2-.6-14.7,0-6.1,1-9,4.4-13.3,6.4Z"/>
  <path class="st2" d="M233.2,373c4-.7,2.6,2,2.7,4.4.3,7.9-1.1,14.9-1.3,22.6l29.3,1.3c-5.8-8.5-9.1-18.3-13.7-27.4s-3-3.3-3.9-5.2c-1.4-2.8-.6-9.2-5-8.7-3.1,4.6-5.2,7.9-8,12.9Z"/>
  <path class="st0" d="M178.5,362.7c-2.8,4.4-13.7,37.1-12,38.6,7.7-2,13.4-1.9,21.3-1.3-2.5-8.7-.2-18.5-2.7-27-1.4-4.6-4.2-6.7-6.7-10.3Z"/>
  <path class="st0" d="M418.6,365.3c-9.6-9.1-14.3-10.5-25.3-15.5-4.5,3.1-1.8,11.8-4,16.7,7.7,1.1,15.6,1.9,23.4,1.4s5,.3,5.9-2.7Z"/>
  <polygon class="st0" points="298.6 313.8 291.9 334.4 311.9 333.1 313.2 318.9 298.6 313.8"/>
  <path class="st2" d="M155.9,451.6l-2.1-10.4h-24.6c0,0,0,10.4,0,10.4,8.9,0,17.8-.1,26.7,0Z"/>
  <path class="st0" d="M319.9,321.5l-.6,11.7c2.8,1.9,23.1,1.4,27.9,1.2,4-.2,1.7-2.2.6-3.9-8.6-3.3-19.1-5.8-28-9Z"/>
  <path class="st2" d="M121.2,451.6l-3.3-10-24.7,1,1.3,9c8.9.3,17.8-.1,26.7,0Z"/>
  <path class="st0" d="M6.5,365.3l24.1-.6-1.4-14.9c-3.3-1.4-2.2,2.2-3.6,2.6s-2.7-.2-3.1,0c-7,3.5-10.9,7.3-16,12.9Z"/>
  <path class="st2" d="M122.5,313.8c-.8.1-2-.2-2.7,0l-1.3,1.3c-1.6.3-3.9-.4-5.3,0l-1.3,1.3c-.4.1-.9-.1-1.3,0l1.5,14,14.5,1.5c0-6-5.3-11.9-4-18Z"/>
  <path class="st2" d="M79.8,326.7l-2,3.9c8-2.7,16.5-1,24.7,0-1.4-3.4,0-8.5-4-10.3-6.3,2-12.4,4.2-18.7,6.4Z"/>
  <path class="st1" d="M219.9,398.8l8,1.3v-15.5c-2.5,4.7-5.3,8.8-8,14.2Z"/>
  <path class="st2" d="M203.9,400.1c-3.2-4.6-6.1-9.5-9.3-14.2v14.2s9.3,0,9.3,0Z"/>
  <path class="st3" d="M113.2,315.1c-1.1.3-1.2,1.3-1.3,1.3l1.3-1.3Z"/>
  <path class="st3" d="M119.8,313.8c-1,.3-1.2,1.3-1.3,1.3l1.3-1.3Z"/>
  <path class="st2" d="M311.9,371.8l-4,29.6h26c.4,0,1.2,1.5,2.7.2l6-26.6-2-3.2h-28.7Z"/>
  <path class="st2" d="M379.9,373h-28.7l-1.8,2.2-4.3,27.5c6.9.2,13.8-.2,20.7,0,7.4.2,8.6,4.7,10.7-5,1.7-7.7,2.5-16.7,3.3-24.5Z"/>
  <path class="st2" d="M299.9,401.4l4-29.6h-26c-5.8,6.9-2.6,18.2-5.9,26.5-.3,1.1,1.4,3.1,1.9,3.1h26Z"/>
  <path class="st2" d="M387.9,374.3l-5.3,29.6c9.4-.3,18.7,0,28,1.3-.7-8.9,4.8-20,4.8-28.3,0-1.5,0-1.7-1.5-2.6h-26Z"/>
  <path class="st2" d="M374.6,410.4l-30.5-1.1-4.9,24.3c.9,1.2,28.9,2.9,30.2,2l5.2-25.2Z"/>
  <polygon class="st2" points="42.5 373 46.7 399.2 48.7 401.2 75.8 400.1 71.6 375.2 69.8 373 42.5 373"/>
  <polygon class="st2" points="347.9 340.8 317.2 340.8 313.2 365.3 343.2 365.3 345 363.1 347.9 340.8"/>
  <polygon class="st2" points="82.5 434.9 77 409.3 49.2 410.4 53.2 437.5 82.5 434.9"/>
  <polygon class="st2" points="331.8 434.8 335.9 409.1 306.8 408 302.6 433.6 331.8 434.8"/>
  <path class="st2" d="M7.8,374.3l6.2,31,24.5-2.7-5.3-29.6c-1.4-.5-2.8,1.3-3.3,1.3H7.8Z"/>
  <polygon class="st2" points="259.2 432.3 261 430.1 263.9 407.8 234.7 406.7 231.9 432.3 259.2 432.3"/>
  <path class="st2" d="M113.2,398.8l-4-25.8h-29.3l5.3,27.1c.5.6,1.7-1.3,2-1.3h26Z"/>
  <path class="st2" d="M107.8,364l-4.1-24.4c-9.9.7-19.5-1.3-29.3-1.4l4,25.8h29.3Z"/>
  <path class="st2" d="M86.5,407.8c1.6,4.1,3.1,26.2,6.1,26.9l25.9-1.2-4-25.8h-28Z"/>
  <path class="st2" d="M270.6,407.8l-2.7,24.5c9.4.2,18.6,1.5,28,1.3l2.7-25.8h-28Z"/>
  <path class="st2" d="M149.2,398.8l-4-20.6c7.9.9,1.6-3.7,1.3-7.7-.8-.6-2.8,2.6-3.3,2.6h-24.7l4,25.8h26.7Z"/>
  <path class="st2" d="M187.9,406.6l-29.3,1.3,4,23.2,26.7.7c1.8-1.1.8-2.1.7-3.3-.2-7.3-1.6-14.7-2.1-21.9Z"/>
  <polygon class="st2" points="153.2 432.3 150.5 407.8 123.9 407.8 127.9 432.3 153.2 432.3"/>
  <polygon class="st2" points="309.2 340.8 289.9 340.8 281.2 365.3 304.6 365.3 306.3 363.2 309.2 340.8"/>
  <path class="st2" d="M131.7,341l-18.5-1.4,4,24.5c7.8-1.1,16.1.6,23.9.8,1.6,0,1.7-.1,2.7-1.4-5.8-6.1-10.1-14.4-12.1-22.4Z"/>
  <polygon class="st2" points="165.2 401.4 163.9 396.8 149.2 379.5 156 401.3 165.2 401.4"/>
</svg>