<?xml version="1.0" encoding="UTF-8"?>
<svg id="Layer_1" xmlns="http://www.w3.org/2000/svg" width="425" height="444" version="1.1" viewBox="0 0 425 444">
  <!-- Generator: Adobe Illustrator 29.2.1, SVG Export Plug-In . SVG Version: 2.1.0 Build 116)  -->
  <defs>
    <style>
      .st0 {
        fill: #386398;
      }

      .st1 {
        fill: #211f2d;
      }

      .st2 {
        fill: #509ad7;
      }
    </style>
  </defs>
  <path class="st1" d="M223.3,423.4c18.2.9,36.7,0,54.9-.7,2.3-1.8,1.3-25.8,1.3-30.9-5.9-.4-12.1,1-17.8-.8,0-3.1,14.5-12.2,17.8-15s6.6-5.4,9.6-7.8,8.2-5.6,10.3-7.8c3.4-3.6,8.5-18.8,12.3-18.9l.7,26.8c1.2,0,2.5,1.5,2.7,1.5,18.6.8,37.9-1.8,56.2,1.5,0-1-.1-2.1,0-3.2h2.7c-5-1.1-2.6-17.4-1.4-22.1-6.3-3.3-12.9-6.2-19.2-9.5.8,4.8-2.1,3.1-4.7,3.2-11.2.5-22.5-.4-33.6,0l1.4-23.6c-10.6-7.3-17.1-16.5-26.7-25-3.3,0-5.2,15.2-6.2,18.7,5,1.8,10.2,4.6,14.7,7.5,1.2.8,2.3-.6,1.6,2.4l-12.1,25.6-12.4-7.2c-2.1,4.6-7.7,11.7-11,15.8s-3.3,3.8-6.8,7.1-14.9,13-15.2,14.2c-1.1,5.2,15.4,10.3,17.8,14.2,0,2.7-19.9,10.4-23.3,11.8-2.9,1.2-6.9,1.2-10.5,2.9-11.5,5.2-23.7,18.1-3.2,19.1v.3Z"/>
  <path class="st1" d="M194.5,423.4h4.1l2.8-6.9c-6.2-12.7-17.2-21.6-26.1-32.4l-6.2,6.3-16.5-17.3c-1.6-3.6,3.9-7.4,6.3-9.5-2.3-3.3-3.7-6.6-5.5-9.5s-5-5.8-6.6-9c-6.7-12.8-10-34.6-12.6-49.4-1.8-2.1-15.5,9-17.8,11,1.5,6.7,15.9,27.1,15.2,32.2l-22,11.9c.2.4-.2,1.1,0,1.5,2.3,6.8,5,13.5,6.9,20.5.4-.3,5.7-1.4,8.2-3.2,2.9-1.9,5.5-8.2,10.9-6.2,1.7,12.7,14.1,20,22,27.5-7.2,1.7-14.7.4-21.9.8h-1.4v29.9c20.3-.2,40.3.6,60.3,1.5h-.1Z"/>
  <path class="st0" d="M198.6,423.4h11c.4-4.1-3.8-4.7-4.1-8.7-.8-9.1,16.5-28.8,23.3-25.3,6.8,3.6,5.9,9.2,8.3,11.9,3.4-1.4,23.3-9.1,23.3-11.8-2.4-3.9-18.9-9-17.8-14.2.2-1.1,12.7-11.7,15.2-14.2,3.5-3.5,3.6-3.3,6.8-7.1l-61.1,4.8-50-4.8c1.8,2.9,3.1,6.2,5.5,9.5,5.1,7,11,13.8,16.5,20.5,8.9,10.9,19.9,19.7,26.1,32.4l-2.8,6.9h-.2Z"/>
  <path class="st0" d="M431.7,423.4l-20-1.4c-1.2-8.9-.5-17.9-.6-26.9-13,.9-27.1-1.9-39.8,1.5v26.8c-19.6.1-39.3-.2-59,0,0-9.8-.5-20.3,0-29.9,19.6.3,39.4-.3,59,0,0-7-.6-15.3,0-22.1-18.3-3.5-37.6-.8-56.2-1.5-.6,7.4-2.4,16.4-2.7,23.6-11.3-.2-21.8-.7-32.9-1.5v-15.8c-3.3,2.7-17.8,11.9-17.8,15,5.8,1.8,12,.4,17.8.8,0,5.1,1,29-1.3,30.9-18.2.6-36.7,1.6-54.9.7l-1.4,23.6h57.6l1.3-22.9c10.5-1.3,21.1-.6,31.6-.7v23.6c20.5,0,41.2-.1,61.7,0l-1.4-23.6h37v23.6c7.7.3,21,7.1,23.2-7.1.3-1.7,1-13,.9-14.3s-2.2-2-2.2-2.2h0Z"/>
  <path class="st1" d="M99.9,369.8c0-4.4,1.1-9.2,1.4-14.2s-.2-9.5,0-14.2h-31.5c-9,4.9-18.5,9.3-27.4,14.2v14.2h57.6,0Z"/>
  <path class="st0" d="M99.9,447v-23.6c11.5-.1,23.3-1.5,34.3-1.5,0,8.2-1.1,17.6,1.4,25.2h57.6c.2-7.9-.9-16,1.4-23.6-20.1-1-40.1-1.7-60.3-1.5v-29.9c-11.3.6-22.7,1.4-34.3,1.5,0,10,0,20,0,29.9-19.2.2-38.4,0-57.6,0v-29.9c19.2,0,38.4.3,57.6,0,0-7.8-.2-15.8,0-23.6,5.6.3,5,9.1,8.9,12.5,2.9-.9,7.1-9.1,7.5-9.5-1.9-7-4.5-13.6-6.9-20.5l-8.2,3.2c-.2,5-1.2,9.9-1.4,14.2h-57.6v-14.2c-7.6,4.2-14.6,7.9-21.9,12.6,6.1,3,15,1.5,21.9,1.5v23.6H8.1c-.2-5.3.9-11-1.4-15.8-3.7,4.1-9,10.6-11,15.8h12.3c.3,10.4,2,18.6,2.7,28.3,9.8,2.9,21.3,1.5,31.5,1.5v20.5c16.5,5.8,38.9,3,57.6,3.2v.2Z"/>
  <path class="st2" d="M221.9,447l1.4-23.6c-20.5-1-8.3-14.1,3.2-19.1,3.6-1.6,7.7-1.6,10.5-2.9-2.4-2.6-5.6-10.5-8.3-11.9-6.8-3.6-24.1,16.2-23.3,25.3.4,4,4.6,4.6,4.1,8.7h-15.1c-2.3,7.6-1.1,15.7-1.4,23.6h28.9Z"/>
  <path class="st0" d="M109.5,350.9l22-11.9c.7-5.1-13.6-25.5-15.2-32.2-5.7,5.1-11.3,14.1-16.6,18s-21.7,12.1-30,16.7h31.5c0-3.2-1.5-7.4,2.7-6.3,1.6,5.4,3.7,10.5,5.5,15.8h0Z"/>
  <path class="st2" d="M409.8,447v-23.6h-37l1.4,23.6c11.8,0,23.8-.4,35.6,0Z"/>
  <path class="st2" d="M135.6,447c-2.4-7.6-1.3-17-1.4-25.2-10.9,0-22.8,1.4-34.3,1.5v23.6h35.7Z"/>
  <path class="st2" d="M42.3,393.4v-23.6c-7,0-15.8,1.3-21.9-1.5-6.3,4-7.5,2.6-13.7,9.5,2.3,4.8,1.2,10.5,1.4,15.8h34.3,0Z"/>
  <path class="st2" d="M312.4,447v-23.6c-10.5.1-21.2-.7-31.6.7l-1.3,22.9h32.9Z"/>
  <path class="st2" d="M42.3,443.8v-20.5c-10.3,0-21.7,1.3-31.5-1.5v1.5c.4,6.7-.3,13.7,0,20.5,5.7-.3,27.8-1.3,31.5,0Z"/>
  <path class="st1" d="M431.7,423.4c0-.5,2.2-5.3,2.3-8.3,0-8-3.3-13.4-5-20l-17.8-1.5v1.5c0,9-.6,18,.6,26.9l20,1.4h-.1Z"/>
  <path class="st0" d="M429,395c-.7-2.9,1-5.8-1.3-10.3-9.2-18.2-39.1-30.4-54.9-38.5-1.3,4.7-3.6,20.9,1.4,22.1h37v25.2l17.8,1.5h0Z"/>
  <path class="st0" d="M275.4,338.2l12.4,7.2,12.1-25.6c.7-3.1-.3-1.6-1.6-2.4-4.5-3-9.7-5.7-14.7-7.5-2.3,8.3-4.9,21.1-8.2,28.3h0Z"/>
  <path class="st0" d="M316.6,316.3l-1.4,23.6c11.2-.4,22.5.5,33.6,0,2.6-.1,5.5,1.6,4.7-3.2-12.2-6.3-25.5-12.5-37-20.5h0Z"/>
  <path class="st1" d="M10.8,423.4v-1.5c-.7-9.7-2.4-17.9-2.7-28.3H-4.3c-3.4,9-3.8,18.9-1.4,28.3,0,0,16.5,1.5,16.5,1.5Z"/>
  <path class="st0" d="M10.8,443.8c-.3-6.7.4-13.7,0-20.5l-16.5-1.5c-4.1-2.3-1.7,13-1,16.2,1.8,7.8,6.8,7.9,12.9,7.6,6.1-.3,4.4-1.6,4.6-1.7h0Z"/>
  <path class="st2" d="M411.2,395v-26.8h-39.7c-.1,1,0,2.1,0,3.2-.6,6.8,0,15,0,22.1v3.2c12.7-3.6,26.7-.7,39.8-1.5h0Z"/>
  <path class="st2" d="M312.4,393.4c.4-7.2,2.1-16.2,2.7-23.6-.3,0-1.5-1.5-2.7-1.5-7.7-.4-15.6.3-23.3,0-3,2.4-6.6,5.5-9.6,7.8v15.8c11.1.8,21.6,1.4,32.9,1.5Z"/>
  <path class="st0" d="M312.4,368.2l-.7-26.8c-3.8,0-8.9,15.4-12.3,18.9s-7.3,5.4-10.3,7.8c7.7.3,15.6-.4,23.3,0h0Z"/>
  <path class="st2" d="M134.2,391.8h1.4v-22.1h-11c-2.5,1.7-7.9,2.9-8.2,3.2s-4.6,8.5-7.5,9.5c-3.9-3.6-3.3-12.2-8.9-12.5-.2,7.8,0,15.8,0,23.6,11.6-.2,22.9-1,34.3-1.5h0Z"/>
  <path class="st0" d="M135.6,391.8c7.2-.4,14.8.9,21.9-.8-7.9-7.5-20.3-14.8-22-27.5-5.5-2-8.1,4.3-10.9,6.2h11v22.1h0Z"/>
  <path class="st2" d="M175.3,384c-5.5-6.6-11.4-13.4-16.5-20.5-2.3,1.9-7.8,5.9-6.3,9.5l16.5,17.3,6.2-6.3h.1Z"/>
  <path class="st2" d="M109.5,352.5c-.2-.4.2-1.1,0-1.5-1.8-5.3-4-10.4-5.5-15.8-4.2-1.1-2.6,3.1-2.7,6.3-.2,4.7.2,9.5,0,14.2l8.2-3.2Z"/>
  <path class="st1" d="M312.4,423.4c19.6-.2,39.3.1,59,0v-29.9c-19.6-.3-39.3.3-59,0-.5,9.7,0,20.2,0,29.9Z"/>
  <path class="st1" d="M99.9,423.4c0-10,0-20,0-29.9-19.2.3-38.4,0-57.6,0v29.9c19.2,0,38.4.2,57.6,0Z"/>
</svg>