<svg xmlns="http://www.w3.org/2000/svg" viewBox="0 0 64 64">
  <ellipse cx="33" cy="54" rx="25" ry="5" fill="#1b1512" opacity=".27"/>
  <path d="M8 43l10-13 13 8-5 15H13zM28 35l13-15 15 11-7 21H31zM18 27l8-11 10 7-5 12z" fill="#15100e"/>
  <path d="M13 42l7-8 8 6-4 9H16z" fill="#8d877a"/>
  <path d="M32 36l10-11 9 8-5 14H34z" fill="#aaa292"/>
  <path d="M22 26l5-6 5 4-3 7z" fill="#746f64"/>
  <path d="M21 39h8M35 35l10 4M24 24l6 4" stroke="#d4c8ae" stroke-width="3" stroke-linecap="round"/>
  <path d="M14 46c8 3 16 3 25 1M34 29c4-1 9 1 13 5" fill="none" stroke="#5d574f" stroke-width="3" stroke-linecap="round"/>
  <path d="M40 19l5-6 8 5-4 7zM8 35l5-8 8 5-6 7z" fill="#15100e"/>
  <path d="M42 18l3-3 5 3-3 4zM11 35l4-5 4 3-4 4z" fill="#9b9486"/>
  <circle cx="22" cy="47" r="2" fill="#4f4944"/>
  <circle cx="43" cy="42" r="2" fill="#69625a"/>
  <circle cx="31" cy="31" r="1.6" fill="#cfc5af"/>
  <path d="M10 42c8 9 30 11 43 3" fill="none" stroke="#15100e" stroke-width="2" opacity=".55"/>
  <path d="M18 36l4 2M39 31l4 3M25 20l3 2" stroke="#eee1c5" stroke-width="2" stroke-linecap="round" opacity=".52"/>
  <circle cx="16" cy="43" r="1.4" fill="#cfc5af" opacity=".55"/>
  <circle cx="49" cy="34" r="1.3" fill="#5e574f"/>
</svg>
