<?xml version="1.0" encoding="UTF-8"?>
<svg id="a" xmlns="http://www.w3.org/2000/svg" width="93.554" height="95.379" version="1.1" viewBox="0 0 93.554 95.379">
  <!-- Generator: Adobe Illustrator 29.2.1, SVG Export Plug-In . SVG Version: 2.1.0 Build 116)  -->
  <path d="M1.952,51.059c.278-2.286,1.765-5.201,4.461-4.464l-.042-41.794L10.538,0l72.876.192,3.366,4.61-.076,40.738c2.503,1.122,4.149,2.646,4.495,5.52,1.354,11.258-.997,25.096-.012,36.647-1.576,3.484-2.355,3.93-6.019,4.187-25.196,1.764-52.412-1.396-77.824-.002-2.949.361-4.877-2.217-5.429-4.772,1.07-11.374-1.309-24.977.038-36.061h-.001ZM83.444,5.248c-1.702-.478-2.758-1.227-4.632-1.418-20.404-2.074-44.32,1.674-65.103.007-3.739.941-4.746,2.632-4.104,6.412h73.941s-.102-5.001-.102-5.001ZM81.637,54.884c.566-.51,2.188-.203,1.961-1.573l-.162-40.433-2.718-1.399H12.433l-2.873,1.694.005,40.037,3.862,1.675,2.193,1.951,65.419-.342c.605-.385.479-1.501.598-1.609h0ZM5.139,50.421v21.679c0,.056.784-.156,1.098.189.447.492.09,1.723.177,1.723h80.323c-.623-1.7,1.176-1.712,1.324-2.832.554-4.206.3-14.083-.02-18.556-.088-1.233-.326-2.311-.674-3.474-1.568.638-.016,4.993-.732,5.671-.205.194-1.221-.135-1.647.219-.274.227-.119,1.187-.624,1.724-1.398,1.487-3.073.974-2.789,3.118l-6.313.1c.974,1.858-2.502,5.929-3.976,6.545-1.486.621-2.699.194-3.845.504-4.277,1.156-7.088,1.55-11.505,2.529-.508.112-.163,1.16-1.348,1.315-2.864.375-12.521.375-15.385,0-1.18-.154-.835-1.189-1.352-1.311-2.842-.672-8.039.454-11.262-.766-.877-.332-.851-1.423-1.197-1.638-.669-.414-2.083-.086-3.063-.442-1.949-.708-4.971-4.423-4.466-6.705-6.015,1.071-7.939-1.703-11.244-5.945-.814-1.275.925-4.148-1.479-3.647h0ZM70.8,59.985H22.351c.167,1.322,2.381.976,3.328,1.332,6.429,2.418,16.901,2.757,24.432,2.524,6.441-.199,13.338-1.008,18.9-2.759.663-.209,1.925-.148,1.788-1.097h0ZM22.128,61.5c-.287-.225-1.591-1.004-1.683-.878-.539,2.341,1.089,2.974,2.403,4.414,3.43.012,6.875,1.37,10.072,1.911,2.188.37,5.728,1.221,6.919,1.377,2.205.288,9.355.288,11.56,0,1.18-.154.838-1.193,1.351-1.312,2.662-.617,8.105-.182,11.306-.701,3.084-.5,6.203-1.576,8.655-3.458l-1.597-1.606c-1.389,3.172-6.759,1.96-9.442,2.575-.484.111-.386,1.132-.873,1.25-4.151,1.004-24.92,1.004-29.086,0-.486-.117-.389-1.14-.873-1.25-4.092-.934-4.634.875-8.713-2.322h.001ZM5.139,80.389c-.05,2.784-.239,5.619.637,8.289h81.597l.634-13.386c-1.837-.236-1.053.206-1.272,1.272l-79.415.055-2.179-1.327c-.029,1.693.027,3.404-.003,5.098h0Z" fill="#010101"/>
  <path d="M1.952,51.059c-1.346,11.084,1.032,24.687-.038,36.061.552,2.555,2.48,5.133,5.429,4.772,25.412-1.394,52.629,1.766,77.824.002,3.664-.257,4.443-.703,6.019-4.187-.985-11.551,1.367-25.389.012-36.647,1.683.129,1.783.688,1.952,2.193,1.311,11.672-1.094,25.757.004,37.701l-3.213,4.427H3.209L.03,91.565l-.03-38.313s1.952-2.193,1.952-2.193Z" fill="#8a9493"/>
  <path d="M5.139,50.421c2.403-.501.665,2.372,1.479,3.647,3.305,4.242,5.229,7.016,11.244,5.945-.505,2.282,2.517,5.997,4.466,6.705.98.356,2.394.028,3.063.442.346.214.32,1.306,1.197,1.638,3.223,1.22,8.42.095,11.262.766.517.122.172,1.157,1.352,1.311,2.864.375,12.521.375,15.385,0,1.184-.155.84-1.202,1.348-1.315,4.418-.979,7.229-1.373,11.505-2.529,1.146-.31,2.359.117,3.845-.504,1.474-.616,4.95-4.687,3.976-6.545l6.313-.1c-.284-2.144,1.391-1.631,2.789-3.118.505-.537.351-1.497.624-1.724.426-.354,1.442-.025,1.647-.219.716-.677-.835-5.033.732-5.671.348,1.164.586,2.241.674,3.474.32,4.473.574,14.349.02,18.556-.148,1.12-1.947,1.132-1.324,2.832H6.414c-.087,0,.27-1.232-.177-1.723-.314-.346-1.098-.134-1.098-.189,0,0,0-21.679,0-21.679Z" fill="#8f93a8"/>
  <path d="M13.427,54.884l-3.862-1.675-.005-40.037,2.873-1.694h68.285l2.718,1.399.162,40.433c.227,1.371-1.395,1.064-1.961,1.573H13.427ZM78.45,15.352H14.702c-.054,0,.109.711-.227,1.048s-1.048.174-1.048.227v35.068c0,.056.784-.156,1.098.189.447.492.09,1.723.177,1.723h63.748c.087,0-.27-1.232.177-1.723.314-.346,1.098-.134,1.098-.189V16.628c0-.054-.711.109-1.048-.227-.33-.33-.181-1.021-.227-1.048h0Z" fill="#8f93a9"/>
  <path d="M5.139,80.389c.031-1.693-.026-3.405.003-5.098l2.179,1.327,79.415-.055c-.08.391.147.952-.012,1.457-.055.176-2.353,2.618-2.519,2.698-1.229.595-3.071.182-4.555.578-1.206.322-1.116,1.515-1.644,1.631-3.772.829-15.125,1.149-19.612,1.313-15.493.566-31.1-.518-46.605.024l-6.651-3.876h0Z" fill="#8f93a9"/>
  <path d="M86.737,76.563c.219-1.066-.565-1.508,1.272-1.272l-.634,13.386H5.777c-.877-2.67-.688-5.505-.637-8.289l6.651,3.876c15.505-.542,31.113.542,46.605-.024,4.486-.164,15.839-.484,19.612-1.313.527-.116.438-1.31,1.644-1.631,1.484-.396,3.326.017,4.555-.578.166-.08,2.464-2.522,2.519-2.698.159-.504-.068-1.066.012-1.457h0Z" fill="#808296"/>
  <path d="M83.444,5.248l.102,5.001H9.605c-.643-3.779.365-5.47,4.104-6.411,20.783,1.667,44.699-2.081,65.103-.007,1.873.19,2.93.94,4.632,1.418h0Z" fill="#8f93a9"/>
  <path d="M70.8,59.985c.137.949-1.125.888-1.788,1.097-5.562,1.751-12.459,2.56-18.9,2.759-7.531.233-18.004-.106-24.432-2.524-.947-.356-3.161-.01-3.328-1.332h48.449,0Z" fill="#808296"/>
  <path d="M81.637,54.884c-.119.107.007,1.224-.598,1.609l-65.419.342-2.193-1.951h68.21Z" fill="#808296"/>
  <path d="M22.128,61.5c4.079,3.196,4.621,1.388,8.713,2.322.483.11.387,1.133.873,1.25,4.166,1.004,24.935,1.004,29.086,0,.487-.118.389-1.139.873-1.25,2.684-.615,8.054.597,9.442-2.575l1.597,1.606c-2.452,1.882-5.571,2.957-8.655,3.458-3.201.519-8.644.085-11.306.701-.513.119-.171,1.158-1.351,1.312-2.205.288-9.355.288-11.56,0-1.192-.156-4.731-1.007-6.919-1.377-3.197-.541-6.642-1.899-10.072-1.911-1.314-1.44-2.942-2.073-2.403-4.414.091-.126,1.396.653,1.683.878h0Z" fill="#808296"/>
  <path d="M78.45,15.352c.046.027-.102.718.227,1.048.336.336,1.048.174,1.048.227v35.068c0,.056-.784-.156-1.098.189-.447.492-.09,1.723-.177,1.723H14.702c-.087,0,.27-1.232-.177-1.723-.314-.346-1.098-.134-1.098-.189V16.628c0-.054.711.109,1.048-.227s.174-1.048.227-1.048h63.748,0ZM76.537,17.265H16.614c-.054,0,.109.711-.227,1.048s-1.048.174-1.048.227v31.88h62.473v-31.88c0-.054-.711.109-1.048-.227-.33-.33-.181-1.021-.227-1.048Z" fill="#010101"/>
</svg>