<svg xmlns="http://www.w3.org/2000/svg" viewBox="0 0 64 64">
  <ellipse cx="32" cy="57" rx="22" ry="5" fill="#090807" opacity=".24"/>
  <path d="M28 33c-6-12-3-23 2-29 5 8 6 20 2 32z" fill="#5ff0b5" stroke="#080705" stroke-width="3" stroke-linejoin="round"/>
  <path d="M34 35c1-13 9-24 18-28 1 11-5 23-16 31z" fill="#4bdc9f" stroke="#080705" stroke-width="3" stroke-linejoin="round"/>
  <path d="M28 36C18 26 15 15 18 6c8 5 13 16 13 30z" fill="#7df0bc" stroke="#080705" stroke-width="3" stroke-linejoin="round"/>
  <path d="M37 38c6-10 14-14 23-13-2 9-10 16-22 17z" fill="#58e9ad" stroke="#080705" stroke-width="3" stroke-linejoin="round"/>
  <path d="M26 38C16 35 8 28 6 19c10 0 18 7 23 19z" fill="#68eab2" stroke="#080705" stroke-width="3" stroke-linejoin="round"/>
  <path d="M31 40c-7-7-7-16-2-25 5 8 6 16 4 25z" fill="#a5ffd0" stroke="#080705" stroke-width="2" stroke-linejoin="round"/>
  <path d="M34 41c2-9 8-15 16-18-1 8-6 15-15 20z" fill="#93f7c8" stroke="#080705" stroke-width="2" stroke-linejoin="round"/>
  <path d="M17 39h30l-3 17H20z" fill="#27b7a8" stroke="#080705" stroke-width="4" stroke-linejoin="round"/>
  <path d="M20 39c5 5 20 5 27 0" fill="none" stroke="#8ef4e5" stroke-width="3" stroke-linecap="round"/>
  <path d="M22 45h21" stroke="#17736f" stroke-width="3" stroke-linecap="round"/>
  <path d="M24 51h16" stroke="#17736f" stroke-width="3" stroke-linecap="round"/>
  <circle cx="32" cy="37" r="3" fill="#080705"/>
</svg>
