<?xml version="1.0" encoding="UTF-8"?>
<svg id="Layer_1" xmlns="http://www.w3.org/2000/svg" width="38.7" height="37.1" version="1.1" viewBox="0 0 38.7 37.1">
  <!-- Generator: Adobe Illustrator 29.2.1, SVG Export Plug-In . SVG Version: 2.1.0 Build 116)  -->
  <path d="M7.091,10.595l-2.967.831-.831,2.433-.831,3.797-.297,3.857.534,2.67,2.314,1.246,1.721,2.551,1.068,2.195,3.323.297,1.483,1.543.89.356s2.433-.475,2.729-.593,4.094,1.246,4.094,1.246l.89.712h1.661l2.255-1.543,2.077-1.068,2.017.356,2.017-.178,1.187-2.611,1.009-2.017,2.136-.415,1.187-1.187-.415-3.145s-1.602-3.382-1.839-3.738-.297-2.729-.297-2.729l2.077-1.543.653-1.009-.534-1.839" fill="#fff"/>
  <path d="M1.4,21c0-.8-.2-1.6-.2-2.4-.1-1.5.9-2.7,1-4.1,0-1.4-.3-3.1,1-4.1.9-.8,2.2-1.2,2.8-1.8.9-.8.7-2.2,1.3-3.2.4-.7,1.2-1.2,1.8-1.8C11.7.3,12.5.5,16.3,1.5c2.2.6,4.2-.7,6.2-1.3,1.4-.4,2.8.3,4.3.4,1,.1,2,.2,2.9.6,2.2,1.1,1.4,4,2.6,5.7.5.7,1.3,1.4,2,1.9.8.8,2.3,1.3,2.8,2.5,1.2,2.9-3.2,3.6-1.8,6.8.3.9.8,2,1.3,3,.7,1.7,1.1,3.7-.2,5-.8.9-2.5.8-3.2,1.5-1.1,1.2-.9,3.4-2.7,4.1-1.3.7-3.3-.3-4.5.2-1.3.4-1.7,2.1-3.1,2.5-2.1.8-3.8-1.6-5.5-1.9-1.6-.2-3.1,1.2-4.6.5-1.1-.4-1.9-1.4-2.9-1.9-1.1-.6-2.6-.2-3.4-1.2-.8-.9-.6-2.2-1.3-3.1-.4-.5-.9-.8-1.5-1-2.6-.8-2.1-2.6-2.2-4.8v-.2.2h-.1ZM23.6,1.4c-.3,0-.8-.1-1.1.1-.3.3-1.1.9-1.2,1.4s0,1.2.3,1.6c.2.2.5.2.8.2.7,0,1.2-.2,1.7-.6.4-.2,1.1,0,1.4-.6.2-.5.1-.5.1-.8s-.1-.3-.2-.4c-.3,0-.6-.3-.8-.5-.2-.3-.7-.4-.9-.5h-.1v.1ZM13.9,2.3c-.5-.2-1.7,0-2.1.3-.4.3-.5,1.1-.4,1.6.2.8,1.2,1.5,1.8,2,.2,0,.4-.3.7-.4.5-.2,1.2-.2,1.4-.8,0-.2,0-.5.1-.6,0-.5-.4-.6-.4-1s-.6-.6-1-.9h0v-.2h-.1ZM28.8,2.4h-1.7c-.3.2-.8.8-1,1.1s.4.3.6.9c.4,1.3,0,2.4,1.6,2.5,1,.7,1.6-.9,1.8-1.8,0-.5,0-1.1-.1-1.5,0-.5-.7-.9-1-1.1h-.2v-.1ZM19.2,3.4c-.9-.2-2.1-.3-2.8.3-.5.3-.6.8-.9,1.3-.2.6,0,1.2.3,1.7.5.6,1.3.3,2.1.6.8.3,1.9.9,2.5,0,.4-1.2.3-3.2-1.2-3.8h-.1.1v-.1ZM25.6,4.5c-.5-.2-1.3.3-1.3.8.2.4,1.3.7,1.7.5.2-.3,0-.9-.3-1.2h-.1v-.1ZM11.8,5.8c-.9-.4-2.3.2-3.1.6,0,.3-.2,1.4.1,1.7,0,0,.2.2.2.3.2.3.1.6.4.6h1.4c.2,0,.1-.4.3-.7.1-.2.3-.4.6-.6,1.5-.9,1.6-.6.2-1.8h-.1v-.1ZM23,5.8c-.3,0-.8.3-1,.7-.4.5-.3,1.1-.3,1.7,0,1.2,1.2,1.9,2.3,1.8.6,0,.9-.7,1.3-.9.7-.2,2-.3,1.7-1.4,0-.2-.2-.5-.3-.7-.3-.4-.8-.3-1.3-.3s-.5,0-.8-.3c-.5-.2-1-.2-1.4-.5h-.2v-.1ZM15,6.6c-.8-1-1.5,0-1,.8.5,1.2.5,0,.9-.3h.4s-.1-.3-.2-.3h0l-.1-.2ZM17.7,7.7h-2.2c0,.2,0,1.4-.2,1.9,0,.3.1.4.3.5.2.2.4.5.7.7.5.3.8.9,1.3,1,.9.2,2.3,0,2.5-.9,0-.5.1-1,0-1.5,0-.9-1.1-1-1.8-1.2-.3-.2-.5-.5-.7-.6h.1v.1ZM11.6,9.2v2c0,.2.2.3.5.3s1.1,0,1.4-.2c.2-.3.7-.1,1-.3.5-.7.3-1.2,0-1.9,0-.2-.1-.3-.2-.4-.4-.2-1.1-.2-1.5-.1-.3.1-.8.6-1.1.6h-.1ZM31.7,8.7c-.3,0-1.2-.1-1.6,0-.3.1-1.1.7-1.2,1.1,0,.4.4.9.5,1.5s-.1,1.3.3,1.6c.3.3.8.1,1.1,0,.7-.2,1.1-.3,1.7-.9.4-.4.2-1.3.3-1.8,0-.5-.8-1.1-1-1.3h0v-.2h-.1ZM27.8,9.6c-.9-.4-1.9,0-2.7.6-.9.6-1.4,1.3-.7,2.2.6.6,1.9.7,2.7.6.6,0,1-.5,1.5-.6v-.3c0-.2.1-.1.2-.6,0-.3-.2-.5-.3-.7-.2-.3-.3-.9-.7-1.2h-.1.1ZM9.2,11.4c-.2-.4-.8-.8-1.3-.5-1.9,1.1-.5,4.4,1.4,4.8.3,0,.7.1.9-.1.2-.2.2-.6.4-.9.1-.2.3-.4.3-.7v-1.4c-.3-.6-.9-1.1-1.6-1.2h-.1ZM5.6,11.1c-.2,0-.3.2-.4.4-.3.3-.8.2-1.1.5,0,0-.2.4,0,.5.2.2.4-.3.6-.4h.7c.2,0,0-.5.3-.6,0,0,.2-.3.2-.4h-.3ZM35.2,11.7c-.5-.2-1.7-.6-1.4.5.2.4.6.7.9,1.1,0,0,.2-.1.3-.2h.3c.3-.1.6-.1.8-.3s0-.3-.3-.5-.4-.4-.4-.5h-.2v-.1ZM16.3,12.1c-.8-.4-2.2-.2-3.2,0-.4,0-.6.4-.8.7-.3.3-.9.4-.7,1,.2.7,1.2.6,1.6,1,.1.2,0,.6.1.9,0,.2,0,.3.2.3.7,0,1.8,0,2.5-.1,2.1.2,1.3-3.1.3-3.7h-.1.1v-.1ZM29.3,13.5c-.2-.1-1.3-.5-1.4-.3-.2.5,0,1.2.6,1.4.1,0,.4.2.5.1.1-.1.2-.4.4-.7.1-.2,0-.4,0-.5h-.1ZM32.3,13.4c-.6-.2-1.6,0-2.1.4-.3.2-.2.6-.3.9-.2.3-.9.5-.9,1,0,1.2,0,1.6,1.3,1.7,1.9.3,3.5-2.5,2.1-3.9h0l-.1-.1ZM5.8,14.2c-.2-.4-1.2-.6-1.5-.1,0,.2.2.5.3.7,0,.5,0,1.2.5,1.7.3.3.8.5,1.1.5s.4.3.6.2c.4-.3.6-.9.4-1.4,0-.3-.3-.5-.4-.8,0-.5-.5-.6-.8-.7h-.2v-.1ZM23.2,18.6c.1-.3,0-2.4,0-2.7-.3-.6-1-1.5-1.6-1.8-.7-.3-1.5-.3-2.2-.1-2.2.6-1.8,3.3-.4,4.5.2.2.6,0,.8,0,.8.3,1.7.4,2.5.4s.7,0,.8-.2h.1v-.1ZM27,13.9c-.6-.2-2-.1-2.7,0-.4.1-.6.3-.6.6v1.2c0,.4.1.5.4.9.4.4.7.9,1.2,1.1.6.1,1.5,0,1.9.2.5.3,1.3.5,1.2-.5,0-.5,0-1.3-.1-1.8-.1-.3-.6-.4-.8-.8-.2-.3-.3-.8-.4-1h-.1v.1ZM11.6,14.8s0-.3-.2-.2c-.9.9.4,2.2,1.4,1.7.2-.5.2-1-.2-1.2-.2-.1-.7-.2-1-.3h0ZM10.8,16.4c-.4-.2-1.2,0-1.6.2-.4.1-1,0-1.2.6-.6,1.8.2,3.6,2.3,3.4.6,0,1.2-.9,1.6-1.4.2-.4.2-1,.4-1.5,0-.3-.2-.4-.6-.5-.3-.2-.5-.5-.7-.7h-.2v-.1ZM17.2,16.4c-.7-.2-1.5-.1-2.3.2-.5,0-1.3-.1-1.6.3-.3.3-.5,1-.5,1.5s-.3.7,0,.9c.1.2.4.4.6.6.4.2.9.5,1.4.6.3,0,.7-.2,1.1-.3.4,0,.9,0,1.2-.2l.9-.9c.3-.8.2-2.1-.5-2.7h-.3ZM5.1,16.9c-.4-.1-1.1-.2-1.5-.1-.4,0-.3.4-.4.7,0,.2-.3.3-.4.5-.3.5,0,1.2.3,1.6.2.3.6.6.9.7.4.1.6-.2.9-.4.2-.1.4-.2.6-.4.2-.3.2-1.1,0-1.5,0-.2-.2-.3-.3-.5,0-.2-.2-.5-.2-.6h.1ZM7.5,19.6c.4-1.4-1.2-3.3-1.4-.8,0,.3,0,.9.2,1,.4,0,.8-.1,1.1-.2h.1ZM32.8,17.9c-1.3-.1-2.6-.4-2.8.8-.2.5-.8,1-.6,1.6,0,.3.6.2.9.5s.4.7.9.7,1.8-.9,2.3-1.3c.3-.3.2-1.2,0-1.6,0-.4-.6-.5-.8-.7h.1ZM24.4,19.2c-.4-.3-1,.1-1.3.3-.5.1-1.6,0-1.8.4-.2.3-.2,1.2-.2,1.7s.3.5.6.7c.2.3.4.6.8.9.7.6,1.4.4,1.9-.4.3-.4.7-.9.7-1.4s-.3-.5-.3-1,0-.9-.2-1.1h-.2v-.1ZM27.3,19.3c-.4-.2-1.5.4-1.3,1,0,.4,0,1.1.1,1.3,0,.2,1.4,0,1.7,0,.4-.2.6-.9.9-1.3.3-.5.4-.8-.2-.8s-.9,0-1.1-.2h-.1ZM20.6,19.8c-.6-.2-1.6-.3-2.1,0-.2.3.2.5.3.7.2,1.4,1.9.1,1.9-.7h-.1ZM8.7,21.1c-.2-.4-.7-.5-1.2-.5-.8,0-1.9,0-2.6.1-.2.1-.2.6,0,.9,0,.4.5.5.8.7.5.4,1.1.8,1.8.8s1.6,0,1.8-.3c.4-.6-.2-1.2-.5-1.7h-.1ZM16.6,21.2c-.7.2-1.8-.1-2.5,0-.3.2-.1,1.5-.1,1.9s.4.7.7,1c.5.7,1.5,1.3,2.2.5.4-.4.9-.8,1-1.3,0-.3,0-.6.1-.9,0-.5,1.1-.7.6-1.3-.6-1-1.1-.3-1.8,0h-.2v.1ZM30,21.3c-.4,0-.9,0-1.1.3-.2.2-.5.6-.6.8-.1.2-.2.2,0,.2h1.2c.5,0,.7,0,.7-.1v-1.2s-.2,0-.2,0ZM34.9,22.1c0-.2,0-.7-.2-.6-.3.3-.8.9-1.1,1.1-.6.6,0,1.6-.6,2.3,0,.5.4.4.8.4,2,.3,1.8-1.8,1.2-3h0v-.2h-.1ZM20,21.8c-.8-.2-1.8.7-1.8,1.6s-.4.7-.4,1.2.6,1.1,1.1,1.3c.4,0,1.4.2,1.8-.2,1.8-1.3.8-2.9-.6-3.9h-.1ZM3.7,21.7s-.7.7-.8.9c0,.3.4,1.1.5,1.3,0,.3,1.3.3,1.4-.1,0-.8-1.3-1.1-1.1-2h0v-.1ZM32.2,23.9c.2-.8,0-1.9-1.1-1.7-.4,0-.5.4-.7.7-.2.3-.7.2-.8.4,0,.2-.1,1,0,1.1.4.1,1.2.3,1.7.2.3,0,.8-.5.9-.6h0v-.1ZM28.8,23.2c-.6.1-1.1-.5-1.6-.7-1.3-.4-2.4.8-1.9,2.1.3.4,1.9.5,2.3.3l.5-.5c.3-.3.7-.1.8-.4v-.7h0l-.1-.1ZM10.1,24.1c-1.9.4-2.9.6-2.6,3,0,2,.9,2.2,2.2,1.1.4-.4.9-.7,1.3-1.2.2-.3.1-.8.4-1.1.4-.4,1.2-.6,1.5-1,.6-1.2-2.1-.8-2.7-.8h-.1ZM24.3,27.9c-.1-.5-.3-1.1-.8-1.5-1.9-1.8-1.5.7-3.4.6-1.2,0-1.7.2-1.6,1.5-.2.9.3,1.4.9,2s1.2,1.4,1.6,2.2c.4.6,1.4.4,1.9,0,.3-.3.4-.8.7-1.3.4-.8,1.1-1.3,1.1-2.2s0-.6-.3-1.1h0v-.2h-.1ZM12.8,26.4c-.7.9-.4,2.8-.4,3.9s.8,1.4,1.5,1.4,1-.6,1.4-.9c.5-.4,1-.2,1.5-.8.3-.3.4-.7.6-1,.2-.4.6-.7.6-1.3s-.2-1.1-.7-1.4c-.5-.4-.6-.4-1.4-.4s-2.2-.4-2.8.3h-.1s-.2.2-.2.2ZM28,26.6c-.7.1-1.9,0-2.7,0-.3.5-.1,1.5.3,1.8.4.4.8.5,1.3.6.7.4,1.4,1,1.9,1.6,1.5,1,2.2-1.5,1.5-2.7-.3-.5-.7-1-.9-1.5-.1-.2-.3-.3-.6-.2-.3.1-.5.3-.7.4h-.2s.1,0,.1,0Z" fill="#090707"/>
  <path d="M1.2,21.2c.4.4.1,1.5.3,2.1.1,1.7,2.5,1.9,3.5,3,.8.9.6,2.4,1.4,3.4.7.9,2.1.7,3.1,1.1.5.2.9.6,1.4.9,1.1,1,3,2.2,4.1,1.4.7-.4,1.4-.8,2.2-.7,1.5,0,2.8,2.1,4.5,2.1,2.2.4,2.7-2.2,4.4-2.8,1.6-.5,3.5,1.1,4.9-.4.9-.7,1.2-2.2,1.7-3.3.8-2,3.8-1.1,4.4-3.3.2-.6.4-1,.6-1.1,0,0,.3,0,.4.1.3.3.7,1.5.6,2.3,0,1.1-.8,2-1.8,2.5-1.5.7-2.6,1.8-3.3,3.3-1,1.7-2.8,2.7-4.6,2.6-1.3,0-2.6.3-3.7,1-1.5.7-3.4.8-5.3.5-2.7-.8-5,1.8-7.8.9-1-.2-1.8-.8-2.5-1.5-1.3-1.3-2.9-2.2-4.3-3.3C3.3,30.1-.3,27.7,0,24.3c.1-1.3.8-3.2,1.1-3.1,0,0,.1,0,.1,0Z" fill="#2d2d2d" opacity=".3"/>
  <path d="M23.1,18.6c-.2.3-1.6.2-2.4,0-.5,0-.7-.3-1.1-.3s-.5.2-.7,0c-1.4-1.3-1.8-3.9.4-4.5.6-.1,1.3-.1,1.9,0,.7.1,1.4,1.2,1.8,1.7.3.4.2,2.7.1,3h0v.1Z" fill="#fff"/>
  <path d="M19.3,3.4c1,.4,1.5,1.6,1.3,2.7,0,.8,0,1.4-.9,1.6s-1.5-.5-2.4-.6c-.5,0-1.2,0-1.5-.5-.7-.8-.4-1.7,0-2.5.1-.3.5-.5.7-.7.7-.4,1.8-.3,2.6,0,0,0,.2,0,.2,0Z" fill="#fff"/>
  <path d="M16.4,12.1c1,.5,1.7,3.9-.3,3.7-.7,0-1.8.1-2.5.1s-.2-.2-.2-.5,0-.5-.1-.7c-.4-.4-1.3-.3-1.5-.9-.4-.6.3-.8.6-1.1.3-.6.6-.7,1.4-.8.8,0,2-.2,2.6.1h.1-.1v.1Z" fill="#fff"/>
  <path d="M17.3,16.5c.7.5.9,1.9.5,2.7-.5.4-1,1.2-1.8,1.2s-.8.2-1.2.3c-.5,0-1.1-.4-1.5-.6-.2-.2-.5-.4-.6-.6-.2-.2.1-.4,0-.9,0-.5.2-1.2.5-1.5.4-.4,1.1-.2,1.6-.3.4,0,.6-.4,1.2-.3,0,0,1.3,0,1.3,0Z" fill="#fff"/>
  <path d="M17.8,7.7c.1,0,.3.4.5.6.3.3.8.2,1.1.4.7.3.8.9.8,1.6.2,1.6-1.4,1.9-2.6,1.7-.5-.1-.8-.8-1.3-1-.2-.1-.4-.4-.6-.6s-.4-.3-.4-.6c0-.5,0-1.7.2-1.9.2-.3,1.9,0,2.2,0h.1v-.2Z" fill="#fff"/>
  <path d="M27.1,13.9c.2.2.3.7.4,1,.2.4.6.5.8.8.1.5.2,1.7.1,2.2,0,.5-.6.4-.9.2-.5-.4-1.6-.3-2.2-.4-.5-.2-.9-.8-1.3-1.2-.2-.2-.3-.4-.3-.7,0-.5-.2-1.4.3-1.7.6-.4,2.3-.4,3-.2,0,0,.1,0,.1,0Z" fill="#fff"/>
  <path d="M23.1,5.8c.4.3,1,.3,1.4.5.3,0,.5.3.8.3,1-.2,1.6.4,1.6,1.4s-1.2.9-1.8,1.1c-.4.3-.6.9-1.3.9-.8.1-1.8-.5-2.1-1.2-.2-.8-.2-1.7.2-2.4.3-.4.8-.9,1-.7h.2v.1Z" fill="#fff"/>
  <path d="M9.3,11.5c.6,0,1.3.6,1.6,1.2.1.5.2,1.5-.2,2-.1.3-.2.6-.4.9-.5.4-1.1,0-1.5,0-1.6-.7-2.6-3.7-.9-4.6.5-.2,1.1,0,1.3.5h.1Z" fill="#fff"/>
  <path d="M11,16.5c.2.1.4.5.7.7.4.2.7.3.6.5-.2.4-.1,1.1-.4,1.5-.3.5-.9,1.4-1.6,1.4-1,.1-2.3-.5-2.4-1.6,0-.7,0-1.6.3-2.1.2-.2.7-.2,1-.3.4-.3,1.2-.4,1.6-.2h.2v.1Z" fill="#fff"/>
  <path d="M28.9,2.4c.3.2,1,.6,1,1.1s.2,1.1.1,1.5c-.2.9-.8,2.5-1.8,1.8-1.6-.2-1.2-1.3-1.6-2.5-.2-.5-.8-.5-.6-.9.2-.3.7-.8.9-1,.4-.3,1.3-.2,1.8,0h.2Z" fill="#fff"/>
  <path d="M16.8,21.2c.5-.2.4-.3,1-.5.4,0,.5.2.7.5.2.2.2.4-.1.7-.4.3-.6.7-.6,1.2,0,.8-.5,1.2-1.1,1.7-.9,1-2-.2-2.5-.9-.4-.4-.3-.9-.3-1.5s0-.8.1-.9c.6-.2,1.9,0,2.5,0h.1s.2-.3.2-.3Z" fill="#fff"/>
  <path d="M27.9,9.7c.4.2.5.8.7,1.2s.3.4.3.7-.1.4-.2.6v.3c-.2,0-.7.3-.9.5-.7.3-2.7.2-3.4-.5-.7-.9-.2-1.7.7-2.2.8-.5,1.8-1,2.7-.6,0,0,.1,0,0,0h.1Z" fill="#fff"/>
  <path d="M24.5,19.3c.2.2.1.6.2,1.1,0,.5.2.6.3,1,0,.6-.2.6-.4,1-.5.8-1.1,1.5-2,.9-.3-.2-.6-.5-.8-.9-.3-.4-.6-.5-.7-.9,0-.9-.1-2.1,1.1-2h.9c.3-.2.9-.6,1.3-.3h.1v.1Z" fill="#fff"/>
  <path d="M31.8,8.7c.2.3,1,.9,1,1.3,0,.8.2,1.7-.7,2.2-.5.4-1.1.3-1.6.7-.3,0-.6.1-.8,0-.5-.5,0-1.6-.4-2.2,0-.2-.2-.4-.3-.6-.2-.6.7-1,1-1.3.5-.2,1.2-.1,1.7,0h0l.1-.1Z" fill="#fff"/>
  <path d="M32.4,13.5c1.4,1.4,0,4.2-2.1,3.9-1.3-.1-1.3-.5-1.3-1.7s.6-.7.9-1c.1-.2,0-.6.2-.8.4-.5,1.6-.7,2.2-.5h0l.1.1Z" fill="#fff"/>
  <path d="M32.9,18c.2.2.7.3.8.7,0,.5.2,1.2,0,1.6-.2.3-.8.6-1.2.9-.7.6-1.5.6-1.9-.2-.2-.3-.6-.3-.9-.4-.5-.4,0-1.2.3-1.5.2-.3.3-1,.7-1.1.5-.1,1.6-.1,2.2,0h0Z" fill="#fff"/>
  <path d="M20.1,21.8c.7.6,1.9,1.8,1.5,2.9-.3.6-.8,1.3-1.6,1.3h-1.1c-.7-.3-1.4-1.2-.9-2,.3-.6.2-1.3.7-1.7.4-.4,1-.6,1.3-.4h.1v-.1Z" fill="#fff"/>
  <path d="M14,2.4c.2.3.9.4,1,.9,0,.5.4.6.4,1,0,.6-.1.5-.2.8-.3.5-.9.5-1.3.6-.3,0-.4.5-.7.4-.6-.5-1.6-1.2-1.8-2-.1-.4,0-1.3.4-1.6s1.6-.5,2.1-.3h0v.2h.1Z" fill="#fff"/>
  <path d="M23.7,1.4c.2,0,.7.2.9.5.2.3.5.4.8.5.1,0,.2.2.2.4s0,.3-.1.8c-.3.4-1,.4-1.4.6-.3,0-.5.4-.8.5-.5,0-1.2.2-1.6,0-.4-.4-.5-1.2-.4-1.8,0-.4.9-1,1.2-1.4.2-.3.8-.2,1.1-.1,0,0,.1,0,0,0h.1Z" fill="#fff"/>
  <path d="M8.8,21.2c.3.4.9,1,.6,1.5,0,.3-.2.5-.6.5h-1.3c-.7,0-1.3-.4-1.8-.8-.3-.2-.7-.4-.8-.7-.4-1.4.6-.9,1.5-1,.8,0,1.9-.4,2.4.4h0v.1Z" fill="#fff"/>
  <path d="M11.9,5.8c.1,0,1.1.8.9,1.1,0,.2-.4.2-.6.4-.5.2-1,.6-1.2,1.1,0,.3,0,.5-.2.5h-1.2c-.4,0-.5,0-.6-.4-.2-.5-.5-.6-.5-1.2v-1c0-.2.4-.2.7-.3.7-.3,1.7-.7,2.4-.3h.3v.1Z" fill="#fff"/>
  <path d="M5.1,17s0,.4.2.6c0,.2.2.2.3.5v1.5c0,.2-.3.3-.6.4-.3.2-.6.5-.9.4-.3,0-.7-.3-.9-.7-.6-.9-.6-1.5,0-2.1,0-.3,0-.7.4-.7.6,0,1,0,1.5.1h0Z" fill="#fff"/>
  <path d="M11.7,9.1c.4,0,.8-.5,1.1-.6.4,0,1,0,1.5.1.2.1.2.4.3.6.3.5.4,1.2,0,1.7-.1.2-.4.1-.6.2-.3,0-.4.3-.6.3-.4.1-1.3.1-1.6,0-.2-.1,0-.8,0-1.1v-1.1h0l-.1-.1Z" fill="#fff"/>
  <path d="M28.9,23.3v.8c-.1,0-.5,0-.7.3-.3.2-.4.5-.6.6-.6.2-1.9.1-2.2-.3-.5-1.1.5-2.4,1.7-2.1.7,0,1.1.8,1.8.7h0Z" fill="#fff"/>
  <path d="M5.9,14.2c.4,0,.8.3.8.7s.3.4.4.8c.2.5,0,1.2-.4,1.4,0,0-.2,0-.3-.1-.4-.2-1.1-.1-1.4-.6-.4-.5-.4-1.2-.5-1.7,0-.3-.5-.6-.2-.8.4-.3,1.1-.2,1.4.2h.2v.1Z" fill="#fff"/>
  <path d="M27.4,19.4c.3.4.9.2,1.3.2.6.1-.4,1.2-.5,1.6-.2.3-.2.4-.4.5-.2,0-1.5.1-1.7,0,0,0,0-.9-.2-1.4-.2-.6.9-1.1,1.3-1h.2v.1Z" fill="#fff"/>
  <path d="M32.2,24c-.3.4-1.1.8-1.8.6-.3,0-.8,0-.9-.3v-1c.1-.2.7-.1.8-.4.2-.2.3-.6.7-.7,1-.3,1.4.8,1.1,1.7h0l.1.1Z" fill="#fff"/>
  <path d="M7.5,19.6h-1c-.3.2-.3,0-.3-.2,0-.6,0-1.3.3-1.8.2-.2.5,0,.6.2.5.4.4,1.2.4,1.8h0Z" fill="#eee88f"/>
  <path d="M20.6,19.8c0,.8-1.7,2.1-1.9.7,0-.2-.5-.4-.3-.7.6-.4,1.6-.2,2.1,0h.1Z" fill="#f4ec92"/>
  <path d="M11.7,14.9c.2.1.7.2,1,.3.3.2.3.7.2,1.2-1,.5-2.3-.8-1.4-1.7.1,0,.2.1.2.2h0Z" fill="#eee88f"/>
  <path d="M30,21.3v1.3h-1.8c-.2,0,.7-.9.7-1,.2-.3.8-.2,1.1-.3h0Z" fill="#e8e08b"/>
  <path d="M29.4,13.6v.5c-.2.2-.2.6-.4.7,0,0-.4,0-.5-.1-.5-.2-.8-.9-.6-1.4,0-.2,1.2.2,1.4.3h.1Z" fill="#eee88f"/>
  <path d="M25.7,4.5c.2,0,.7,1.2.1,1.2s-1.2,0-1.6-.5c0,0,.2-.3.3-.5.2-.3.7-.4,1-.3h.2v.1Z" fill="#eee88f"/>
  <path d="M15.1,6.7s.3.2.2.3c0,.2-.3,0-.4,0s-.4.9-.5.9c-.4-.2-.6-1-.5-1.5.3-.6.8-.2,1.1,0h0l.1.3Z" fill="#e8e08b"/>
</svg>