<svg xmlns="http://www.w3.org/2000/svg" viewBox="0 0 64 64">
  <ellipse cx="33" cy="54" rx="24" ry="6" fill="#1b1512" opacity=".26"/>
  <path d="M10 21l22-9 23 9v29l-23 8-22-8z" fill="#15100e"/>
  <path d="M16 24l16-7 17 7-17 7z" fill="#d0a171"/>
  <path d="M16 25l15 7v20l-15-5z" fill="#9a6442"/>
  <path d="M33 32l16-7v21l-16 6z" fill="#bd7a4d"/>
  <path d="M23 21l17 7M32 33v18" fill="none" stroke="#4b2d21" stroke-width="4" stroke-linecap="round"/>
  <path d="M18 31l10 4M38 34l8-3M20 43l8 3M37 45l8-4" stroke="#d99b66" stroke-width="3" stroke-linecap="round" opacity=".65"/>
  <path d="M12 22c8 6 23 10 40 0" fill="none" stroke="#f1c78f" stroke-width="2" stroke-linecap="round" opacity=".45"/>
  <path d="M17 24l15 7 17-7M16 47l16 6 17-7" fill="none" stroke="#15100e" stroke-width="2" stroke-linejoin="round" opacity=".72"/>
  <path d="M26 16l6 2 6-2 8 4c-9 4-18 4-28 0z" fill="#e3b47e" opacity=".55"/>
  <circle cx="24" cy="37" r="1.6" fill="#5b3929"/>
  <circle cx="43" cy="37" r="1.4" fill="#704630"/>
  <path d="M19 28l8 3M38 29l8-3" stroke="#f0c58c" stroke-width="2" stroke-linecap="round" opacity=".6"/>
  <path d="M21 49l6 2M39 50l6-2" stroke="#4b2d21" stroke-width="2" stroke-linecap="round" opacity=".55"/>
  <circle cx="31" cy="21" r="1.3" fill="#ffe0a5" opacity=".7"/>
  <circle cx="35" cy="45" r="1.2" fill="#6c4430"/>
</svg>
