<svg xmlns="http://www.w3.org/2000/svg" viewBox="0 0 64 64">
  <ellipse cx="33" cy="56" rx="22" ry="5" fill="#090807" opacity=".22"/>
  <path d="M19 22c0-9 6-15 15-15s15 6 15 15v21H19z" fill="#ffffff" stroke="#080705" stroke-width="4" stroke-linejoin="round"/>
  <path d="M23 23c0-7 4-11 11-11s11 4 11 11v16H23z" fill="#f8fff7" stroke="#69b7c8" stroke-width="3" stroke-linejoin="round"/>
  <path d="M14 30c-5 2-7 7-6 12 2 6 8 7 13 3V31z" fill="#ffffff" stroke="#080705" stroke-width="4" stroke-linejoin="round"/>
  <path d="M50 30c5 2 7 7 6 12-2 6-8 7-13 3V31z" fill="#ffffff" stroke="#080705" stroke-width="4" stroke-linejoin="round"/>
  <path d="M17 33c-3 2-4 5-3 8 1 3 5 4 8 1v-8z" fill="#f8fff7" stroke="#69b7c8" stroke-width="3" stroke-linejoin="round"/>
  <path d="M47 33c3 2 4 5 3 8-1 3-5 4-8 1v-8z" fill="#f8fff7" stroke="#69b7c8" stroke-width="3" stroke-linejoin="round"/>
  <path d="M20 39h28c4 5 3 12-3 15H23c-6-3-7-10-3-15z" fill="#ffffff" stroke="#080705" stroke-width="4" stroke-linejoin="round"/>
  <path d="M24 41h20c3 3 2 7-2 9H26c-4-2-5-6-2-9z" fill="#f9fff7" stroke="#69b7c8" stroke-width="3" stroke-linejoin="round"/>
  <path d="M24 52h5v8h-5z" fill="#5c8792" stroke="#080705" stroke-width="3"/>
  <path d="M39 52h5v8h-5z" fill="#5c8792" stroke="#080705" stroke-width="3"/>
  <path d="M25 20h18" stroke="#69b7c8" stroke-width="3" stroke-linecap="round"/>
  <path d="M25 29h18" stroke="#69b7c8" stroke-width="3" stroke-linecap="round"/>
  <path d="M25 45h18" stroke="#d7f3f6" stroke-width="3" stroke-linecap="round"/>
  <circle cx="28" cy="17" r="1.4" fill="#d6eef2"/>
  <circle cx="40" cy="17" r="1.4" fill="#d6eef2"/>
  <path d="M21 25c6 3 19 3 26 0" fill="none" stroke="#080705" stroke-width="2" opacity=".2" stroke-linecap="round"/>
</svg>
