<svg xmlns="http://www.w3.org/2000/svg" viewBox="0 0 64 64">
  <ellipse cx="33" cy="56" rx="23" ry="5" fill="#1b1512" opacity=".28"/>
  <path d="M26 32h13v24H26z" fill="#15100e"/>
  <path d="M30 33h6v21h-6z" fill="#805334"/>
  <path d="M11 31c-8-10 4-20 13-16 4-11 21-10 25 1 9 2 12 15 4 22-11 9-34 7-42-7z" fill="#15100e"/>
  <path d="M16 30c-5-7 5-13 12-10 4-7 15-7 17 2 7 1 8 10 2 15-9 6-25 5-31-7z" fill="#78905e"/>
  <path d="M22 30c5-3 11-2 16 2M32 21c0 7 4 11 11 12M20 25c3-4 7-5 12-5" fill="none" stroke="#a9b87b" stroke-width="3" stroke-linecap="round"/>
  <path d="M15 34c7 8 25 9 36 1" fill="none" stroke="#48643d" stroke-width="4" stroke-linecap="round" opacity=".5"/>
  <circle cx="23" cy="24" r="3" fill="#9fb276"/>
  <circle cx="39" cy="25" r="3" fill="#9fb276"/>
  <circle cx="30" cy="16" r="2.5" fill="#b2bf7d"/>
  <path d="M29 45c4-3 6-7 7-12M36 42c-2-2-5-3-8-3" fill="none" stroke="#4a2e22" stroke-width="3" stroke-linecap="round"/>
  <path d="M25 54h16" stroke="#15100e" stroke-width="3" stroke-linecap="round"/>
  <path d="M14 29c5-12 17-17 31-12" fill="none" stroke="#c7d59a" stroke-width="2" stroke-linecap="round" opacity=".4"/>
  <circle cx="47" cy="31" r="2.3" fill="#5f7c4c"/>
  <circle cx="18" cy="33" r="2" fill="#5f7c4c"/>
  <path d="M28 50c3 1 7 1 11 0" stroke="#a06d45" stroke-width="2" stroke-linecap="round"/>
</svg>
