<?xml version="1.0" encoding="UTF-8"?>
<svg id="Layer_1" xmlns="http://www.w3.org/2000/svg" width="26.3" height="35.2" version="1.1" viewBox="0 0 26.3 35.2">
  <!-- Generator: Adobe Illustrator 29.2.1, SVG Export Plug-In . SVG Version: 2.1.0 Build 116)  -->
  <defs>
    <style>
      .st0 {
        fill: #dfc9c9;
      }

      .st1 {
        fill: #90b98c;
      }

      .st2 {
        fill: #2c2826;
      }

      .st3 {
        fill: #896d67;
      }

      .st4 {
        fill: #b49d90;
      }

      .st5 {
        fill: #635042;
      }

      .st6 {
        fill: #7c7173;
      }

      .st7 {
        fill: #9ccb97;
      }
    </style>
  </defs>
  <path class="st2" d="M5,27.9c-.8-1-2.3-3.9-1.5-5.1s6.1-3,7.2-3.9.9-.4.7-1.2c-2.6-1-3.2,1.2-4.2,1.5-1.8.4-2.7-1.2-3.4-1.5s-2.3-.3-2.6-.5S-.1,13.4,0,12.9s2.2-4.5,2.6-4.7c1-.6,1.4-.1,2.4,0-.2-.9.5-3.3,1.2-3.9s.8-.2,1.1-.4c.6-.6.8-1.5,1.9-1.7s1.7.8,2.3.6,1.2-1.4,2-1.9c1.8-1.1,7-1.6,8.5,0s1.9,5.5,1,6.9c1.2-.3,3,.3,3.4,1.6s-.6,1.9-.8,2.9-.1,4.1-1.4,4.8-1.7-.3-2.6-.3-3.5,1-4.2,1.8c-.1.4,6.3,3.1,6.9,3.8,1.2,1.5-.3,2.6-.9,3.7s-1.4,2.8-1.7,3.2-7,4-7.5,4c-2.8-1.3-7.3-3.2-9.2-5.5ZM13.1,3.1c-.5.6-.8,1.3-1.7,1.3-.5-.3-1.3-.5-1.9-.8l-3.7,4c.5,1,1.5.9,2.4,1.2s.2.7.4.7c2,0,3.4-3.2,4,2.1s0,.2,0,.4c0,.5-.2,1.4,0,1.7.4.2.9,0,1.2,0,0,1,2,2.9,2.8,2.9s.9-.6,1.3-.7c1.6-.2,2.3-.7,2.9-.8s2,.5,2.8.3c0-1.2.1-2.7.4-3.8s1.1-1.5.9-2.6c-.2-.2-3.2,0-3.9-.4-2.2-1,1.1-2.4,1-3.6s-1.1-.3-1.3-.9.9-1.9,0-2.5c-.9-.6-2,.2-2.7.1s-.9-.9-2.2-.7-2,1.3-2.8,2.1ZM10.5,12.9l-4.3-.6c-1.4-.6-1-3.4-3.2-2.8s-2,5.3-1.1,6.4c2.3-.5,3.1,1.8,5.1,2.2.3-2.3,2.5-1.7,4.3-1.7.3-1.6-1.9-1.9-.8-3.4ZM10.9,10.4l-.4,1.3c.8.4,2.5-.8,1.3-1.3l-.6-.4-.2.4ZM10.1,10.8c-.7-.7-2,.6-1.3,1.3s2-.6,1.3-1.3ZM12.2,14.6c.4-.4-.8-1.7-1.3-1.3s.8,1.7,1.3,1.3ZM16.1,17.2c-.9.1-3.2-2.8-3.8-2.1s1.3,1.7,1.3,1.9-1.1,1.5-1.3,2.1c-.7,2-.7,3.4-2.5,4.9,1.2.2,6.2.7,6.8,0s-1.4-1-1.7-1.4c-.8-1.1-.7-4.3,1.1-4.5l.3-.9ZM22.5,22.7c-.7-.6-6.4-4.2-6.8-3.8-.8.7.6.9.8,1.1,1.8,1.1,4.2,1.6,5.6,3.2-.8.9-7.3,4.7-8.3,4.6-2.3-1.4-5.4-2.4-7.7-3.7s-.3-.5-.3-.9c1.1-1,2.6-1.6,3.9-2.4s1.1,0,.8-1.1c-.2-.2-5.7,3.1-6,3.4s-.3,0-.4.3c1,4.8,5.9,6.7,9.9,8.6,4.1-2.2,7.9-3.6,9.7-8.2,0-1.1-1-.8-1.3-1.1ZM20.8,22.8c-1.9,0-7-5-5.5-.5l2.9.5c.3,1.6-1.3,2.2-2.5,2.9l-3.9.5c1,0,1.5.9,2.6.7s4.9-2.5,5.8-3.1.8,0,.6-.9ZM9.7,21.9l-2.6,1.5,1.3.6c0-1.3.8-1.3,1.3-2.1Z"/>
  <path class="st6" d="M5,27.9c1.9,2.4,6.4,4.3,9.2,5.5.4,0,7.1-3.7,7.5-4s1.4-2.5,1.7-3.2c1.2,1.4,1.9,2,.4,3.6s-8.3,5.3-9.6,5.4-9.7-4.3-10-5.5.2-1.4.8-1.8Z"/>
  <path class="st7" d="M13.1,3.1c.8-.9,1.3-2,2.8-2.1s1.6.6,2.2.7,1.8-.7,2.7-.1c.9.6-.2,1.8,0,2.5s1.3.6,1.3.9c.1,1.2-3.2,2.6-1,3.6s3.8.2,3.9.4c.3,1-.7,1.8-.9,2.6-1.6,1.6-4.9,3.3-7.2,3.3s-1.9-.9-3.1-1.2-.9.2-1.2,0c-.2-.2,0-1.2,0-1.7v-.4c-.6-5.3-2-2.1-4-2.1s-.2-.6-.4-.7c-.9-.4-1.9-.2-2.4-1.2l3.7-4c.6.3,1.4.6,1.9.8,2.1,1.1,1,1.2,1.7,3.2l2.1-.3v-1.2s-1.7,0-1.7,0l-.4-3Z"/>
  <path class="st0" d="M4.5,23.2h1.3c0,.4-.1.7.3.9,2.3,1.4,5.4,2.3,7.7,3.7,1,0,7.4-3.7,8.3-4.6s.3-.3.4-.4c.3.2,1.3,0,1.3,1.1-1.7,4.6-5.6,6.1-9.7,8.2-4.1-1.9-8.9-3.7-9.9-8.6,0-.2.3-.2.4-.3Z"/>
  <path class="st1" d="M10.5,12.9c-1,1.5,1.2,1.8.8,3.4-1.8,0-4-.6-4.3,1.7-2-.4-2.8-2.6-5.1-2.2-.9-1.1.3-6.2,1.1-6.4,2.2-.6,1.8,2.2,3.2,2.8l4.3.6Z"/>
  <path class="st3" d="M16.1,17.2l-.3.9c-1.8.2-1.9,3.4-1.1,4.5s2.6.6,1.7,1.4-5.7.2-6.8,0c1.8-1.6,1.8-3,2.5-4.9s1.3-2,1.3-2.1-2.1-1-1.3-1.9,2.9,2.2,3.8,2.1Z"/>
  <path class="st6" d="M24.2,11.6c-.3,1.2-.5,2.6-.4,3.8-.8.3-2.2-.4-2.8-.3s-1.2.5-2.9.8-.8.7-1.3.7c-.8,0-2.8-1.9-2.8-2.9,1.2.3,2.1,1.2,3.1,1.2,2.2,0,5.6-1.7,7.2-3.3Z"/>
  <path class="st6" d="M20.8,22.8c.2,1-.2.7-.6.9-.9.6-5,3-5.8,3.1s-1.6-.6-2.6-.7l3.9-.5c1.2-.7,2.7-1.3,2.5-2.9l-2.9-.5c-1.5-4.5,3.5.5,5.5.5Z"/>
  <path class="st6" d="M13.1,3.1l.4,3h1.7s0,1.2,0,1.2l-2.1.3c-.7-2,.4-2.1-1.7-3.2.9,0,1.2-.7,1.7-1.3Z"/>
  <path class="st4" d="M22.5,22.7c-.1.2-.3.3-.4.4-1.4-1.6-3.8-2.2-5.6-3.2s-1.6-.4-.8-1.1,6.1,3.2,6.8,3.8Z"/>
  <path class="st4" d="M4.5,23.2c.3-.3,5.7-3.7,6-3.4.2,1.1-.3.7-.8,1.1-1.3.8-2.7,1.3-3.9,2.4h-1.3Z"/>
  <path class="st6" d="M9.7,21.9c-.5.8-1.4.8-1.3,2.1l-1.3-.6,2.6-1.5Z"/>
  <path class="st5" d="M10.1,10.8c.7.7-.6,2-1.3,1.3s.6-2,1.3-1.3Z"/>
  <path class="st3" d="M11.8,10.4c1.2.5-.4,1.7-1.3,1.3l.4-1.3h.9Z"/>
  <path class="st3" d="M12.2,14.6c-.4.4-1.7-.8-1.3-1.3s1.7.8,1.3,1.3Z"/>
  <polygon class="st5" points="11.8 10.4 10.9 10.4 11.2 9.9 11.8 10.4"/>
  <path class="st6" d="M12.6,12.1c0-.2,0-.4,0-.4v.4Z"/>
</svg>