<svg xmlns="http://www.w3.org/2000/svg" viewBox="0 0 64 64">
  <ellipse cx="32" cy="57" rx="24" ry="5" fill="#090807" opacity=".24"/>
  <path d="M9 20h46v32H9z" fill="#080705"/>
  <path d="M13 18h38c3 0 5 2 5 5v27H8V23c0-3 2-5 5-5z" fill="#92d5cd" stroke="#080705" stroke-width="4" stroke-linejoin="round"/>
  <path d="M13 32h39v17H13z" fill="#83d0c8" stroke="#4b8c87" stroke-width="3"/>
  <path d="M13 20h18v13H13z" fill="#f9fff8" stroke="#080705" stroke-width="3" stroke-linejoin="round"/>
  <path d="M33 20h19v13H33z" fill="#f9fff8" stroke="#080705" stroke-width="3" stroke-linejoin="round"/>
  <path d="M16 24c4-2 8-2 12 0" fill="none" stroke="#e5f7f2" stroke-width="3" stroke-linecap="round"/>
  <path d="M36 24c4-2 9-2 12 0" fill="none" stroke="#e5f7f2" stroke-width="3" stroke-linecap="round"/>
  <path d="M7 18h9v36H7z" fill="#76aaa5" stroke="#080705" stroke-width="3"/>
  <path d="M48 18h9v36h-9z" fill="#76aaa5" stroke="#080705" stroke-width="3"/>
  <path d="M15 48h35v5H15z" fill="#5d8d88" stroke="#080705" stroke-width="3"/>
  <path d="M18 52h5v8h-5z" fill="#5d8d88" stroke="#080705" stroke-width="3"/>
  <path d="M41 52h5v8h-5z" fill="#5d8d88" stroke="#080705" stroke-width="3"/>
  <path d="M16 37h32" stroke="#bcebe5" stroke-width="3" stroke-linecap="round"/>
  <path d="M17 43h28" stroke="#6fb6ae" stroke-width="3" stroke-linecap="round"/>
  <circle cx="22" cy="39" r="1.5" fill="#5c9b96"/>
  <circle cx="42" cy="39" r="1.5" fill="#5c9b96"/>
  <path d="M11 51h42" stroke="#080705" stroke-width="2" opacity=".32"/>
</svg>
