<?xml version="1.0" encoding="UTF-8"?>
<svg id="Layer_1" xmlns="http://www.w3.org/2000/svg" width="79.2" height="37.7" version="1.1" viewBox="0 0 79.2 37.7">
  <!-- Generator: Adobe Illustrator 29.2.1, SVG Export Plug-In . SVG Version: 2.1.0 Build 116)  -->
  <defs>
    <style>
      .st0 {
        fill: #bdcbc9;
      }

      .st1 {
        fill: #505655;
      }

      .st2 {
        fill: #edf7f8;
      }

      .st3 {
        fill: #7d8686;
      }

      .st4 {
        fill: #373a3a;
      }

      .st5 {
        fill: #5c6463;
      }

      .st6 {
        fill: #dde6ea;
      }

      .st7 {
        fill: #4c5150;
      }
    </style>
  </defs>
  <path class="st7" d="M1.7,34.3s-.3,0-.4,0c-.4-.7,0-1.6-1.3-1.8V11.4s1.2-2.3,1.2-2.3l3-2.1c2.6.3,5.7-.3,8.2,0,.5,0,.2.7.9.5s.1-.4.3-.5c2.7-1.9,4.7-4.5,7.7-6.2.2-.1.2-.3.3-.5,7.7-.6,15.5-.2,23.3-.3,2.3.7,4.6,1.2,6.9,2.4s5.7,3.7,9.1,4.4,2,0,2.7.1,0,.4.5.5c3.3.4,7.2.1,10.6.7.4,0,1.3.3,1.6.5s1.7,1.8,1.7,1.9c.2.5-.1,1.1.6,1.4,0,6.1.9,13.8.3,19.8s-.3.8-.8,1.3-.3.7-.4.7c0,0-.4,0-.5,0-2,1.4-2.6.5-4.4,1.2s-1.2,1.1-1.6,1.4-1,0-1.1.6c-16.7,1.1-33.9-.6-50.7.2-2.3.1-4.5,1.2-6.8-.2s-2-1.8-2.6-2.6H1.7ZM21.4,17.1c-.9.3-1.4,1.1-1.9,1.4-1.5,1-3.1,2.4-4.6,3.2-.3.2-.9,0-1,.1-.5-.2-.5-.3-.5-.8-.3-3.7.5-8.3,0-11.8s-.3-1-1.1-1.1c-1.2-.2-7-.2-8.1,0s-1.2,1.1-1.7,1.8-1.1.9-1.1,1.9v11.5c.5.6,1.6.4,2.4.4.7,1.1.6,2.6.2,3.8l-2.6.3c.3,1.2-.7,4.7.8,5s5.2-.3,7.4,0c1.1-1.6,1.4-3.7,3.1-4.9s3.2-.8,5.2-.9c.8.8,2.1.9,2.8,1.7.8.9,1.4,2.9,1.3,4.1h38c1.2-.1,1.1-3.7,2.5-4.7s1.3-.4,2-.6.2-.4.4-.5c.5-.1,3.4-.1,4,0s.3.4.5.5.6,0,.9.3,1.5,1.5,1.6,1.6c.4.7,1,3.4,1.2,3.6h3c.9,0,1.5-2,1.3-2.9-1.7-1-4-2.1-1.7-4.1.6-.5,1.5-.4,1.7-1.2-.3-3.6.4-8,0-11.5s0-.5-.2-.7l-1.7-.6c0-.5-.3-1.6-.6-1.9s-.8-.3-1.1-.5-.2-.4-.4-.5c-2.1-.5-6.9,0-9.5-.2-2.3-.2-4.2-.6-6.4-1.4l-.2,14.2s-.5.3-.8.2c-2-.1-7.6-4.2-10-4.8V1.7c-.3-.5-5.9-.3-7-.3s-.2,0-.2,0c-5.1,0-11.2-.4-16.2,0-.4,0-1.3.1-1.6.4-.6.5,0,13.4-.2,15.2ZM47.7,1.7v14c0,.8,3.5,1.8,4.3,2.2s.3.5.6.6c1.2.6,2.7,1.3,4,1.6V6.6c0-.1-.3-.5-.4-.6l-8.5-4.3ZM20.6,3.1c-1.1.2-1.8,1.2-2.4,2l-3.3,2.5v12.2l5.8-4.1V3.1ZM2.1,24.5c-.5.2-.8,1.7-.5,2.1h1.8c0,.1.1-2,.1-2-.2-.3-1.1-.3-1.4-.2ZM77.5,28.8v-2.9c-1.7,1.1-2.7,2.8,0,2.9ZM70.6,30.2c-.2-.4-.3-1.1-.7-1.4-1.1-.9-5.7-1-6.6.1s-.1.6-.3.8c-.2.2-.7-.1-1,1s-.1,2.6.8,3.8c1.8.4,3.2,1.6,5.2,1.1s2.1-.8,2.2-.9.9-1.2.9-1.2c.3-.7.3-2.5,0-3.1s-.4-.2-.4-.2ZM20,30.4c-.2-.2-.2-.9-.5-1.3-.9-1.1-4.9-1-6.2-.4s-1.6,1.9-1.7,2.4c-.2,1.1-.2,3,.9,3.6,2.1,1.3,4.4,1.6,6.6.5.7-.4.8-.9,1.5-1,.4-.7.5-3.3,0-3.7s-.5,0-.6-.1Z"/>
  <path class="st4" d="M1.7,34.3h8.2c.5.8,1.8,2.1,2.6,2.6H3.5c-.6-.2-.6-1-1-1.4-.5-.6-.5-.7-.9-1.3Z"/>
  <path class="st4" d="M77.7,33.9c.7,1,0,2.1-.8,2.7-2.3.2-4.6.2-6.9.4.1-.6.8-.4,1.1-.6s.8-1.1,1.6-1.4c1.8-.7,2.4.2,4.4-1.2.1,0,.5,0,.5,0Z"/>
  <path class="st0" d="M75.6,12l1.7.6c.3.2.2.4.2.7.4,3.5-.3,7.9,0,11.5-.1.8-1.1.7-1.7,1.2-2.3,2,0,3.1,1.7,4.1.1.9-.4,2.8-1.3,3h-3c-.2-.3-.8-3-1.2-3.7s-1.5-1.6-1.6-1.6c-.3-.2-.7-.1-.9-.3s-.1-.4-.5-.5c-.6,0-3.5,0-4,0s-.2.4-.4.5c-.7.2-1.3.2-2,.6-1.5,1-1.3,4.5-2.5,4.7H22.1c0-1.2-.5-3.2-1.3-4.1-.8-.9-2-.9-2.8-1.7-2,0-3.6-.3-5.2.9s-2,3.3-3.1,4.9c-2.2-.3-5.3.4-7.4,0s-.6-3.8-.8-5l2.6-.3c.4-1.2.6-2.7-.2-3.8,0,0,.4-.2.8-.3,2.2,0,6.4.5,8.1-.5s1.1-1.2,1.1-1.2.7,0,1-.1c1.5-.8,3.1-2.2,4.6-3.2s1-1.2,1.9-1.4h17.7c.4.9.6,0,.7,0,.3-.1,6.1,0,6.7,0,2.4.6,7.9,4.7,10,4.8.3,0,.8-.3.8-.2s.2.4.5.6c1.6.8.8.6,1.5,1.3s3.4.5,4.6.5c2.6.2,5.6.7,8.2.7,1.5,0,3.3-.3,3.5-2s.2-8.5,0-10.7ZM50.3,20.5c-.2-.2-4.5-2-4.8-2l-19.4.2c-.9.5-.8,4.7-.2,5.1l25.2.2c1-.1,1.6-.4,1.4-1.5s-.8-.6-1.3-1.1-.5-.8-.6-.9ZM15.5,24h8.4l.4-.4v-4.3c0-.7-1.8-.7-2.3-.6-1.9.2-3.2,1.4-4.6,2.4s-1.5.8-1.9,1.3-.6,1.5,0,1.7ZM31.9,25.7h-3c-.6,1.4,1.7.9,2.6.9l.3-.2v-.7Z"/>
  <path class="st2" d="M39.4,1.5l-.2,15.6h-17.7c.2-1.8-.4-14.7.2-15.2s1.1-.3,1.6-.4c5-.4,11.1,0,16.2,0Z"/>
  <path class="st2" d="M57.3,21.6l.2-14.2c2.1.8,4.1,1.2,6.4,1.4,2.6.3,7.5-.2,9.5.2.2,0,.2.4.4.5.4.2.8,0,1.1.5s.6,1.4.6,1.9c.2,2.2.3,8.6,0,10.7s-2,2.1-3.5,2c-2.6,0-5.6-.5-8.2-.7s-3.7.3-4.6-.5,0-.5-1.5-1.3c-.3-.2-.4-.6-.5-.6Z"/>
  <path class="st2" d="M3.9,23.8c-.8,0-1.9.2-2.4-.4v-11.5c0-1,.8-1.4,1.1-1.9.5-.7.6-1.6,1.7-1.8s6.9-.2,8.1,0,1,.3,1.1,1.1c.5,3.5-.3,8.1,0,11.8s0,.6.5.8c0,0-.8,1-1.1,1.2-1.7.9-5.9.4-8.1.5s-.8.3-.8.3Z"/>
  <path class="st2" d="M47.7,1.7l8.5,4.3c.1.1.4.5.4.6v13.6c-1.3-.3-2.8-1-4-1.6s-.3-.5-.6-.6c-.8-.4-4.3-1.4-4.3-2.2V1.7Z"/>
  <path class="st2" d="M39.6,1.5c1,0,6.6-.2,6.9.3v15.3c-.6,0-6.4-.1-6.7,0l-.2-15.6Z"/>
  <path class="st2" d="M20.6,3.1v12.7l-5.8,4.1V7.7l3.3-2.5c.6-.8,1.4-1.8,2.4-2Z"/>
  <path class="st5" d="M20,30.4c.1,0,.5,0,.6.1.5.4.4,3,0,3.7-.7,0-.8.6-1.5,1-2.2,1.1-4.5.8-6.6-.5-1.1-.6-1.1-2.5-.9-3.6s1.3-2.2,1.7-2.4c1.2-.6,5.3-.7,6.2.4s.3,1.1.5,1.3ZM17,29.4c-.5-.2-1.3,0-1.9,0-.6.8-1.8.9-2.3,1.8-1.7,3.2,4.5,5.9,6.4,2.1s-.5-2.8-1.9-3.5c-.2,0-.2-.4-.3-.4Z"/>
  <path class="st5" d="M70.6,30.2c0,0,.3.1.4.2.4.7.4,2.4,0,3.1s-.9,1.2-.9,1.2c0,0-2.1.9-2.2.9-1.9.4-3.4-.8-5.2-1.1-.9-1.2-1.1-2.3-.8-3.8s.8-.8,1-1,.1-.6.3-.8c.9-1.1,5.6-1.1,6.6-.1s.4.9.7,1.4ZM68.3,29.4c-2.1-.7-3.7-.5-4.8,1.4s-.5,1-.3,1.7c.3,1.3,1.9,2.3,3.2,2.3,1.8,0,1.6-.2,2.6-1.2s1.1-.4,1.1-1.5c0-1.6-1.2-1.4-1.8-2.7Z"/>
  <path class="st6" d="M39.8,17.1c-.1,0-.3.9-.7,0l.2-15.6c0,0,.2,0,.2,0l.2,15.6Z"/>
  <path class="st0" d="M2.1,24.5c.3-.1,1.2-.1,1.4.2v2.1c-.1,0-2-.1-2-.1-.3-.4,0-2,.5-2.1Z"/>
  <path class="st0" d="M77.5,28.8c-2.7-.1-1.7-1.8-.1-2.9v2.9Z"/>
  <path class="st1" d="M50.3,20.5c.2.1.4.6.6.9.5.5,1.2.4,1.3,1.1.2,1.1-.4,1.4-1.4,1.5l-25.2-.2c-.5-.4-.7-4.6.2-5.1l19.4-.2c.3,0,4.6,1.8,4.8,2ZM26.2,22.3h24.5c0-.3-.4-.6-.6-.7-1.5-1-3.4-2.1-5.3-2.4-3.6-.5-13.6-.4-17.3,0-.5,0-.9,0-1.2.5v2.6Z"/>
  <path class="st1" d="M15.5,24c-.6-.2-.3-1.3,0-1.7s1.4-.9,1.9-1.3c1.3-1,2.7-2.2,4.6-2.4s2.3,0,2.3.6v4.3l-.4.4h-8.4ZM16.8,22.6h6.7v-3.1c-1.3-.2-2.4.2-3.5.9-.3.2-.3.5-.6.6-.9.5-1.9.9-2.6,1.6Z"/>
  <path class="st1" d="M31.9,25.7v.7c-.1,0-.4.2-.4.2-.9,0-3.2.5-2.6-.9h3Z"/>
  <path class="st3" d="M17,29.4c0,0,0,.3.3.4,1.5.7,2.9,1.5,1.9,3.5-1.9,3.8-8.1,1.1-6.4-2.1.5-1,1.7-1,2.3-1.8.6,0,1.4-.2,1.9,0Z"/>
  <path class="st3" d="M68.3,29.4c.6,1.3,1.8,1.1,1.8,2.7s-.5,1-1.1,1.5c-1,1-.8,1.3-2.6,1.2-1.3,0-2.9-1-3.2-2.3s0-1.2.3-1.7c1.2-1.8,2.8-2.1,4.8-1.4Z"/>
  <path class="st0" d="M26.2,22.3v-2.6c.4-.5.8-.4,1.3-.5,3.7-.4,13.7-.4,17.3,0s3.8,1.4,5.3,2.4.5.5.6.7h-24.5Z"/>
  <path class="st0" d="M16.8,22.6c.7-.7,1.7-1.1,2.6-1.6s.3-.4.6-.6c1.1-.7,2.2-1.1,3.5-.9v3.1h-6.7Z"/>
</svg>