<?xml version="1.0" encoding="UTF-8"?>
<svg id="Layer_1" xmlns="http://www.w3.org/2000/svg" width="26.8" height="32.9" version="1.1" viewBox="0 0 26.8 32.9">
  <!-- Generator: Adobe Illustrator 29.2.1, SVG Export Plug-In . SVG Version: 2.1.0 Build 116)  -->
  <defs>
    <style>
      .st0 {
        fill: #dab88f;
      }

      .st1 {
        fill: #c6a782;
      }

      .st2 {
        fill: #b4889f;
      }

      .st3 {
        fill: #0a0807;
      }

      .st4 {
        fill: #b99c78;
      }

      .st5 {
        fill: #b59976;
      }

      .st6 {
        fill: #d5b28a;
      }

      .st7 {
        fill: #b69674;
      }

      .st8 {
        fill: #385c47;
      }

      .st9 {
        fill: #dab58c;
      }

      .st10 {
        fill: #756650;
      }

      .st11 {
        fill: #bb9c78;
      }

      .st12 {
        fill: #f3e5bc;
      }

      .st13 {
        fill: #b39573;
      }

      .st14 {
        fill: #8e765c;
      }

      .st15 {
        fill: #deb88f;
      }

      .st16 {
        fill: #d6b58c;
      }

      .st17 {
        fill: #b65d6c;
      }

      .st18 {
        fill: #deb98f;
      }

      .st19 {
        fill: #ba9b77;
      }

      .st20 {
        fill: #aa8f6e;
      }
    </style>
  </defs>
  <path class="st3" d="M18.1,0c.3,0,1.5,0,1.6,0s1.1,1.1,1.1,1.2c.2.4.2,2.3,0,2.9s-.9,1.2-.9,1.5.3.8.3,1.2-.1,2.2,0,2.5l.4.2c.8.9.8,1.7.6,2.9s-1.3,2.4-1.6,2.9l-1.4.6c0,.1,0,.3,0,.4l.4.4c.8,1.1,1.7,1.2,2.4,2.1s1,2,1.1,2.1c.5.4,3.3.4,3.9,1.9.2,1.6,1.1,2.4.5,4.1s-.3,0-.4,1.2c-.8,1.9-2.1,1.2-3.5,1.4s-1.9.3-2.8.4c-1.5.2-1.7,2-3.7,2.2s-6.9.2-8.9,0-2.7-.6-3-.8-.6-1.1-1-1.3-1.2,0-1.8-.5-.8-1.2-1-1.7-.4-.1-.4-.3c-.2-1,0-5.3,0-6.4s.5-3.2,1.1-4.2,1.1-1.9,1.6-3.2.4-.2.4-.3-.2-3.6-.2-3.8c-.1-.4-1-1.2-1.2-1.6-.8-1.4-1.4-3.2-.8-4.7s.7-1.1.8-1.1c.9-.9,3.2-1.4,4.4-1.4s1.3.5,2,.4,1.5-.6,2.5-.8h2.8c1,.3.7.6,1.5,1,1-.5,2-1.2,3.2-1.4ZM18.9,2.1c0-.1-.2-.5-.2-.6-.9-.5-2.9,1.1-2.6,1.4.7,0,1.2-.4,1.8-.6h1.2c0-.2-.2-.2-.2-.2ZM9.4,2.3c-.4,0-.8,0-1.1.4.8,1.9.2,2.4-1,3.7s0,.5-1.1,1c-.6-.8.6-1.4.6-2.2-1.6-.6-3.2-.6-3.2,1.5h.6c-.3.8.4,1.2.4,1.3.1.3.2,1.5.2,1.6-.8.7-.7,2.2-.6,3.2s1.8,1.6.6,2.3c-.4,0-.8.3-1,.5-1.1,1.1-1.8,2.9-2,4.4s-.5,5.8,0,6.7.4.3.6.5c.5.8.3,1.6,1.5,1.5s2.3-1.4,2.8-2.4l1.2-9.1h-.6c1-.7,1.6-.7,1.6.6s-.8,7.2-1.2,8.5-.5,1.2-.7,1.6-.7.6-.9.9c-.7,1,.8,1,1.2,1.7.5,0,1,0,1.5,0l5.6.4v-.2c0-.6.2-1.2.3-1.8.4-1.4.9-1.7,1.8-2.7-.3,0-.5-.5-.6-.5-1.2-.6-3.5-.3-4.9-.6-.2-.1-.3,0-.2-.4,1.1.2,2.3-.2,3.4-.2s1.8.4,2.1.2c.8.7,1.7,1.7,2.5,2.2s.3.3.5.1c.6-.6.7-1.5.6-2.2s-.6-2.2-.7-2.3-.3,0-.4,0c-1-1-1.9-2-2.8-3s-1.3-.9-1.2-1.8c-1.7.7-2.9-.3-4.5-.6v-.6c.2,0,.4,0,.6,0,.7.4,1.8.2,2.6.2s0,.2.4.1c1.3-.2-.8-1.7-1-1.9-1.1-1.2-1.7-3.2,0-4.1s2.7-1.1,3.6-1.3.6,0,.8,0c0,0-.2-.3-.2-.4,0-.4,0-1,0-1.4h1s-.2,2-.2,2c.7.1.8-.2,1-.8.5-1.4,0-2.7-.9-3.8-.9-.5-2.4-.8-3.2-1.3s-.4-.5-.7-.7-1.9-.7-2.2-.7c-.6-.4-1.8,0-2.4.2ZM7,4.9c1.1-.4.5-2-.3-2.4s-3.8,0-4.3,1,0,3.8,1.2,4.7c0-1.1-.9-2.3,0-3.3s3-1,3.4,0ZM18.9,4.5c1.2-.5.4-2-.7-1.8s-.7.5-1.1.4c0,1.2,1.8.5,1.8,1.4ZM16.9,10.2c-.9-.1-1.7.6-2.4.9s-1.8,0-1.8,1.4,2.1,2.8,3.2,2.9,2.9-.5,3.1-.6.1-.5.3-.6.9-.3.4-.9c-1.1.2-1.3-.4-1.9-.8-.9-.6-1.9-.8-.9-2.2ZM20,21.7c.3,0,.7,0,1,0,.1-.3-.2-.5-.2-.6-.6-1.7-1.7-1.9-2.8-3.1s-.9-2-2-1.2,1.3,2.3,1.6,2.6.3.7.6,1,1.5,1.4,1.6,1.4c.1,0,.2-.1.2-.1ZM20.4,22.7l-.2.3c0,.2.2.3.2.3.2.9.3,1.8.2,2.6s-.7,1.5-.6,2.4c1.1.2,1.9-.4,2.8-.2-.3-.7.3-1.7.4-1.9s-.3-.3-.4-.3c0-.3.6-2.9,1-3.2-.2-.2-3-.4-3.4,0ZM24.6,23.7c-.4-.4-.7,1-.7,1.2-.2,1-.3,2-.3,3h.7c.6-.2.7-3.9.3-4.2ZM16.7,30.6c1.2-.5,1.8-2.4,1.1-3.4-1.2-1.2-3.2,2.6-2.3,3.4s.8.2,1.2,0Z"/>
  <path class="st19" d="M26.2,28.2c0,.5,0,1.1,0,1.6-.2.8-1.5,1.4-2.3,1.6-1.8.5-3,.6-4.9,1.2H3.8c-1.8-.4-2.4-1.1-2.2-3,.6.5,1.3.3,1.8.5s.6,1,1,1.3,2.6.8,3,.8c2,.2,6.9.2,8.9,0s2.2-1.9,3.7-2.2,1.9-.3,2.8-.4c1.5-.2,2.8.4,3.5-1.4Z"/>
  <path class="st19" d="M18.9,32.6c-1.4.5-13.5.4-15.2,0h15.2Z"/>
  <path class="st2" d="M20.8,9.5l-.4-.2s.2,0,.4.2Z"/>
  <path class="st10" d="M18.7,16.8l-.4-.4s.3.2.4.4Z"/>
  <path class="st15" d="M11.9,2.1c.3,0,1.9.6,2.2.7s.4.5.7.7c.8.5,2.3.8,3.2,1.3.9,1.1,1.4,2.3.9,3.8s-.3.9-1,.8l.2-2h-1c0,.5,0,1,0,1.4l-.6.4c-.9.2-2.8.9-3.6,1.3-1.7.9-1.1,2.9,0,4.1.1.6-.3.4-.7.4-3.1.1-5.8-1.6-6.9-4.5s-.3-.6-.5-1,0-1.3-.2-1.6c.5-.2,1.1-.4,1.6-.6,1.2-.5.5-.3,1.1-1,1.2-1.3,1.8-1.7,1-3.7.3-.3.7-.3,1.1-.4s1.9-.3,2.4-.2ZM10.6,10c.7-4-1.6-.8-.6,0h.6Z"/>
  <path class="st15" d="M15.9,19.3c.9,1,1.9,2.1,2.8,3-.4.8-.5,1.5-1.5,1.8s-.7,0-1,0-.1.4-.1.4c-.3.2-1.7-.2-2.1-.2-1,0-2.3.4-3.4.2,0,.4,0,.3.2.4.7.6,3.8.4,4.9.6,0,0,.3.5.6.5-.9,1-1.5,1.3-1.8,2.7l-5.5-1c-.6-.2-.5-1.9-1.4-1.6.4-1.3,1.3-7.1,1.2-8.5,1-.3,1.4.6,2,.9,1.6.8,3.2,1.3,5,.7Z"/>
  <path class="st18" d="M4.8,15c.2,0,1.9.6,2,.7.3.3.2.8.2,1.2h.2c0,.1.6.1.6.1l-1.2,9.1c-1.3.2-2.8.3-3.6-.9s-.5-3.3-.6-4.9,0-.5-.6-.5c.2-1.5.9-3.3,2-4.4s.7-.5,1-.5Z"/>
  <path class="st4" d="M4.8,9.5c.2.4.2.3.5,1,1.1,2.9,3.8,4.6,6.9,4.5s.8.2.7-.4c.2.2,2.3,1.8,1,1.9s-.4-.1-.4-.1c-.7-.4-1.8-.2-2.6-.2s-.4,0-.6,0v.6c1.5.3,2.8,1.3,4.5.6,0,.9.7,1.3,1.2,1.8-1.8.6-3.4,0-5-.7s-1.1-1.2-2-.9c0-1.3-.7-1.4-1.6-.6h-.2c0-.5.1-1-.2-1.3s-1.9-.7-2-.7c1.2-.7-.5-1.4-.6-2.3s-.1-2.4.6-3.2Z"/>
  <path class="st12" d="M16.9,10.2c-1,1.4,0,1.6.9,2.2s.8,1,1.9.8c.5.5-.3.6-.4.9s0,.5-.3.6-2.7.7-3.1.6c-1.1,0-3.2-1.8-3.2-2.9s1-1.1,1.8-1.4,1.5-1,2.4-.9Z"/>
  <path class="st11" d="M7.6,26.1c.9-.3.7,1.4,1.4,1.6l5.5,1c-.1.6-.2,1.2-.2,1.8-1.9-.3-3.8-.1-5.7-.2s-1,0-1.5,0c-.4-.8-1.8-.7-1.2-1.7s.6-.5.9-.9.6-1.2.7-1.6Z"/>
  <path class="st19" d="M1.7,19.9c.7,0,.6-.1.6.5.1,1.6-.4,3.5.6,4.9s2.3,1.1,3.6.9c-.5,1-1.6,2.3-2.8,2.4s-1.1-.6-1.5-1.5-.5-.3-.6-.5c-.5-.9-.2-5.5,0-6.7Z"/>
  <path class="st16" d="M7,4.9c-.4-1.1-2.7-.9-3.4,0s0,2.2,0,3.3c-1.2-.9-1.9-3.4-1.2-4.7s3.4-1.5,4.3-1,1.4,2,.3,2.4Z"/>
  <path class="st6" d="M20,21.7s0,.2-.2.1-1.4-1.2-1.6-1.4c-.3-.3-.4-.7-.6-1s-2.7-1.9-1.6-2.6,1.5.6,2,1.2c1.2,1.2,2.3,1.4,2.8,3.1v.4s-.8.2-.8.2Z"/>
  <path class="st0" d="M20.4,22.7c.4-.4,3.3-.2,3.4,0-.4.4-1.1,3-1,3.2h-2.2c0-.9,0-1.8-.2-2.6v-.6Z"/>
  <path class="st7" d="M18.7,22.3s.3,0,.4,0,.6,2.1.7,2.3c0,.8,0,1.7-.6,2.2-.2.2-.3,0-.5-.1-.8-.6-1.8-1.6-2.5-2.2,0,0,0-.4.1-.4s.7,0,1,0c1-.3,1.1-1,1.5-1.8Z"/>
  <path class="st9" d="M16.7,30.6h-1.2c-.9-.8,1.1-4.7,2.3-3.4.6,1.1,0,3-1.1,3.4Z"/>
  <path class="st5" d="M4.6,7.9c0,0-.7-.5-.4-1.2h-.6c0-2.3,1.6-2.2,3.2-1.6,0,.8-1.2,1.4-.6,2.2-.5.2-1.1.4-1.6.6Z"/>
  <path class="st13" d="M22.8,25.9s.4.1.4.3-.7,1.3-.4,1.9c-.9-.2-1.8.4-2.8.2-.1-.9.5-1.5.6-2.4h2.2Z"/>
  <path class="st1" d="M24.6,23.7c.4.4.3,4-.3,4.2h-.7c0-1,0-2,.3-3s.3-1.6.7-1.2Z"/>
  <path class="st20" d="M18.9,4.5c0-.9-1.8-.2-1.8-1.4.4,0,.8-.4,1.1-.4,1-.2,1.9,1.3.7,1.8Z"/>
  <path class="st6" d="M17.9,2.3c-.6.2-1.1.7-1.8.6-.3-.3,1.7-1.9,2.6-1.4s.2.4.2.6c-.5-.1-.7,0-1,.2Z"/>
  <path class="st11" d="M14.3,30.6v.2c-.1,0-5.7-.4-5.7-.4,1.9,0,3.8,0,5.7.2Z"/>
  <path class="st4" d="M13.5,16.4c-.8,0-2,.2-2.6-.2.8,0,2-.2,2.6.2Z"/>
  <path class="st8" d="M15.7,25.5c-1.1-.2-4.1,0-4.9-.6,1.4.3,3.7,0,4.9.6Z"/>
  <path class="st14" d="M20.8,21.1c0,.1.3.3.2.6-.3,0-.7,0-1,0l.8-.2v-.4Z"/>
  <path class="st17" d="M18.9,2.1s.2,0,.2.2h-1.2c.3-.1.6-.3,1-.2Z"/>
  <path class="st8" d="M11.9,2.1c-.5,0-1.9.1-2.4.2.6-.2,1.9-.6,2.4-.2Z"/>
  <path class="st11" d="M16.7,30.6c-.4.2-.7.5-1.2,0h1.2Z"/>
  <path class="st20" d="M17.1,8.7c0,.1.3.3.2.4-.3,0-.6,0-.8,0l.6-.4Z"/>
  <path class="st13" d="M20.4,23.3s-.2-.1-.2-.3l.2-.3v.6Z"/>
  <path class="st3" d="M10.6,10h-.6c-1-.8,1.3-4,.6,0Z"/>
</svg>