<svg xmlns="http://www.w3.org/2000/svg" viewBox="0 0 64 64">
  <ellipse cx="32" cy="45" rx="27" ry="13" fill="#15100e"/>
  <path d="M7 43c2-8 13-8 20-12 8-8 24-4 29 7 4 10-12 18-30 17-12 0-22-4-19-12z" fill="#6ca3ae"/>
  <path d="M14 43c5-5 12-4 19-8 5-3 14-1 18 3" fill="none" stroke="#c5dee0" stroke-width="4" stroke-linecap="round"/>
  <path d="M18 49c8 3 19 3 30-2" fill="none" stroke="#3e717b" stroke-width="4" stroke-linecap="round"/>
  <path d="M25 36c-2 4-2 8 1 12M42 37c4 2 6 5 5 9" fill="none" stroke="#8fc0c7" stroke-width="3" stroke-linecap="round" opacity=".72"/>
  <ellipse cx="23" cy="41" rx="7" ry="3" fill="#e1f0ee" opacity=".45"/>
  <ellipse cx="41" cy="43" rx="6" ry="2.5" fill="#e1f0ee" opacity=".34"/>
  <circle cx="18" cy="47" r="2" fill="#2d545e" opacity=".65"/>
  <circle cx="51" cy="42" r="1.7" fill="#2d545e" opacity=".55"/>
  <path d="M11 39c3 12 28 15 44 3" fill="none" stroke="#15100e" stroke-width="2" opacity=".42"/>
  <path d="M9 44c3 8 14 12 28 10" fill="none" stroke="#b9d4d6" stroke-width="2" stroke-linecap="round" opacity=".3"/>
  <path d="M27 48c5 1 10 1 16-1" stroke="#b8dadd" stroke-width="2" stroke-linecap="round" opacity=".5"/>
  <path d="M32 34c4-2 8-2 13 0" stroke="#d9eeee" stroke-width="2" stroke-linecap="round" opacity=".55"/>
  <circle cx="29" cy="43" r="1.4" fill="#2d545e" opacity=".45"/>
  <circle cx="45" cy="49" r="1.2" fill="#c5dee0" opacity=".55"/>
  <ellipse cx="35" cy="40" rx="3.5" ry="1.4" fill="#e1f0ee" opacity=".25"/>
</svg>
