<?xml version="1.0" encoding="UTF-8"?>
<svg id="a" xmlns="http://www.w3.org/2000/svg" width="68.1" height="78" version="1.1" viewBox="0 0 68.1 78">
  <!-- Generator: Adobe Illustrator 29.2.1, SVG Export Plug-In . SVG Version: 2.1.0 Build 116)  -->
  <path d="M1.5,43.8v26.9l3.9,3.6h57.4l4-3.9v-26.3c.2.2,1.2.3,1.5.7v.4c-.6.4-.4,1.4-.4,2-.1,8.3.7,18,0,26.1-.2,2.6-.9,1.6-1.4,2.1-.2.2,0,.7-.2.9-.3.3-1.1-.3-1.2,1.2H3.7c-.9-.8-2-1.3-2.9-1.9l-.8-30.4c.1-.9.9-1.1,1.1-1.5h.4v.1Z" fill="#3d3d3d" opacity=".3"/>
  <path d="M68.1,74.7l-2.9,3.3H3.7v-.4h61.3c.1-1.5.9-.9,1.2-1.2.2-.2,0-.7.2-.9.5-.5,1.1.5,1.4-2.1.7-8.1-.1-17.8,0-26.1,0-.6-.2-1.6.4-2v29.4h-.1Z" fill="#777"/>
  <path d="M1.5,43.8c.1-13.3.7-26.9.3-40.3,1.5-1.8.4-2.5,3.1-2.8C23.7,1.7,43.7-.5,62.4.7c2.4.2,3.6.6,3.8,3.1v39.4c0,.5,0,.6.4.9v26.3l-4,3.8H5.3l-3.9-3.6v-26.9h0l.1.1ZM64.1,5.2c-.4.1-.8-.4-.9-.4H5l-.6.6v9.4h59.6V5.2h.1ZM64.1,16.2H4.4v54.6l.6.6h58.2c.1,0,.6-.5.9-.4V16.2h0Z"/>
  <path d="M1.1,43.8c.3-.6.3-1,.4-1.6C2.6,29.8.7,15.8,1.5,3.2,2.9,1.4,1.9.6,4.6.4,23.7,1.4,43.9-.8,62.8.4c2.4.2,3.6.6,3.8,3.1v40.6c-.3-.3-.5-.4-.4-.9V3.9c-.2-2.6-1.4-3-3.8-3.1C43.7-.4,23.7,1.8,4.9.8c-2.7.2-1.7,1-3.1,2.8.4,13.4-.2,27-.3,40.3h-.4v-.1Z"/>
  <path d="M64.1,5.2v9.6H4.4V5.4l.6-.6h58.2c.1,0,.6.5.9.4h0Z" fill="#fff"/>
  <path d="M64.1,16.2v54.8c-.4-.1-.8.4-.9.4H5l-.6-.6V16.2h59.7ZM61.1,18.4H7c-.2.7-.3,1.3-.4,2-1.2,14.9.9,31.3,0,46.4l1.5,2.2,51.7.2,2-.4V19.1s-.4,0-.6-.1c-.2-.2-.1-.6-.1-.6h0Z" fill="#fff"/>
  <path d="M61.1,18.4s0,.4.1.6c.2.2.6.1.6.1v49.6l-2,.4-51.7-.2-1.5-2.2c.9-15.1-1.2-31.5,0-46.4,0-.7.2-1.3.4-2h54.1v.1ZM14.4,20.2h-6.3v7.7c1.4,0,1.8-2.2,2.2-2.7.8-1.1,3-2.8,3.8-3.9.3-.4.4-.5.3-1.1h0ZM17.7,20.6l-1.8-.4c.1,1.3-1.4,1.8-2.1,2.7-.3.4-.2,1.1-.5,1.5-1.8,2.2-2.9,2.9-4.4,5.5-.2.3-.9,0-.8.6.9,0,1.9.1,2.7-.4.3-.2,5.5-5.3,5.7-5.6.3-.5,0-1.4.3-2.2.2-.8,1.3-.6.9-1.8h0v.1ZM22.5,20.2h-3.3v10.3h3.3v-10.3ZM31.3,20.2h-7v10.3h7v-10.3ZM60,20.2h-26.9v10.3h26.9v-10.3ZM17.7,25c-1.4,0-1.8,2.2-2.2,2.7-.5.6-2.1,1.5-2.2,2.3s.4.5.9.6h3.5v-5.5h0v-.1ZM60,32.4H8.1v3.3h51.9v-3.3ZM27.6,37.2H8.1v12.9h19.5v-12.9h0ZM36.8,37.2h-7.7v12.9h7.7s0-12.9,0-12.9ZM38.7,44.1c0,.8.4,1.5.4,1.8,0,0-.4.4-.4.9v3.2h5.5v-12.9h-5.5v7h0ZM48.6,37.2h-2.2c0,1.6,1.5,2.5,2.2,3.5,1.9,2.8,3.4,5,5.7,7.5.2.3.2.9.3,1,.2.2,1.1,0,1.5,0,.2,0,.5,1.3,1.7.7-.2-1-1.4-1.7-2.1-2.4-2.4-2.4-3.4-4.3-5-7.5-.4-.7-2.3-1.4-2.1-3h0v.2ZM52.2,37.3c-.5-.2-.9-.1-1.4-.1-.6,2,1.3,2.4,2.2,3.6,1.7,2.2,3.8,4.4,5.5,6.6.4.6,0,1.8,1.5,1.9-.4-1,.3-2.4-.2-3.3-.3-.7-2.6-1.5-2.4-3-1.5-.8-4.1-5.2-5.3-5.7h.1ZM60,37.2h-5.5l1.1,2,4.4,4.3v-6.2h0v-.1ZM45.7,40.1v9.9h7.4c0-.5-.6-1.3-1-1.8-1.2-1.7-2.8-3.4-3.6-5.4l-2.8-2.7h0ZM60,51.5H8.1v2.9h51.9v-2.9ZM21.4,55.9h-13.3v11s.4,0,.6.1.1.6.1.6h12.5v-11.8l.1.1ZM30.2,55.9h-7v11.8h7v-11.8ZM39.8,55.9h-7.7v11.8h7.7v-11.8ZM50.8,55.9h-9.6v11.8h9.6s0-11.8,0-11.8ZM60,55.9h-7v11.8h7v-11.8Z"/>
  <rect x="33.1" y="20.2" width="26.9" height="10.3" fill="#b5b5b5"/>
  <rect x="8.1" y="37.2" width="19.5" height="12.9" fill="#b5b5b5"/>
  <rect x="8.1" y="32.4" width="51.9" height="3.3" fill="#fff"/>
  <path d="M21.4,55.9v11.8h-12.5s0-.4-.1-.6-.6,0-.6-.1v-11h13.3l-.1-.1Z" fill="#b5b5b5"/>
  <rect x="8.1" y="51.5" width="51.9" height="2.9" fill="#fff"/>
  <rect x="41.2" y="55.9" width="9.6" height="11.8" fill="#b5b5b5"/>
  <rect x="29.1" y="37.2" width="7.7" height="12.9" fill="#f5f5f5"/>
  <rect x="32" y="55.9" width="7.7" height="11.8" fill="#f5f5f5"/>
  <rect x="23.2" y="55.9" width="7" height="11.8" fill="#f5f5f5"/>
  <rect x="53" y="55.9" width="7" height="11.8" fill="#f5f5f5"/>
  <rect x="24.3" y="20.2" width="7" height="10.3" fill="#f5f5f5"/>
  <path d="M40.5,37.2h3.7v12.9h-2.9c.3-.6-.3-1.2-.4-1.5v-3.7l-.4-5.5v-1.5s0-.7,0-.7Z" fill="#f6f6f6"/>
  <path d="M45.7,40.1l2.8,2.7c.7,2,2.4,3.7,3.6,5.4.3.5.9,1.2,1,1.8h-7.4v-9.9h0Z" fill="#b5b5b5"/>
  <rect x="19.1" y="20.2" width="3.3" height="10.3" fill="#f5f5f5"/>
  <path d="M48.6,37.2c-.2,1.6,1.8,2.3,2.1,3,1.6,3.1,2.7,5,5,7.5.7.7,1.9,1.4,2.1,2.4-1.2.5-1.5-.7-1.7-.7-.5,0-1.3.2-1.5,0-.1-.1,0-.7-.3-1-2.3-2.5-3.8-4.7-5.7-7.5-.7-1.1-2.1-1.9-2.2-3.4h2.2v-.3Z" fill="#f5f5f5"/>
  <path d="M17.7,20.6c.4,1.2-.7.9-.9,1.8-.2.7,0,1.6-.3,2.2-.2.4-5.3,5.4-5.7,5.6-.8.5-1.8.4-2.7.4-.1-.6.6-.3.8-.6,1.5-2.6,2.7-3.4,4.4-5.5.3-.3.2-1,.5-1.5.7-.8,2.2-1.4,2.1-2.7l1.8.4h0v-.1Z" fill="#f5f5f5"/>
  <path d="M52.2,37.3c1.1.5,3.8,4.9,5.3,5.7-.2,1.5,2,2.4,2.4,3,.5.9-.2,2.3.2,3.3-1.4-.2-1-1.4-1.5-1.9-1.7-2.2-3.8-4.4-5.5-6.6-.9-1.2-2.8-1.6-2.2-3.6.5,0,.9,0,1.4.1h-.1Z" fill="#f5f5f5"/>
  <path d="M14.4,20.2c.1.6,0,.7-.3,1.1-.7,1.1-3,2.8-3.8,3.9-.4.5-.8,2.7-2.2,2.7v-7.7h6.3Z" fill="#b5b5b5"/>
  <polygon points="60 37.2 60 43.4 55.6 39.1 54.5 37.2 60 37.2" fill="#b5b5b5"/>
  <path d="M17.7,25v5.5h-3.5c-.6,0-1.1.3-.9-.6.2-.8,1.7-1.6,2.2-2.3.4-.5.8-2.8,2.2-2.7h0v.1Z" fill="#b5b5b5"/>
  <path d="M39.8,37.2v.7h.7v1.5s-.3.4-.4.9c-.1,1.2.6,4.3-1.5,3.9v-7h1.2Z" fill="#f5f5f5"/>
  <path d="M40.9,44.9c-.6,0-.6,1.1,0,1.1v2.6h-.7c0-1.1.4-2.6-1.1-2.6,0-.3-.4-1.1-.4-1.8,2.1.4,1.3-2.7,1.5-3.9,0-.5.4-.8.4-.9l.4,5.5h-.1Z" fill="#f6f6f6"/>
  <path d="M40.1,48.6v1.5h-1.5v-3.2c0-.5.4-.8.4-.9,1.5,0,1.1,1.5,1.1,2.6h0Z" fill="#f6f6f6"/>
  <path d="M40.9,48.6c0,.2.7.9.4,1.5h-1.1v-1.5s.7,0,.7,0Z" fill="#f6f6f6"/>
  <path d="M40.5,37.2v.7h-.7v-.7h.7Z" fill="#f6f6f6"/>
  <path d="M40.9,46c-.6,0-.6-1.1,0-1.1v1.1Z" fill="#f6f6f6"/>
</svg>