<?xml version="1.0" encoding="UTF-8"?>
<svg id="Layer_1" xmlns="http://www.w3.org/2000/svg" width="38.2" height="50.5" version="1.1" viewBox="0 0 38.2 50.5">
  <!-- Generator: Adobe Illustrator 29.2.1, SVG Export Plug-In . SVG Version: 2.1.0 Build 116)  -->
  <defs>
    <style>
      .st0 {
        fill: #9b8971;
      }

      .st1 {
        fill: #b79d81;
      }

      .st2 {
        fill: #7d6a57;
      }

      .st3 {
        fill: #ae9479;
      }

      .st4 {
        fill: #bca183;
      }

      .st5 {
        fill: #c4a889;
      }

      .st6 {
        fill: #1c1715;
      }

      .st7 {
        fill: #86725d;
      }
    </style>
  </defs>
  <ellipse class="st2" cx="19.1" cy="36.6" rx="19.1" ry="13.8"/>
  <g>
    <path class="st6" d="M34.9,33.2c-1,2.7-2.8,6.6-5.1,8.4-5.7,4.5-14.1,5.2-20.3,1.5-4.6-2.7-4.7-5.9-7.6-9.9.8-2.2-1.1-11.4-1-15s.4-6,.7-7.9c.2-1.3,1.3-3.6,2.1-4.5.3-.4,4.4-4,4.7-4.1C13.3,0,22.8-.9,27.5,1.3c3,1.4,8,5.2,8.8,8.4.6,2.2.5,16,.1,18.7s-1.1,3.6-1.5,4.8ZM3.5,13.9c0,1.3,0,2.7,0,4.1,0,2.8-.2,5.9,0,8.6.1,2.2.4,2.7,1,4.6.7,2.4,1.2,3.5,2.5,5.6,5.1,8,18.8,8.2,23.8,0,1.2-1.9,1.9-3.5,2.5-5.6s.9-2.9,1-5.1,0-5.9,0-8.6,0-1.4,0-2,0-.7,0-1,0-.3,0-.5c-.2-3.1.5-3.6-1.8-6.1s-1.1-.4-1.3-.5,0-.9-.5-1.2c-5.5-4.1-14.4-4.4-20.6-1.9-5.3,2.1-6.4,4.2-6.8,9.7Z"/>
    <path class="st2" d="M31.9,16.4c1-.2,1.6-.8,2.5-1,0,.7,0,1.4,0,2-.7,1.3-3.3,3-3.8,4.1s-.2,1.8-.3,2.8c0,1,.6,2-1,1.8,0-.8,0-1.7,0-2.5s1.4-1.4-.3-1c-1.4.3-3.6,2-5.5,2-.6.3-.3,1-.3,1.6-.1,1.7,0,3.4,0,5.1l.8.5c.4,0,.6-.5.7-.5,1.8-.4,4.2-.4,4.6-2.5,2.1,1.5,2.9-2.5,5.1-2.5-.1,2.2-.4,3-1,5.1,0-1.8-.3-.8-1-.2-.9.7-3.8,3-4.6,3.3-1.1.4-2.9.3-4.1.7-1.1,2-1.8,7.2,1.8,4.8,1.3-.9.8-.7,2.3-1.5,1.4-.7,1.7-1.8,3-1.5-5,8.2-18.8,8-23.8,0,1.1.3,2.1,1,3,1.5s.8-.2,1.4.1.4,1.1,1.3,1.5c3.5,1.8,2.2-3.1,1.5-4.9l-4.1-.8-.5,2.5c-.2-.9-.3-2.8-.6-3.4-.7-1.1-3.7-1.1-3.9-2.5l-.5.3c-.6-1.9-.9-2.4-1-4.6l4.6,2.3c-1.2-2.3-1-4.6-.6-7l-4-3.9c0-1.3,0-2.7,0-4.1,3,6.6,11.7,8.9,18.5,8.1,3.4-.4,8.3-2.5,9.9-5.5ZM14.1,24.6l-6-1.6c-.4.4.6,6.3,1.1,7s4.1,2.1,4.7,1.2l.2-6.5ZM15.7,25.1c-.5,2.2-1.1,4.7-.1,6.8.9,1.2,5.1,1,6.4.3,1.6-1.3.3-5.8.2-7.7l-6.5.6ZM15.7,40.8l6.1-.2.5-4.9-6.6.5v4.6Z"/>
    <path class="st1" d="M31.4,7.3c.1.1.9,0,1.3.5,2.3,2.5,1.6,3,1.8,6.1l-.5.3.5.3c0,.3,0,.7,0,1-.9.2-1.6.8-2.5,1,.4-.8,1.5-3.6,1.6-4.3,0-.7-1.8-4.7-2.1-4.8-.5-.4-5.3-2.6-6.1-2.8-5.1-1.4-12.6-.9-17.2,1.9-.2.1,0,.9,0,.9-.1,0-.9-.2-1.4.1-1.7,1-2,4.9-1.6,6.7.7,3.7,8.6,6.5,12,6.8,3.4.3,12.3-1.3,13.9-4.5.3,0,.7,0,1,0-1.6,3.1-6.6,5.1-9.9,5.5-6.8.8-15.4-1.5-18.5-8.1.3-5.5,1.4-7.6,6.8-9.7,6.2-2.5,15.1-2.2,20.6,1.9.5.4.4,1.1.5,1.2Z"/>
    <path class="st3" d="M34.4,26c-2.1,0-2.9,4-5.1,2.5.1-.7,0-1.7,0-2.5,1.6.3.9-.8,1-1.8,0-1-.2-1.8.3-2.8s3.1-2.7,3.8-4.1c0,2.8.2,5.9,0,8.6Z"/>
    <path class="st3" d="M33.4,31.1c-.6,2.1-1.4,3.7-2.5,5.6-1.4-.2-1.6.8-3,1.5v-.5c.2-.9.8-1.8,0-2.5,0-.3,0-.7,0-1,.8-.3,3.7-2.6,4.6-3.3.8-.6,1.1-1.5,1,.2Z"/>
    <path class="st3" d="M4.5,31.1l.5-.3c.2,1.3,3.2,1.4,3.9,2.5s.5,2.5.6,3.4.2,1.1.5,1.5c-1-.5-1.9-1.3-3-1.5-1.3-2.1-1.8-3.2-2.5-5.6Z"/>
    <path class="st2" d="M34.4,14.4l-.5-.3.5-.3c0,.2,0,.3,0,.5Z"/>
    <path class="st4" d="M15.7,25.1l6.5-.6c0,1.9,1.4,6.4-.2,7.7-1.4.7-5.5.9-6.4-.3-1-2.1-.4-4.7.1-6.8Z"/>
    <path class="st4" d="M14.1,24.6l-.2,6.5c-.6,1-4.4-.8-4.7-1.2-.5-.7-1.6-6.6-1.1-7l6,1.6Z"/>
    <path class="st5" d="M29.4,26c0,.8.1,1.8,0,2.5-.4,2.2-2.8,2.1-4.6,2.5h-1.5c0-1.7-.1-3.4,0-5.1,2.4,0,4.2-1.1,6.1-2.5,0,.8,0,1.7,0,2.5Z"/>
    <polygon class="st4" points="15.7 40.8 15.7 36.2 22.3 35.7 21.8 40.5 15.7 40.8"/>
    <path class="st1" d="M9.6,36.7l.5-2.5,4.1.8c.7,1.8,2.1,6.8-1.5,4.9-.8-.4-1-1.3-1.3-1.5-.5-.3-1.2,0-1.4-.1-.3-.5-.4-1-.5-1.5Z"/>
    <path class="st1" d="M27.8,34.2c0,.3,0,.8,0,1-.2.6-1.3,1.8,0,2.5v.5c-1.6.8-1,.6-2.3,1.5-3.6,2.4-2.9-2.8-1.8-4.8,1.2-.5,3-.3,4.1-.7Z"/>
    <path class="st3" d="M23.3,26c0-.5-.3-1.2.3-1.6,1.9,0,4.1-1.7,5.5-2,1.6-.3.3.9.3,1-1.9,1.4-3.7,2.5-6.1,2.5Z"/>
    <path class="st3" d="M24.8,31.1c-.1,0-.3.5-.7.5l-.8-.5h1.5Z"/>
    <path class="st3" d="M3.5,26.6c-.2-2.7,0-5.9,0-8.6l4,3.9c-.4,2.4-.6,4.7.6,7l-4.6-2.3Z"/>
    <path class="st7" d="M31.4,7.3c.2.2,2.1,4.1,2.1,4.8,0,.7-1.2,3.5-1.6,4.3-.3,0-.7,0-1,0,.1-.2,0-1,.2-1.5.6-1.4,1.9-2.2,1.3-4.2l-3.3-3.4-5.3,11.2c2.7.2,4.6-1.3,7.1-2-1.6,3.2-10.5,4.8-13.9,4.5-3.4-.3-11.3-3.1-12-6.8s0-5.7,1.6-6.7,1.3,0,1.4-.1c0,0,.2.6-.1.9-3.5,3.2-3,5.5.4,8.7l6.3-11.4c-.7-.3-2.5.1-3.2.4s-3.3,1.3-3.4,1.4c0,0-.2-.8,0-.9,4.5-2.8,12.1-3.3,17.2-1.9s5.6,2.4,6.1,2.8ZM13.6,18.9c.7.2.9.4,2,.5,1.4.1,6.1.3,6.9-.5l5.3-12.7-4.5-1c-.2,1.1-.6,2.7-2.1,2.5l.5-2.8c-.8-.4-4.4-.4-5.1,0-1.4.9-5.2,10.1-7,11.8-.2,1.2,3.1,2,4,2.2Z"/>
    <path class="st2" d="M27.8,37.7c-1.3-.8-.2-1.9,0-2.5.8.7.2,1.7,0,2.5Z"/>
    <path class="st5" d="M13.6,18.9c-1-.2-4.2-1-4-2.2,1.9-1.7,5.6-10.9,7-11.8s4.3-.4,5.1,0l-.5,2.8c1.4.1,1.8-1.5,2.1-2.5l4.5,1-5.3,12.7c-.7.8-5.5.6-6.9.5l-2-.5ZM21.7,8.3c-1-.2-1.2.5-1.6,1.2-1.5,2.3-3.2,6.3-4,9,1.1.2,1.6-1.8,2.1-2.7.5-.9,3.8-7.1,3.5-7.4Z"/>
    <path class="st5" d="M8.1,7.3c.1-.1,3-1.2,3.4-1.4.7-.2,2.4-.6,3.2-.4l-6.3,11.4c-3.4-3.2-3.8-5.5-.4-8.7.3-.3,0-.8.1-.9Z"/>
    <path class="st5" d="M30.9,16.4c-2.5.8-4.4,2.2-7.1,2l5.3-11.2,3.3,3.4c.6,2-.7,2.8-1.3,4.2-.2.5-.1,1.3-.2,1.5Z"/>
    <path class="st0" d="M15.7,19.5c-1.2-.1-1.3-.3-2-.5l2,.5Z"/>
    <path class="st0" d="M21.7,8.3c.3.3-3,6.6-3.5,7.4-.5.9-1,2.9-2.1,2.7.7-2.7,2.4-6.7,4-9,.4-.7.6-1.4,1.6-1.2Z"/>
  </g>
</svg>