<?xml version="1.0" encoding="UTF-8"?>
<svg id="Layer_1" xmlns="http://www.w3.org/2000/svg" width="32.1" height="45.1" version="1.1" viewBox="0 0 32.1 45.1">
  <!-- Generator: Adobe Illustrator 29.2.1, SVG Export Plug-In . SVG Version: 2.1.0 Build 116)  -->
  <defs>
    <style>
      .st0 {
        fill: #a2a2a1;
      }

      .st1 {
        fill: #fff;
      }

      .st2 {
        fill: #393433;
      }

      .st3 {
        fill: #262222;
      }

      .st4 {
        fill: #809462;
      }

      .st5 {
        fill: #111211;
      }
    </style>
  </defs>
  <path class="st5" d="M10.6,36.9c0-1.3-.9-.8-1-1.3s.5-1.2.4-1.8c-.2-1-4.7-3-5.4-1.3L0,22.6l1.4.5c-.2-1.2.3-3,0-4s-1.4,0-1-1.3c2.3.3,2.9-1,4.3-2.4,0,1.4,1.7,2,2.9,1.4-.9,2.1.4,5,1.4,7s-.2.9,1,.7l.4-2.8-1.9-.8,1.9-1c.2-2-.1-3.1-1.5-4.5l1.5-.3c.4-2.7-.3-3.8-1.5-6,3.6.5-.5-3.3,0-3.8,1,.7,3.2-2.9,3.5-3.5S12.4.7,12.3,0C14.7.1,17.2.7,19.5,0c0,1.8.6,5.6,2.9,5.3-1.4,2.5-.9,4.9-1,7.7l1.4.2c-1.9.8-1.5,1.7-1.4,3.6,1,.2,1.1-.4,1.5-1.2.9-1.9,1.4-5.8,1.9-8h1.4l.3,1.5,4.5-.5c-.9,1.2-.8,5.4-.5,6.9s1.1.6,1.4,1.1c-2,1-2.6,4.9-1.9,7h-2.8v2.4c-1.3-1.2-2.2-1.2-3.8-.4l.4,2.8h-1.4c1.5,2.7,0,5.1.5,7.7s1.5,2,2.6,2.9-1.9.9-2.1,1.1,0,.9-.2,1.2c-.8,1.2-3.5,0-3.7,0v1.4l-3.1-1-1.5,1.5.2-1.9c-3.2,1.3-2.7-.6-3.7-.9s-2.1,0-3.1,0c.2-1.9,1.9-.8,1.9-3.4l.4-.2ZM19.2,4.8c-.1-.3.2-.9-.2-1.4s-3-1.8-3.7-1.7c-4,1-3.2,9.6-3.3,12.7l1.4.3-.3,1.2-1.2-.5c1,4.1.3,8.4.5,12.5-.2,0-.5.3-.7.5l-.7-2.4c-5.2,1.1-2.9-8.1-7.7-7.4-.4.5-.5,4.6-.5,5.5.2,2,.9,3.7,2.4,5.1s6.1,2.7,6.5,3.6c.6,1.3-.4,4.2,1.7,4.3l-.7,1.4c.8,1.7,5.8,2,7.5,1.4l-.3-.8c.7-.2.8-.5,1-1.1.9-3.5.3-9.1-.2-12.6l2.9-1.3-1-1.9h.5c1.9.8,2.3,1.5,4.1,0s3.7-4.4,1.2-4.3c.2-.5.8-.9.9-1.7.3-1.7,0-3.8-.9-5.3-1-.7-1.4.3-1.5.3h-1.4c.1,1.4-.7,2.7,0,4,.7,1.3,1.4.2,1,1.8-2.7-.8-3.6,3.6-7.2,2.4.3-1.4.9-3.5.5-4.9s-1-.6-1.4-1.3c3.1-1,1.8-5.8,1-8.2l-.2-.2Z"/>
  <path class="st0" d="M23,36c3.5.2,5.4,5.1,2.5,7.2s-4.7,1.9-5.7,1.9c-2.5,0-10.4-1.2-12.2-2.6-3.4-2.8-.4-5.1,2.9-5.5,0,2.6-1.7,1.5-1.9,3.4.9,0,2.2-.2,3.1,0s.4,2.2,3.7.9l-.2,1.9,1.5-1.5,3.1,1v-1.4c.2-.2,2.9,1,3.7,0s0-1,.2-1.2,3-.3,2.1-1.1-2.3-1.1-2.6-2.9h-.2Z"/>
  <path class="st1" d="M12.5,27.8c-.2-4,.5-8.4-.5-12.5l1.2.5.3-1.2-1.4-.3c.1-3.1-.7-11.7,3.3-12.7,4-1,3.3,1.3,3.7,1.7s.1,1.1.2,1.4v.5h-1.4v.7l1,.7c-.5,1.7-1.3,4.8-.5,6.2s1.3.9,1.4,1.3c.4,1.4-.2,3.5-.5,4.9,3.6,1.2,4.5-3.2,7.2-2.4.5-1.6-.7-1.3-1-1.8-.7-1.3.2-2.6,0-4,.3-.1.7,0,.9,0l-.5,1.9h1.2l-.2-1.9s.5-1,1.5-.3c.9,1.5,1.2,3.6.9,5.3s-.7,1.2-.9,1.7,0,.3,0,.5h-.5l-.2-.5-.2.5-.5.3c-.1.5.5.7.5.7v.5h-1l-.5.5c-.3.3-.5.5-.5,1-.4,0-1.9.9-2.4,1s-.3,0-.5,0c-.9.2-1.5.3-2.4,0,0,1.1-.2,2.3-.5,3.4h-1.4v.7l1,.7c-.3,1-.6,2-1,2.9s-.4.1-.5.2v.7h1c-.4,2.8,1.8,6.4-2.6,7.7-.7-1.4-.4-1.9-2.2-2.2.2-1.2-.7-3.3,1-3.1v-.5c-1.9,0-2.6-1.3-4.3-1.9v-1.4h-1c-1.5-.4-1.6-.2-2.9-1.4s.4-1.4-1.4-1c0-.2,0-.6-.2-.8l-1.2-.2v-1.9h-1c0-.8,0-5,.5-5.5,4.8-.7,2.4,8.6,7.7,7.4l.7,2.4c.2-.2.5-.4.7-.5v1h1.4v-.7c-.8-1.2-.8-.4-1.4-.2h0ZM18.7,16.8c0-1.8-1.4-1.8-1.4,0h1.4ZM14.2,20.6l-.7,1.2.7.7.7-1.2-.7-.7ZM5.3,21.6h-1.4c0,1.8,1.4,1.8,1.4,0ZM14.9,25.9c0-1.8-1.4-1.8-1.4,0h1.4Z"/>
  <path class="st0" d="M22.5,22.1l1,1.9-2.9,1.3c.5,3.5,1.1,9.1.2,12.6s-.3.9-1,1.1l.3.8c-1.7.6-6.7.2-7.5-1.4l.7-1.4c-2.1,0-1-3-1.7-4.3s-5-2.1-6.5-3.6-2.2-3.1-2.4-5.1h1v1.9l1.2.2c.3.2,0,.7.2.8.4.9.2,1.9,1.4,1,1.2,1.2,1.4,1.1,2.9,1.4v1.4c.3.1.8,0,1,0,1.7.6,2.5,2,4.3,1.9v.5c-1.7-.2-.8,1.9-1,3.1,1.8.3,1.5.8,2.2,2.2,4.5-1.3,2.3-4.9,2.6-7.7s.7-.4.5-1h-1c.4-.9.7-1.9,1-2.9s.3-.9.5-1.4c.3-1,.4-2.3.5-3.4.9.3,1.5.2,2.4,0h.1Z"/>
  <path class="st0" d="M19.2,4.8c.9,2.4,2.2,7.1-1,8.2-.9-1.4,0-4.5.5-6.2s.5-.9.5-1.4v-.5h0Z"/>
  <path class="st0" d="M28.3,17.8c2.5,0-.7,3.9-1.2,4.3-1.8,1.5-2.2.8-4.1,0,.5,0,2-.9,2.4-1s1.3.7,1.9.5v-1.9c0-.6,0-.3,0-.5h1v-1.5h0Z"/>
  <path class="st2" d="M26.9,11l.2,1.9h-1.2l.5-1.9h.5Z"/>
  <path class="st3" d="M27.3,19.7v1.9c-.6.3-1.6-.5-1.9-.5,0-.5.2-.7.5-1s.4-.5.5-.5h1-.1Z"/>
  <polygon class="st3" points="14.2 20.6 14.9 21.4 14.2 22.5 13.4 21.8 14.2 20.6"/>
  <path class="st2" d="M14.9,25.9h-1.4c0-1.8,1.4-1.8,1.4,0Z"/>
  <path class="st2" d="M5.3,26.9c1.8-.5,1.3.9,1.4,1-1.3,1-1.1,0-1.4-1Z"/>
  <path class="st2" d="M19.7,25.4c-.1.5-.3,1-.5,1.4l-1-.7v-.7h1.5Z"/>
  <path class="st2" d="M5.3,21.6c0,1.8-1.4,1.8-1.4,0h1.4Z"/>
  <path class="st2" d="M18.7,16.8h-1.4c0-1.8,1.4-1.8,1.4,0Z"/>
  <path class="st2" d="M12.5,27.8c.6-.1.6-.9,1.4.2v.7h-1.4v-1h0Z"/>
  <path class="st2" d="M19.2,5.3c0,.5-.4,1-.5,1.4l-1-.7v-.7h1.5Z"/>
  <path class="st3" d="M9.6,29.3h1v1.4h-.9v-1.4h-.1Z"/>
  <path class="st3" d="M18.2,29.7h1c.2.5-.5.9-.5,1h-1v-.7c0-.1.4-.1.5-.2h0Z"/>
  <path class="st3" d="M27.8,18.2h.5v1h-1s-.6-.2-.5-.7l.5-.3h.5Z"/>
  <path class="st4" d="M25.9,20.2l.5-.5-.5.5Z"/>
</svg>