<svg xmlns="http://www.w3.org/2000/svg" viewBox="0 0 64 64">
  <ellipse cx="33" cy="56" rx="24" ry="5" fill="#090807" opacity=".24"/>
  <rect x="9" y="6" width="47" height="52" rx="1" fill="#78cfc1" stroke="#080705" stroke-width="4"/>
  <rect x="13" y="11" width="39" height="43" fill="#83dbc9"/>
  <path d="M13 22h39M13 38h39" stroke="#080705" stroke-width="3"/>
  <rect x="17" y="13" width="5" height="8" fill="#f5fff7" stroke="#080705" stroke-width="2"/>
  <rect x="23" y="13" width="5" height="8" fill="#b7ece3" stroke="#080705" stroke-width="2"/>
  <rect x="29" y="13" width="5" height="8" fill="#f5fff7" stroke="#080705" stroke-width="2"/>
  <rect x="36" y="12" width="4" height="9" fill="#477c77" stroke="#080705" stroke-width="2"/>
  <rect x="42" y="12" width="5" height="9" fill="#f5fff7" stroke="#080705" stroke-width="2"/>
  <rect x="17" y="25" width="6" height="12" fill="#477c77" stroke="#080705" stroke-width="2"/>
  <rect x="24" y="25" width="5" height="12" fill="#f5fff7" stroke="#080705" stroke-width="2"/>
  <rect x="31" y="25" width="5" height="12" fill="#b7ece3" stroke="#080705" stroke-width="2"/>
  <rect x="38" y="25" width="9" height="12" fill="#5fb2a7" stroke="#080705" stroke-width="2"/>
  <rect x="17" y="41" width="12" height="11" fill="#5fb2a7" stroke="#080705" stroke-width="2"/>
  <rect x="31" y="41" width="5" height="11" fill="#f5fff7" stroke="#080705" stroke-width="2"/>
  <rect x="38" y="41" width="10" height="11" fill="#477c77" stroke="#080705" stroke-width="2"/>
  <path d="M14 10h35" stroke="#c5f5ec" stroke-width="3" stroke-linecap="round" opacity=".75"/>
  <path d="M11 57h43" stroke="#080705" stroke-width="2" opacity=".35"/>
</svg>
