<?xml version="1.0" encoding="UTF-8"?>
<svg id="Layer_1" xmlns="http://www.w3.org/2000/svg" width="23.8" height="34.3" version="1.1" viewBox="0 0 23.8 34.3">
  <!-- Generator: Adobe Illustrator 29.2.1, SVG Export Plug-In . SVG Version: 2.1.0 Build 116)  -->
  <defs>
    <style>
      .st0 {
        fill: #c6bd98;
      }

      .st1 {
        fill: #a2855c;
      }

      .st2 {
        fill: #c2a573;
      }

      .st3 {
        fill: #32302a;
      }

      .st4 {
        fill: #1a1814;
      }

      .st5 {
        fill: #b39c6a;
      }

      .st6 {
        fill: #75654a;
      }

      .st7 {
        fill: #8e805d;
      }
    </style>
  </defs>
  <path class="st4" d="M.2,25.2c0-2.3-.4-6.5,0-8.5s1.5-1.4,1.7-2.3.4-5.7.4-6c-.2-.8-1.3-1.1-.8-2.4s3-.7,3.4-1.2c.7-1.1-2.2-3.7.3-3.8C7.4.8,8.4.2,10.2,0c3-.3,5.4,1.9,8.6,1.1l-.7,3.4c.3,1,2.4.6,2.5,1.9s-.9,1.3-1.1,2.2.1,2.6,0,3.8l.8-3.2c1.2-.8,2.1-.9,3.5-.4v1.4s-2.1.5-2.1.5c.3,1.2-1.1,3.2-1.1,3.8s1.6,1.8,1.8,2.9c.4,1.9,0,5.6,0,7.8s.4,6.2,0,8.2-.2.7-.5.9H.2c0-3,0-6.1,0-9.1ZM9.3,1.9l-4,.7h3.1c.6,0,.7-.6.9-.7,1.6-.7,3.6.6,4.4.7-.9-.1-2.3-.5-3.1-.4-1.3,0-2.6,1.2-4.2.8.2,1.6-.2,1.7-1.1,2.6s-.4.4-.4.7c-.8,0-2.5-.5-2.2.7h16.2s0-.7,0-.7c-.4,0-.9,0-1.3,0v-.4c-.8-.8-.8-1.8-.7-2.9-1.2.3-2.3-.2-3.3-.4.8.1,1.9,0,2.7,0s1.4.3,1.3-.4c-2.9.8-5-1.8-7.8-1s-.5.6-.6.7ZM3.4,11c1.4-1,3.9-.5,5.6-.4s2.4-.6,2.4.6v5.5c0,.9-2,.3-2.4.3-1.7,0-4.2.6-5.6-.5.5-1.8,0-3.7,0-5.5,0,0-.4,0-.4.2.1,1.7-.2,3.6,0,5.2s.1,1.6,1.3,1.8,13.1.2,13.7-.1l.3-10-.6-.7c-1.8,0-3.6-.1-5.4,0s-.8.4-.9.4c-2.5,0-5.1.1-7.7-.2-.6.4-.4,2.6-.4,3.5ZM5.6,11.3c-1.3-1.2-1.5,2.4-.2.7s.3-.6.2-.7ZM8.2,11.3c-1.3-1.2-1.5,2.4-.2.7s.3-.6.2-.7ZM10.7,11.3c-1.3-1.2-1.5,2.4-.2.7s.3-.6.2-.7ZM5.6,14.2c.1-.7-.4-1.2-1.1-1.1v1.1s1.1,0,1.1,0ZM8.2,14.2c.1-.7-.4-1.2-1.1-1.1v1.1s1.1,0,1.1,0ZM10.7,14.2c.1-.7-.4-1.2-1.1-1.1v1.1s1.1,0,1.1,0ZM5.6,15.3c-1.3-1.2-1.5,2.4-.2.7s.3-.6.2-.7ZM8.2,15.3c-1.3-1.2-1.5,2.4-.2.7s.3-.6.2-.7ZM10.7,15.3c-1.3-1.2-1.5,2.4-.2.7s.3-.6.2-.7ZM20.9,23.7v-6.4c0-.4-1-2.2-1.5-1.6,0,1.2.2,5.7-1,6.1-4.6-.3-10.1.6-14.5,0s-1.4-4-1.6-5.8c-.4,0-1.1,1.1-1.1,1.3v6.4h19.7ZM17.8,19.3c-3.8.5-10.1,0-14.2,0s-.4-.5-.5-.4c-.2,2.2,1.7,2.1,3.4,2.2,2.5.2,7.9.3,10.2,0,1.3-.2,1.9-.8,1.7-2.2-.1-.2-.4.3-.5.4ZM20.9,24.4H1.8l-.5.5v5.6h19.7v-6.2ZM20.9,31.7H1.6v1.1h19.3v-1.1Z"/>
  <polygon class="st1" points="20.9 24.4 20.9 30.6 1.3 30.6 1.3 25 1.8 24.4 20.9 24.4"/>
  <path class="st2" d="M11.5,7.7c-1.5,3.3,1.4,2.5,3.6,2.6.2.1-.4.5-.4.5v5.8c0,.7,2.5.7,2.5,0v-5.5c0-.2-.8-.5-.7-.9h1.5s.4-2.2.4-2.2l-.3,10c-.6.4-12.5.4-13.7.1s-1.2-.8-1.3-1.8h.4c1.3,1.1,3.9.5,5.6.5s2.4.6,2.4-.3v-5.5c0-1.2-2-.6-2.4-.6-1.8,0-4.2-.6-5.6.4,0-.9-.2-3.1.4-3.5,2.5.3,5.1.3,7.7.2Z"/>
  <path class="st5" d="M20.9,23.7H1.3v-6.4c0-.1.7-1.3,1.1-1.3.3,1.8-.9,5.5,1.6,5.8,4.4.5,10-.4,14.5,0,1.2-.4.9-4.9,1-6.1.5-.5,1.5,1.3,1.5,1.6v6.4Z"/>
  <path class="st2" d="M13.6,2.6c.9.1,2.1.7,3.3.4,0,1.1,0,2.1.7,2.9l-12.4-.4c.9-.9,1.3-.9,1.1-2.6,1.6.5,2.9-.7,4.2-.8s2.2.3,3.1.4Z"/>
  <path class="st3" d="M18.4,8.1l-.4,2.2h-1.5c0,.4.7.8.7.9v5.5c0,.7-2.5.7-2.5,0v-5.8c0,0,.5-.4.4-.5-2.2,0-5.1.7-3.6-2.6,0,0,.4-.4.9-.4,1.8,0,3.6,0,5.4,0l.6.7ZM16.5,11.3c-1.3-1.2-1.5,2.4-.2.7s.3-.6.2-.7ZM16.5,14.2c.1-.7-.4-1.2-1.1-1.1v1.1s1.1,0,1.1,0ZM16.5,15.3c-1.3-1.2-1.5,2.4-.2.7s.3-.6.2-.7Z"/>
  <path class="st1" d="M17.8,19.3c.1,0,.4-.5.5-.4.2,1.4-.3,2-1.7,2.2-2.3.4-7.7.2-10.2,0-1.8-.1-3.7,0-3.4-2.2.1-.2.5.4.5.4,4.1,0,10.4.5,14.2,0Z"/>
  <rect class="st6" x="1.6" y="31.7" width="19.3" height="1.1"/>
  <path class="st7" d="M4.9,6.2c3.9-.2,8.8-.2,12.7,0s.8,0,1.3,0v.7s-16.2,0-16.2,0c-.3-1.2,1.4-.7,2.2-.7Z"/>
  <path class="st3" d="M17.6,5.9v.4c-3.9-.2-8.8-.2-12.7,0,0-.4.1-.5.4-.7l12.4.4Z"/>
  <path class="st7" d="M9.3,1.9c.1,0,.1-.5.6-.7,2.8-.8,4.8,1.8,7.8,1,0,.6-.8.3-1.3.4-.8,0-2,.1-2.7,0s-2.8-1.4-4.4-.7Z"/>
  <path class="st7" d="M9.3,1.9c-.2.1-.3.8-.9.7h-3.1s4-.7,4-.7Z"/>
  <path class="st7" d="M3.4,16.4h-.4c-.2-1.6.1-3.6,0-5.2,0-.3.3-.2.4-.2,0,1.8.5,3.7,0,5.5Z"/>
  <path class="st0" d="M16.5,11.3c0,0,0,.5-.2.7-1.3,1.6-1.1-1.9.2-.7Z"/>
  <path class="st0" d="M16.5,14.2h-1.1s0-1.1,0-1.1c.7-.1,1.2.4,1.1,1.1Z"/>
  <path class="st0" d="M16.5,15.3c0,0,0,.5-.2.7-1.3,1.6-1.1-1.9.2-.7Z"/>
  <path class="st0" d="M8.2,11.3c0,0,0,.5-.2.7-1.3,1.6-1.1-1.9.2-.7Z"/>
  <path class="st0" d="M10.7,11.3c0,0,0,.5-.2.7-1.3,1.6-1.1-1.9.2-.7Z"/>
  <path class="st0" d="M5.6,14.2h-1.1s0-1.1,0-1.1c.7-.1,1.2.4,1.1,1.1Z"/>
  <path class="st0" d="M8.2,14.2h-1.1s0-1.1,0-1.1c.7-.1,1.2.4,1.1,1.1Z"/>
  <path class="st0" d="M10.7,14.2h-1.1s0-1.1,0-1.1c.7-.1,1.2.4,1.1,1.1Z"/>
  <path class="st0" d="M5.6,15.3c0,0,0,.5-.2.7-1.3,1.6-1.1-1.9.2-.7Z"/>
  <path class="st0" d="M8.2,15.3c0,0,0,.5-.2.7-1.3,1.6-1.1-1.9.2-.7Z"/>
  <path class="st0" d="M10.7,15.3c0,0,0,.5-.2.7-1.3,1.6-1.1-1.9.2-.7Z"/>
  <path class="st0" d="M5.6,11.3c0,0,0,.5-.2.7-1.3,1.6-1.1-1.9.2-.7Z"/>
</svg>