<?xml version="1.0" encoding="UTF-8"?>
<svg id="Layer_1" xmlns="http://www.w3.org/2000/svg" width="34.9" height="31.7" version="1.1" viewBox="0 0 34.9 31.7">
  <!-- Generator: Adobe Illustrator 29.2.1, SVG Export Plug-In . SVG Version: 2.1.0 Build 116)  -->
  <defs>
    <style>
      .st0 {
        fill: #a58f7e;
      }

      .st1 {
        fill: #f8dbc0;
      }

      .st2 {
        fill: #8d7c6f;
      }

      .st3 {
        fill: #ddc3aa;
      }

      .st4 {
        fill: #f2d5bb;
      }

      .st5 {
        fill: #fee9dc;
      }
    </style>
  </defs>
  <path class="st0" d="M7.9,7.2h-.5c0-.6-.3-1.5.5-1.8,0,.6-.1,1.3,0,1.8Z"/>
  <path class="st0" d="M23.2,9.5c.1-.1.3-.3.5-.5,0,.2-.4.3-.5.5Z"/>
  <path class="st0" d="M4.2,27c1.4-.7,3.2-.5,3.6-2.5s.5-3.7.5-4.5c0-1.9-1.2-3.5-1.4-4.9s1.2-4.7-1.2-5.6-2.6,3.2-5.5,1.2c-.9-2.3.7-3,1.2-4.3s.4-1.6.8-2.4c.6-1.6,1.6-.9.2-3.6l1.6.4.4-.9h.8c1.9,1.9,3.4.6,5.9,2.3s2.9,5.9,7.6,5.9,3.9-2.1,8.5-.8,1.8,1.5,2.6,1.9,1.7.1,2.5.7,1.5,1.6,1.5,1.7c.3,1.4-.6,2.7-.4,3.9s.8,1.2.9,1.9c.4,2.4-.4,5.2.5,7.6-1.7.9-1.8-.7-2.3-1.6l1.4.4c-.2-.7-.8-1.9-.8-2.6s.5-.5.3-1.9-.4-1.6-.5-1.8c-.2-2.5.8-5.4-1.6-7.2-1.1-.2-.5.5-.7,1.1-.4,2.5-.2,2.9,0,5.2s0,.6,0,.9-.6.2-.3.9c.7,1.4,2.9,2.2,2.1,5,0,0-.5-.2-.7-.5-.4-.9,0-2.3-1.1-2.7-.6,2.5,1.6,3.9.4,6.3.8-.2,1.2.1,1.8.5-2.4-.6-2.1,1.6-3,2.3s-1.4,0-1.5,0c.5-.5.6-1.2.9-1.8,1-2.2,1.2-3,.9-5.6s-1.3-3.1-1.4-4.5c-.2-2.5,1.9-6.3-.6-8.3-1.6-1.3-3-1-4.7,0,.2-.5.6-.7.4-1.3-2.7.1-4,1.7-6.9,1.3s-1.7-1.4-2.4-.4c-1,1.7.2,5.4,2.3,5.9s3.5.1,4.3-.7.2-2.8,1.8-4.3c-.3.9-.2,2.3-.5,3.2-.7,3.1-1.9,1.3-4.1,2.9l.7,1.1c1.4.4,4.4-1.4,4.7-3.1.5,1.5.2,2.8.7,3.6s1.5.7,1.9,1c2.5,2.4,2,6.2,2.9,9.3-1.2,0-2.7.7-1.8,1.8-.1,0-.6,1-1.4-.2.4-2.5,1.7-.5,1.8-2.9s0-3-1.1-4c-.2,0-1.5,2.6-1.7,3.2s.2.9.1.9c-.3.3-1.1-.3-1.2,1.8h-2.9s.9-1.8.9-1.8h-8.1c-.2,0,.3,2-1.8,2.7v-1.3s-1.8.4-1.8.4c0-.6,0-1.2,0-1.8.2-1.1,1-2.8.2-4.1l-.7,4.1c-1.4,2.5-3.7.9-5.9.9ZM8.3,4.5c-.2-.3-1.4-.6-1.7-1-.7-.8-.4-2.7-1.9-2.6.7,2.3-.8,2.1-1.3,3s-.7,2-1.2,2.8-2,1.4-1.5,3.2c2.6.1,3.8-3,6.8-2.7-.2,1.5-.6,1.9.9,3.2,0,.4,0,.9,0,1.4s0,.6,0,.9h.7c.1,0,.1-.4.2-.4,1.3-.6,2.4-.8,3.5-1.2s.7,0,.6-1c-3.3-.3-3-2.9-5-4.5,0-.3,0-.7,0-.9.3.5,2.1,3.2,2.3,3.4.3.3,3.4,1.8,3.6,1.6.3-1.9-1.3-4.9-2.7-6s-4.4-2.6-4.2-.7c1.5.2,1,1.5,1.1,1.8ZM9.2,13.5c-.4.3-1.5-.1-1.2,1.8s1.4,1.7,2.1,2.2,3.1,4.1,3.6,3.6c.5-4.6,2.6-13.1-4.5-7.7ZM14.2,25.7h7.9c1.7,0,2.4-7.4-1.3-7.7s-3.8.9-5.6.6l-1,7.1Z"/>
  <path class="st2" d="M10.6,26.1c0,.6,0,1.2,0,1.8s-.6.8-.4,1.3c.9.2,1.5-.2,2.2-.4,2.1-.7,1.6-2.7,1.8-2.7h8.1l-.9,1.8h2.9c0-2.1.9-1.5,1.2-1.8h2.7c-.1,2.4-1.4.4-1.8,2.9.7,1.2,1.2.2,1.4.2.3,0,.6,0,.9,0s.6.7,1.5,0,.6-2.9,3-2.3c1.1.6,2.5,1,1.4,2.4s-8.8,2-10.2,2.1c-2.9.2-7,.2-9.9,0s-11.1-1.4-11.4-1.9c-.7-.9.6-2.3,1.3-2.7,2.2,0,4.5,1.6,5.9-.9h.5Z"/>
  <path class="st4" d="M29.5,27.5c-.8-3.1-.3-6.9-2.9-9.3s-1.5-.2-1.9-1-.1-2.2-.7-3.6.4-1.2-1.4-.9c.2-.9.2-2.2.5-3.2s.4-.3.5-.5c1.7-1,3.1-1.3,4.7,0,2.5,2,.4,5.8.6,8.3.1,1.3,1.2,2.5,1.4,4.5s0,3.5-.9,5.6Z"/>
  <path class="st5" d="M23.2,9.5c-1.6,1.5-.8,3.3-1.8,4.3s-3.2.9-4.3.7c-2.1-.4-3.3-4.2-2.3-5.9s1.6.2,2.4.4c2.9.5,4.2-1.1,6.9-1.3.2.7-.3.9-.4,1.3-.2.1-.3.3-.5.5Z"/>
  <path class="st1" d="M9.2,13.5c7.1-5.5,5,3.1,4.5,7.7-.5.5-2.9-3-3.6-3.6l-.9-4.1Z"/>
  <path class="st4" d="M8.3,10.4c-1.5-1.3-1.1-1.6-.9-3.2h.5c.3,1.5.5,1.4.5,3.2Z"/>
  <path class="st4" d="M7.4,7.2c-3-.3-4.2,2.8-6.8,2.7-.5-1.8,1-2.2,1.5-3.2s.7-1.9,1.2-2.8,2-.7,1.3-3c1.6-.2,1.3,1.8,1.9,2.6s1.5.7,1.7,1,0,.6,0,.9h-.5c-.7.3-.4,1.2-.5,1.8ZM5.4,3.2v.5c.3-.2.3-.3,0-.5Z"/>
  <path class="st4" d="M8.3,4.5c-.2-.3.4-1.6-1.1-1.8-.2-1.9,3.5.1,4.2.7,1.4,1.2,3.1,4.1,2.7,6-.2.2-3.3-1.3-3.6-1.6s-1.9-2.8-2.3-3.4Z"/>
  <path class="st1" d="M8.3,5.4c2,1.6,1.7,4.2,5,4.5.1.9,0,.7-.6,1-1.1.5-2.2.6-3.5,1.2l-.9-.5c0-.4,0-.9,0-1.4,0-1.7-.1-1.6-.5-3.2s0-1.2,0-1.8h.5Z"/>
  <path class="st3" d="M31.7,17.6c.4.8.8,1.7,1.6,2.2l.2-.4c.2,1.4-.3,1.1-.3,1.9s.6,1.8.8,2.6l-1.4-.4c.9-2.7-1.4-3.6-2.1-5s.3-.8.3-.9h.9Z"/>
  <path class="st3" d="M33.1,17.6h-1.4c-.2-.4.5-1.2-.9-.9-.2-2.3-.4-2.7,0-5.2s-.4-1.3.7-1.1c2.4,1.8,1.4,4.7,1.6,7.2Z"/>
  <path class="st3" d="M22.7,12.6c1.7-.3,1.1.2,1.4.9-.3,1.7-3.2,3.5-4.7,3.1l-.7-1.1c2.2-1.7,3.3.2,4.1-2.9Z"/>
  <path class="st3" d="M9.2,13.5l.9,4.1c-.6-.6-1.7,0-2.1-2.2s.8-1.5,1.2-1.8Z"/>
  <path class="st3" d="M10.6,27.9l1.8-.4v1.3c-.8.3-1.4.6-2.2.4-.2-.5.4-1,.4-1.3Z"/>
  <path class="st1" d="M33.1,17.6c0,.2.4,1.1.5,1.8l-.2.4c-.8-.6-1.2-1.4-1.6-2.2h1.4Z"/>
  <path class="st1" d="M30.8,16.7c1.4-.3.7.5.9.9h-.9c0-.3,0-.6,0-.9Z"/>
  <path class="st3" d="M29.5,27.5c-.3.6-.4,1.3-.9,1.8-.3,0-.6,0-.9,0-.9-1.1.6-1.9,1.8-1.8Z"/>
  <path class="st4" d="M9.2,12.2c-.1,0,0,.4-.2.4h-.7c0-.3,0-.6,0-.9l.9.5Z"/>
  <path class="st0" d="M5.4,3.2c.3.2.3.3,0,.5v-.5Z"/>
</svg>