<?xml version="1.0" encoding="UTF-8"?>
<svg id="Layer_1" xmlns="http://www.w3.org/2000/svg" width="33.7" height="41.7" version="1.1" viewBox="0 0 33.7 41.7">
  <!-- Generator: Adobe Illustrator 29.2.1, SVG Export Plug-In . SVG Version: 2.1.0 Build 116)  -->
  <defs>
    <style>
      .st0 {
        fill: #0e1110;
      }

      .st1 {
        fill: #574d41;
      }

      .st2 {
        fill: #8b7d71;
      }

      .st3 {
        fill: #7e7367;
      }

      .st4 {
        fill: #977e73;
      }

      .st5 {
        fill: #b09d8e;
      }

      .st6 {
        fill: #613536;
      }

      .st7 {
        fill: #94887b;
      }

      .st8 {
        fill: #131313;
      }

      .st9 {
        fill: #c8b2a2;
      }

      .st10 {
        fill: #716964;
      }

      .st11 {
        fill: #bfaa9b;
      }

      .st12 {
        fill: #9f9789;
      }

      .st13 {
        fill: #c4afa0;
      }

      .st14 {
        fill: #8d7f72;
      }

      .st15 {
        fill: #bfad9d;
      }

      .st16 {
        fill: #866e63;
      }

      .st17 {
        fill: #b27474;
      }

      .st18 {
        fill: #83766c;
      }

      .st19 {
        fill: #bca898;
      }
    </style>
  </defs>
  <rect class="st6" y="23" width="33.3" height="18.7" rx="3.8" ry="3.8"/>
  <path class="st8" d="M32.5,12.8c0,5.6,0,11,0,16.5,0,1.5.3,8.1-.3,8.9-.8,1.1-4,.1-5.2.1-6.4-.1-13.2-.1-19.6,0s-4.3.9-5.4,0c-.4-.3-.4-.7-.5-1.1-.3-2.3,0-5.5,0-7.9-.1-4.7,0-9.3,0-14,0-2,.4-6.6,0-8.2l-.3-.3s-.3-.2-.3-.8C.8,5.1.7.2,1.7.2h30.3c.4.3.4.6.5,1.1.4,3.3,0,8,0,11.5ZM31.2,1.4H2.5v3.8c9.5-.5,19.2-.5,28.7,0V1.4ZM25.2,20.3c-3.2-3.9-6.7-7.6-10.2-11.4-.5-.6-1.1-1.8-1.6-2.2-1.5-1.2-4.7-.4-6.6-.6-1.1,1,0,2,.7,2.9,2.8,3.6,7.1,8.6,10.4,11.9.6.6.8,1.3,1.8,1.5s5,.2,5.9,0,.8-.4,1.1-.8c0-.3-1.3-1.1-1.6-1.4ZM5.4,6.5h-2s-.5.5-.5.5v15h2.5V6.5ZM27.4,6.5h-12.3l3.3,3.8h9v-3.8ZM28.1,7.4c-.1,4-.1,8.3,0,12.3s0,1.5,0,2.2h3.2c0-.3,0-.6,0-.9.1-3.8.2-8,0-11.8,0-.7-.4-1.4-.3-2s.4-.3.3-.6h-3.2c0,.3,0,.6,0,.9ZM27.4,11.2h-7.9c.6,1.6,2.5,2.5,3.3,4.1h4.6v-4.1ZM6.3,12.5v3.2c1,0,2.1,0,3.2,0s1.4.2,1.9-.2c-1.1-1-2.2-3.5-3.8-3.6s-.6,0-.6,0h-.6s0,.6,0,.6ZM27.4,16.2h-3.5s3,3.5,3,3.5c.7,0,.4-2.9.5-3.5ZM12.1,16.5c-1.3-.4-4.3.3-5.8,0v3.5h8.8c-.7-.8-2.1-3.2-3-3.5ZM17,22.2c0-.3-.6-1.3-.8-1.3H6.3v.9c.5-.2,1.2.3,1.4.3h9.3ZM31.5,26.9v-3.3c-.4-1.2-4.2-.2-5.2-.2-7.9.2-15.9,0-23.8-.3v3.8h29ZM31.5,27.9H2.5l.5.9c9.3,0,18.6,0,27.9,0l.5-.9ZM5.4,29.5h-2.8v7.4c.7.8,1.9.4,2.8.5v-7.9ZM31.2,29.5h-2.8v7.4c.7.8,1.9.4,2.8.5v-7.9ZM27.7,31.4c-3.7-.3-7.5-1.4-11.2-1.6s-7.7-.3-9.5,0-1.3,2.1,0,2.1c2.5.2,19.8,3.7,20.6,2.9v-3.5ZM27.7,29.8l-2.8.3c.8-.4,3.1,1,2.8-.3ZM9.8,33.3l-3.5-.6.2,1c.7,0,1.5,0,2.2,0s1.2.2,1.1-.3ZM16.7,34.5H6.3v.3h10.4v-.3ZM27.7,35.5H6.3c0,.8,0,1.1.8,1.3l20.5-.3v-1Z"/>
  <path class="st17" d="M32.5,12.8c.7.6.9,1.1,1,2,.7,7.3-.6,15.9,0,23.4l-.2.8-.6.3-31,.2c-.8-.6-.9-1.3-1-2.2-.5-5.3-.3-14.5,0-19.9,0-.5,0-2.3,1-2,0,4.7,0,9.3,0,14,0,2.4-.3,5.6,0,7.9,0,.4,0,.8.5,1.1,1,.8,4,0,5.4,0,6.4-.1,13.2-.1,19.6,0s4.4,1,5.2-.1.2-7.3.3-8.9c.1-5.5,0-11,0-16.5Z"/>
  <path class="st0" d="M32.7,12.8c0-3.6.4-8.3,0-11.7,0-.5,0-.8-.5-1.1H1.3C.3,0,.4,5,.5,6c0,.5.3.7.3.8,0,0,.1.1.2.2h.1c.4,1.7,0,6.4,0,8.4,0,4.8,0,9.5,0,14.3,0,2.5-.3,5.7,0,8,0,.4,0,.8.5,1.1,1.1.8,4.1,0,5.5,0,6.5-.1,13.4-.2,20,0,1.3,0,4.5,1,5.3-.1.6-.8.2-7.4.3-9,.1-5.6,0-11.2,0-16.8Z"/>
  <path class="st10" d="M1.6,7.1c0,0-.3-.2-.3-.3l.3.3Z"/>
  <path class="st13" d="M25.2,20.3c-.7,2.4-5.4,1-7.2.6-3.2-3.3-7.6-8.3-10.4-11.9-.7-.9-1.9-1.9-.7-2.9,1.8.2,5.1-.5,6.6.6s1.1,1.6,1.6,2.2c3.5,3.8,7,7.5,10.2,11.4Z"/>
  <path class="st9" d="M31.5,26.9H2.5v-3.8c7.9.3,15.9.6,23.8.3,1,0,4.8-1,5.1.2v3.3Z"/>
  <path class="st15" d="M31.2,1.4v3.8c-9.5-.5-19.2-.5-28.7,0V1.4h28.7Z"/>
  <path class="st14" d="M27.7,31.4v3.5c-.8.8-18.1-2.7-20.6-2.9-1.4,0-1.2-1.9,0-2.1,1.7-.3,7.4-.1,9.5,0,3.7.2,7.5,1.3,11.2,1.6Z"/>
  <path class="st9" d="M30.9,7.1c0,.6.3,1.3.3,2,.1,3.8,0,8,0,11.8-1.7.4-2.1-.9-3.2-1.3-.1-4-.1-8.3,0-12.3l2.8-.3Z"/>
  <polygon class="st19" points="27.4 6.5 27.4 10.2 18.4 10.2 15.1 6.5 27.4 6.5"/>
  <polygon class="st11" points="5.4 6.5 5.4 21.9 2.8 21.9 2.8 6.9 3.4 6.5 5.4 6.5"/>
  <path class="st16" d="M31.5,27.9l-.5.9c-9.3,0-18.6,0-27.9,0l-.5-.9h29Z"/>
  <path class="st3" d="M27.7,35.5v1c-.1,0-20.6.3-20.6.3-.8-.1-.9-.5-.8-1.3h21.4Z"/>
  <path class="st5" d="M27.4,11.2v4.1h-4.6c-.8-1.6-2.8-2.5-3.3-4.1h7.9Z"/>
  <path class="st5" d="M12.1,16.5c.9.3,2.3,2.7,3,3.5H6.3v-3.5c1.5.3,4.5-.4,5.8,0Z"/>
  <path class="st2" d="M5.4,29.5v7.9c-1,0-2.2.4-2.8-.5v-7.4h2.8Z"/>
  <path class="st2" d="M31.2,29.5v7.9c-1,0-2.2.4-2.8-.5v-7.4h2.8Z"/>
  <path class="st12" d="M17,22.2H7.7c-.2,0-.9-.5-1.4-.3v-.9h9.9c.2,0,.7,1,.8,1.3Z"/>
  <path class="st4" d="M18,21c1.8.4,6.5,1.8,7.2-.6.2.3,1.6,1.1,1.6,1.4-.3.4-.6.7-1.1.8-.9.2-5.1.1-5.9,0s-1.2-.9-1.8-1.5Z"/>
  <path class="st13" d="M7.6,11.8c.1,1.5,1.9,2.3,1.9,3.8-1,0-2.1,0-3.2,0v-3.2c.7.2.6-.6.6-.6s.5,0,.6,0Z"/>
  <path class="st7" d="M27.4,16.2c0,.6.2,3.5-.5,3.5l-3-3.5h3.5Z"/>
  <path class="st2" d="M7.6,11.8c1.5.1,2.7,2.6,3.8,3.6-.5.3-1.3.1-1.9.2,0-1.5-1.8-2.3-1.9-3.8Z"/>
  <path class="st18" d="M28.1,19.7c1.1.4,1.4,1.7,3.2,1.3,0,.3,0,.6,0,.9h-3.2c0-.7,0-1.5,0-2.2Z"/>
  <rect class="st14" x="6.3" y="34.5" width="10.4" height=".3"/>
  <path class="st18" d="M28.1,7.4c0-.3,0-.6,0-.9h3.2c.1.4-.3.6-.3.6l-2.8.3Z"/>
  <path class="st1" d="M9.8,33.3c0,.6-.7.3-1.1.3-.7,0-1.5,0-2.2,0l-.2-1,3.5.6Z"/>
  <path class="st3" d="M27.7,29.8c.2,1.4-2.1-.1-2.8.3l2.8-.3Z"/>
  <path class="st2" d="M6.9,11.8s0,.8-.6.6v-.6s.6,0,.6,0Z"/>
</svg>