<svg xmlns="http://www.w3.org/2000/svg" viewBox="0 0 64 64">
  <ellipse cx="32" cy="56" rx="24" ry="5" fill="#090807" opacity=".24"/>
  <path d="M13 15h38c3 0 5 2 5 5v25c0 3-2 5-5 5H13c-3 0-5-2-5-5V20c0-3 2-5 5-5z" fill="#28375c" stroke="#080705" stroke-width="4" stroke-linejoin="round"/>
  <rect x="14" y="20" width="36" height="22" rx="2" fill="#b8c5d4" stroke="#080705" stroke-width="3"/>
  <rect x="18" y="23" width="28" height="15" rx="1" fill="#eff4ed"/>
  <path d="M21 44h22" stroke="#60739b" stroke-width="4" stroke-linecap="round"/>
  <path d="M18 50h28v6H18z" fill="#1e2a4f" stroke="#080705" stroke-width="3" stroke-linejoin="round"/>
  <path d="M24 55h16" stroke="#60739b" stroke-width="3" stroke-linecap="round"/>
  <path d="M35 27v8c0 2-2 3-4 3s-4-1-4-3 2-3 4-3c1 0 2 0 3 1v-8z" fill="#080705"/>
  <path d="M35 27l7-2v4l-7 2z" fill="#080705"/>
  <circle cx="47" cy="46" r="2" fill="#9bb2df" stroke="#080705" stroke-width="2"/>
  <circle cx="15" cy="46" r="2" fill="#9bb2df" stroke="#080705" stroke-width="2"/>
  <path d="M15 18h31" stroke="#cbd7ee" stroke-width="2" stroke-linecap="round" opacity=".85"/>
</svg>
