<svg xmlns="http://www.w3.org/2000/svg" viewBox="0 0 64 64">
  <ellipse cx="33" cy="52" rx="24" ry="6" fill="#342d2b" opacity=".28"/>
  <path d="M10 42c0-12 8-24 20-24 5-7 18-3 20 6 7 4 8 17 0 24-9 7-31 8-40-6z" fill="#211c1a"/>
  <path d="M15 39c0-8 7-17 16-18 3-5 13-3 15 4 5 3 6 13 0 18-7 6-24 7-31-4z" fill="#8f8d80"/>
  <path d="M21 36c4-8 12-11 21-9M33 23c-3 5-4 10-2 17M43 33c-4 1-7 3-10 8" fill="none" stroke="#59554f" stroke-width="3" stroke-linecap="round"/>
  <path d="M20 30c3-3 6-5 10-5" fill="none" stroke="#c6c2ad" stroke-width="2" stroke-linecap="round"/>
</svg>
