<svg xmlns="http://www.w3.org/2000/svg" viewBox="0 0 64 64">
  <ellipse cx="32" cy="57" rx="25" ry="5" fill="#090807" opacity=".24"/>
  <path d="M10 18h44v25H10z" fill="#080705"/>
  <path d="M14 14h36v26H14z" fill="#78bfb4" stroke="#080705" stroke-width="4" stroke-linejoin="round"/>
  <path d="M17 17h30v19H17z" fill="#83c8be"/>
  <path d="M18 42h8v16h-8z" fill="#58736f" stroke="#080705" stroke-width="3"/>
  <path d="M38 42h8v16h-8z" fill="#58736f" stroke="#080705" stroke-width="3"/>
  <path d="M14 38h36v7H14z" fill="#5f9f98" stroke="#080705" stroke-width="3" stroke-linejoin="round"/>
  <path d="M18 18h26" stroke="#b8efe5" stroke-width="3" stroke-linecap="round"/>
  <path d="M18 24h28" stroke="#65a99f" stroke-width="3" stroke-linecap="round"/>
  <path d="M18 31h24" stroke="#65a99f" stroke-width="3" stroke-linecap="round"/>
  <path d="M20 45h4" stroke="#9ecdc6" stroke-width="2" stroke-linecap="round"/>
  <path d="M40 45h4" stroke="#9ecdc6" stroke-width="2" stroke-linecap="round"/>
  <circle cx="21" cy="22" r="1.5" fill="#3f716c"/>
  <circle cx="43" cy="22" r="1.5" fill="#3f716c"/>
  <path d="M8 19c5 2 43 2 48 0" fill="none" stroke="#080705" stroke-width="3" stroke-linecap="round"/>
  <path d="M17 40c8 3 22 3 30 0" fill="none" stroke="#080705" stroke-width="2" opacity=".24" stroke-linecap="round"/>
  <path d="M20 56h25" stroke="#080705" stroke-width="2" opacity=".35" stroke-linecap="round"/>
</svg>
