<svg xmlns="http://www.w3.org/2000/svg" viewBox="0 0 64 64">
  <ellipse cx="33" cy="56" rx="21" ry="5" fill="#1b1512" opacity=".27"/>
  <path d="M27 11h8v43h-8z" fill="#15100e"/>
  <path d="M30 13h3v39h-3z" fill="#d9bc77"/>
  <path d="M33 14c8-6 15 2 23-4v26c-8 5-15-3-23 4z" fill="#15100e"/>
  <path d="M36 17c6-4 10 1 17-3v16c-6 4-11-1-17 3z" fill="#c64d42"/>
  <path d="M36 20c6-3 11 1 17-3M36 26c6-2 11 1 17-2" fill="none" stroke="#eeaa7a" stroke-width="2.3" stroke-linecap="round" opacity=".65"/>
  <path d="M22 50h23l-4 7H26z" fill="#15100e"/>
  <path d="M25 51h17l-3 4H27z" fill="#8f8060"/>
  <path d="M31 12c2 9 2 21 0 39" stroke="#f4d999" stroke-width="1.8" stroke-linecap="round" opacity=".65"/>
  <circle cx="31.5" cy="12" r="3.5" fill="#15100e"/>
  <circle cx="31.5" cy="12" r="1.6" fill="#e8ca82"/>
  <path d="M51 14c-3 3-3 10 0 16" fill="none" stroke="#7d2d2d" stroke-width="2" opacity=".45"/>
  <path d="M23 55c8 2 15 2 21 0" stroke="#c1b07f" stroke-width="2" stroke-linecap="round" opacity=".5"/>
  <path d="M37 31c5-2 9 1 14-2" stroke="#7d2d2d" stroke-width="2" stroke-linecap="round" opacity=".42"/>
  <circle cx="42" cy="22" r="1.5" fill="#f2bd88" opacity=".65"/>
  <circle cx="49" cy="25" r="1.2" fill="#8f2e31" opacity=".6"/>
</svg>
