<svg xmlns="http://www.w3.org/2000/svg" viewBox="0 0 80 80" data-style="soft-original" data-gender="female" data-age="young" data-skin="peach" data-body="average" data-hair="bob" data-accessory="glasses" data-face="faceless"><title>Alysson</title><rect width="80" height="80" rx="8" fill="#e3e5d7"/><path d="M0 80L80 0v80z" fill="#1b1715" opacity=".16"/><circle cx="15" cy="16" r="5" fill="#fff" opacity=".15"/><ellipse cx="40" cy="73" rx="20" ry="5" fill="#1b1715" opacity=".22"/><path d="M15 80c2-18 13-27 25-27s23 9 25 27z" fill="#f6f6f6"/><path d="M30 60l10 8 10-8" fill="#fff8e6" opacity=".35"/><path d="M20 80c1-12 7-20 20-20s19 8 20 20" fill="none" stroke="#1d1815" stroke-width="4" opacity=".28"/><path d="M33 45h14l3 12H30z" fill="#efba90"/><path d="M26 27c0-9 5-15 14-15s14 6 14 15c0 12-5 22-14 22S26 39 26 27z" fill="#efba90"/><path d="M23 31c0-14 7-22 18-22 12 0 18 9 17 22-5-5-12-8-20-8-6 0-11 2-15 8z" fill="#5a535d"/><path d="M24 29c-2 10 1 18 8 23-7-1-11-7-11-16 0-3 1-6 3-7z" fill="#5a535d"/><circle cx="34" cy="35" r="5" fill="none" stroke="#2a211d" stroke-width="1.6" opacity=".58"/><circle cx="47" cy="35" r="5" fill="none" stroke="#2a211d" stroke-width="1.6" opacity=".58"/><path d="M39 35h3" stroke="#2a211d" stroke-width="1.3" opacity=".55"/></svg>
