<svg xmlns="http://www.w3.org/2000/svg" viewBox="0 0 80 80" data-style="soft-original" data-gender="male" data-age="adult" data-skin="peach" data-body="round" data-hair="receding" data-accessory="glasses" data-face="faceless"><title>Hayden</title><rect width="80" height="80" rx="8" fill="#e3e5d7"/><path d="M0 80L80 0v80z" fill="#1b1715" opacity=".16"/><circle cx="15" cy="16" r="5" fill="#fff" opacity=".15"/><ellipse cx="40" cy="73" rx="20" ry="5" fill="#1b1715" opacity=".22"/><path d="M13 80c2-16 13-26 27-26s25 10 27 26z" fill="#7a71a4"/><path d="M30 60l10 8 10-8" fill="#fff8e6" opacity=".35"/><path d="M20 80c1-12 7-20 20-20s19 8 20 20" fill="none" stroke="#1d1815" stroke-width="4" opacity=".28"/><path d="M33 45h14l3 12H30z" fill="#efba90"/><path d="M25 28c0-10 6-16 15-16s15 6 15 16c0 12-6 21-15 21s-15-9-15-21z" fill="#efba90"/><path d="M25 27c2-10 8-16 16-16 9 0 15 6 16 16-5-2-9-3-14-2-2-4-5-4-8 0-4 0-7 1-10 2z" fill="#fff072"/><circle cx="34" cy="35" r="5" fill="none" stroke="#2a211d" stroke-width="1.6" opacity=".58"/><circle cx="47" cy="35" r="5" fill="none" stroke="#2a211d" stroke-width="1.6" opacity=".58"/><path d="M39 35h3" stroke="#2a211d" stroke-width="1.3" opacity=".55"/></svg>
