<svg xmlns="http://www.w3.org/2000/svg" viewBox="0 0 80 80" data-style="soft-original" data-gender="female" data-age="adult" data-skin="peach" data-body="average" data-hair="side-sweep" data-accessory="glasses" data-face="faceless"><title>Eliza</title><rect width="80" height="80" rx="8" fill="#e3e5d7"/><path d="M0 80L80 0v80z" fill="#1b1715" opacity=".16"/><circle cx="15" cy="16" r="5" fill="#fff" opacity=".15"/><ellipse cx="40" cy="73" rx="20" ry="5" fill="#1b1715" opacity=".22"/><path d="M15 80c2-18 13-27 25-27s23 9 25 27z" fill="#e38d40"/><path d="M30 60l10 8 10-8" fill="#fff8e6" opacity=".35"/><path d="M20 80c1-12 7-20 20-20s19 8 20 20" fill="none" stroke="#1d1815" stroke-width="4" opacity=".28"/><path d="M33 45h14l3 12H30z" fill="#efba90"/><path d="M26 27c0-9 5-15 14-15s14 6 14 15c0 12-5 22-14 22S26 39 26 27z" fill="#efba90"/><path d="M23 30c1-14 8-22 18-22 12 0 18 9 17 22-9-6-19-9-35 0z" fill="#8a7267"/><path d="M23 28c8-8 19-9 33-4-10 1-19 4-27 11z" fill="#8a7267" opacity=".65"/><circle cx="34" cy="35" r="5" fill="none" stroke="#2a211d" stroke-width="1.6" opacity=".58"/><circle cx="47" cy="35" r="5" fill="none" stroke="#2a211d" stroke-width="1.6" opacity=".58"/><path d="M39 35h3" stroke="#2a211d" stroke-width="1.3" opacity=".55"/><path d="M22 24c8-5 28-5 36 0l-3 5H25z" fill="#8e6550" opacity=".92"/><path d="M17 29c13 4 33 4 46 0" fill="none" stroke="#1d1815" stroke-width="3" opacity=".22"/></svg>
