<svg xmlns="http://www.w3.org/2000/svg" viewBox="0 0 80 80"><rect width="80" height="80" rx="8" fill="#908469"/><path d="M0 80L80 0v80z" fill="#675c44" opacity=".28"/><circle cx="15" cy="16" r="5" fill="#fff" opacity=".15"/><ellipse cx="40" cy="73" rx="20" ry="5" fill="#1b1715" opacity=".22"/><path d="M15 80c2-18 13-27 25-27s23 9 25 27z" fill="#416c47"/><path d="M33 45h14l3 12H30z" fill="#e9b886"/><path d="M26 27c0-9 5-15 14-15s14 6 14 15c0 12-5 22-14 22S26 39 26 27z" fill="#e9b886"/><path d="M24 27c0-12 7-20 18-20 8 0 15 5 17 14-9-4-20-2-30 5l-3 12c-2-3-2-7-2-11z" fill="#2b2422"/><path d="M20 80c1-12 7-20 20-20s19 8 20 20" fill="none" stroke="#1d1815" stroke-width="4" opacity=".38"/></svg>