<svg xmlns="http://www.w3.org/2000/svg" viewBox="0 0 80 80" data-style="soft-original" data-gender="male" data-age="adult" data-skin="rose" data-body="round" data-hair="curtain" data-accessory="beard" data-face="faceless"><title>Hugo</title><rect width="80" height="80" rx="8" fill="#e3e5d7"/><path d="M0 80L80 0v80z" fill="#1b1715" opacity=".16"/><circle cx="15" cy="16" r="5" fill="#fff" opacity=".15"/><ellipse cx="40" cy="73" rx="20" ry="5" fill="#1b1715" opacity=".22"/><path d="M13 80c2-16 13-26 27-26s25 10 27 26z" fill="#80bbba"/><path d="M30 60l10 8 10-8" fill="#fff8e6" opacity=".35"/><path d="M20 80c1-12 7-20 20-20s19 8 20 20" fill="none" stroke="#1d1815" stroke-width="4" opacity=".28"/><path d="M33 45h14l3 12H30z" fill="#9e7b74"/><path d="M25 28c0-10 6-16 15-16s15 6 15 16c0 12-6 21-15 21s-15-9-15-21z" fill="#9e7b74"/><path d="M24 29c0-13 8-21 18-21 10 0 17 8 17 20-6-4-12-6-18-6-6 1-12 3-17 7z" fill="#2d2e37"/><path d="M40 10c-1 10-5 15-12 20" fill="none" stroke="#fff" stroke-width="4" opacity=".14"/><path d="M30 42c5 5 15 5 20 0-1 7-5 11-10 11s-9-4-10-11z" fill="#2d2e37" opacity=".72"/></svg>
