<svg xmlns="http://www.w3.org/2000/svg" viewBox="0 0 80 80" data-style="soft-original" data-gender="female" data-age="adult" data-skin="umber" data-body="average" data-hair="curls" data-accessory="none" data-face="faceless"><title>Brenda</title><rect width="80" height="80" rx="8" fill="#e3e5d7"/><path d="M0 80L80 0v80z" fill="#1b1715" opacity=".16"/><circle cx="15" cy="16" r="5" fill="#fff" opacity=".15"/><ellipse cx="40" cy="73" rx="20" ry="5" fill="#1b1715" opacity=".22"/><path d="M15 80c2-18 13-27 25-27s23 9 25 27z" fill="#f6f6f6"/><path d="M30 60l10 8 10-8" fill="#fff8e6" opacity=".35"/><path d="M20 80c1-12 7-20 20-20s19 8 20 20" fill="none" stroke="#1d1815" stroke-width="4" opacity=".28"/><circle cx="27" cy="25" r="7" fill="#2d2e37"/><circle cx="53" cy="25" r="7" fill="#2d2e37"/><circle cx="24" cy="35" r="6" fill="#2d2e37"/><circle cx="56" cy="35" r="6" fill="#2d2e37"/><path d="M33 45h14l3 12H30z" fill="#95775e"/><path d="M26 27c0-9 5-15 14-15s14 6 14 15c0 12-5 22-14 22S26 39 26 27z" fill="#95775e"/><path d="M23 30c1-14 8-22 19-22 11 0 17 8 17 21-7-4-15-6-24-5-5 1-9 3-12 6z" fill="#2d2e37"/><circle cx="29" cy="21" r="6" fill="#2d2e37"/><circle cx="45" cy="17" r="6" fill="#2d2e37"/></svg>
