<svg xmlns="http://www.w3.org/2000/svg" viewBox="0 0 80 80" data-style="soft-original" data-gender="male" data-age="adult" data-skin="peach" data-body="slim" data-hair="bald" data-accessory="beard" data-face="faceless"><title>Archer</title><rect width="80" height="80" rx="8" fill="#e3e5d7"/><path d="M0 80L80 0v80z" fill="#1b1715" opacity=".16"/><circle cx="15" cy="16" r="5" fill="#fff" opacity=".15"/><ellipse cx="40" cy="73" rx="20" ry="5" fill="#1b1715" opacity=".22"/><path d="M21 80c2-17 9-26 19-26s17 9 19 26z" fill="#c5e2e2"/><path d="M30 60l10 8 10-8" fill="#fff8e6" opacity=".35"/><path d="M20 80c1-12 7-20 20-20s19 8 20 20" fill="none" stroke="#1d1815" stroke-width="4" opacity=".28"/><path d="M33 45h14l3 12H30z" fill="#efba90"/><path d="M26 27c0-9 5-15 14-15s14 6 14 15c0 12-5 22-14 22S26 39 26 27z" fill="#efba90"/><path d="M28 22c2-8 7-12 13-12 6 0 11 4 13 12-7-3-17-3-26 0z" fill="#855f48" opacity=".18"/><path d="M31 39c4-3 8-3 9 0 1-3 5-3 9 0-3 5-7 5-9 2-2 3-7 3-9-2z" fill="#855f48" opacity=".75"/><path d="M30 42c5 5 15 5 20 0-1 7-5 11-10 11s-9-4-10-11z" fill="#855f48" opacity=".72"/></svg>
