<svg xmlns="http://www.w3.org/2000/svg" viewBox="0 0 80 80" data-style="soft-original" data-gender="female" data-age="senior" data-skin="peach" data-body="average" data-hair="ponytail" data-accessory="none" data-face="faceless"><title>Brooke</title><rect width="80" height="80" rx="8" fill="#e3e5d7"/><path d="M0 80L80 0v80z" fill="#1b1715" opacity=".16"/><circle cx="15" cy="16" r="5" fill="#fff" opacity=".15"/><ellipse cx="40" cy="73" rx="20" ry="5" fill="#1b1715" opacity=".22"/><path d="M15 80c2-18 13-27 25-27s23 9 25 27z" fill="#f6f6f6"/><path d="M30 60l10 8 10-8" fill="#fff8e6" opacity=".35"/><path d="M20 80c1-12 7-20 20-20s19 8 20 20" fill="none" stroke="#1d1815" stroke-width="4" opacity=".28"/><path d="M22 31c0-14 8-23 19-23 12 0 18 9 18 23v25c-8 6-29 6-37 0z" fill="#cbced3"/><path d="M33 45h14l3 12H30z" fill="#efba90"/><path d="M26 27c0-9 5-15 14-15s14 6 14 15c0 12-5 22-14 22S26 39 26 27z" fill="#efba90"/><path d="M48 18c4 7 4 18 0 27" fill="#fff" opacity=".16"/><path d="M24 29c0-13 8-21 18-21 10 0 17 8 17 20-7-4-14-6-23-5-5 1-9 3-12 6z" fill="#cbced3"/><path d="M56 31c8 6 8 15 1 21-1-8-3-15-6-20z" fill="#cbced3"/></svg>
