<svg xmlns="http://www.w3.org/2000/svg" viewBox="0 0 80 80" data-style="soft-original" data-gender="male" data-age="senior" data-skin="peach" data-body="average" data-hair="mop" data-accessory="beard" data-face="faceless"><title>Duke</title><rect width="80" height="80" rx="8" fill="#92b1bf"/><path d="M0 80L80 0v80z" fill="#1b1715" opacity=".16"/><circle cx="15" cy="16" r="5" fill="#fff" opacity=".15"/><ellipse cx="40" cy="73" rx="20" ry="5" fill="#1b1715" opacity=".22"/><path d="M15 80c2-18 13-27 25-27s23 9 25 27z" fill="#f6f6f6"/><path d="M30 60l10 8 10-8" fill="#fff8e6" opacity=".35"/><path d="M20 80c1-12 7-20 20-20s19 8 20 20" fill="none" stroke="#1d1815" stroke-width="4" opacity=".28"/><path d="M33 45h14l3 12H30z" fill="#efba90"/><path d="M26 27c0-9 5-15 14-15s14 6 14 15c0 12-5 22-14 22S26 39 26 27z" fill="#efba90"/><path d="M48 18c4 7 4 18 0 27" fill="#fff" opacity=".16"/><path d="M23 30c1-14 9-22 19-22 11 0 18 9 18 21-8-5-18-6-29-2-3 1-6 2-8 3z" fill="#cbced3"/><circle cx="31" cy="22" r="7" fill="#cbced3"/><circle cx="45" cy="18" r="8" fill="#cbced3"/><path d="M31 39c4-3 8-3 9 0 1-3 5-3 9 0-3 5-7 5-9 2-2 3-7 3-9-2z" fill="#cbced3" opacity=".75"/><path d="M30 42c5 5 15 5 20 0-1 7-5 11-10 11s-9-4-10-11z" fill="#cbced3" opacity=".72"/><path d="M22 24c8-5 28-5 36 0l-3 5H25z" fill="#8e6550" opacity=".92"/><path d="M17 29c13 4 33 4 46 0" fill="none" stroke="#1d1815" stroke-width="3" opacity=".22"/></svg>
