<svg xmlns="http://www.w3.org/2000/svg" viewBox="0 0 80 80" data-style="soft-original" data-gender="male" data-age="adult" data-skin="porcelain" data-body="slim" data-hair="flat-top" data-accessory="none" data-face="faceless"><title>Amir</title><rect width="80" height="80" rx="8" fill="#a2d9e6"/><path d="M0 80L80 0v80z" fill="#1b1715" opacity=".16"/><circle cx="15" cy="16" r="5" fill="#fff" opacity=".15"/><ellipse cx="40" cy="73" rx="20" ry="5" fill="#1b1715" opacity=".22"/><path d="M21 80c2-17 9-26 19-26s17 9 19 26z" fill="#5e9745"/><path d="M30 60l10 8 10-8" fill="#fff8e6" opacity=".35"/><path d="M20 80c1-12 7-20 20-20s19 8 20 20" fill="none" stroke="#1d1815" stroke-width="4" opacity=".28"/><path d="M33 45h14l3 12H30z" fill="#f7ccaa"/><path d="M26 27c0-9 5-15 14-15s14 6 14 15c0 12-5 22-14 22S26 39 26 27z" fill="#f7ccaa"/><path d="M27 27V15h27v13c-9-4-17-4-27-1z" fill="#997d5f"/></svg>
