<?xml version="1.0" encoding="UTF-8"?>
<svg id="a" xmlns="http://www.w3.org/2000/svg" width="523.3" height="544.4" version="1.1" xmlns:xlink="http://www.w3.org/1999/xlink" viewBox="0 0 523.3 544.4">
  <!-- Generator: Adobe Illustrator 29.2.1, SVG Export Plug-In . SVG Version: 2.1.0 Build 116)  -->
  <defs>
    <style>
      .st0 {
        fill: #28242b;
      }

      .st1 {
        fill: #28232b;
      }

      .st2 {
        fill: #28242c;
      }

      .st3 {
        fill: #29242c;
      }

      .st4 {
        fill: #ccc;
      }

      .st5 {
        fill: #fefefe;
      }
    </style>
  </defs>
  <path class="st3" d="M328.5,497.5c.4-7.1,3.3-16.2,1.7-24.4-.8-.5-1.4-.6-1.7-1.7l-13.9.9c1.4-5.5,9.8-7.2,13.9-9.6s12.6-8.8,17.4-8.7l13.9-20.9v22.7c.6,0,1.2,0,1.8,0,16.4-.2,32.9,0,49.4.2l2.6,2.6v13.5l-2.6,2.6c-16.4.3-32.9.5-49.4.2-.6,0-1.2,0-1.7,0v22.7c0,.6,0,1.2,0,1.7,16.9-3,36.9-2.7,53.9,0,0-.6,0-1.2,0-1.7,0-5.2-1.4-19.2,1.7-21.8,5.7-4.9,25.3-1.7,33.1-2.6,0-.6,0-1.2,0-1.7-.1-3.4,1-17.5-4.4-17.5h-30.5v-17.5c-5.2-2.5-10.8-4.7-15.7-7-7.5,7.4-23.8,2.1-33.7,3.2l-2.1-3.3,1-15.6c-5.3-3.8-34.5-23.3-38.5-25.1-4.4-1.9,3.6,16.4,2.7,18.9l23.7,6.3c1.1,1.5-11.1,23.6-13.3,24.3-5.6,1.6-9.9-5.9-14.5-6.8-3.1,9.1-4.2,5.8-10.4,12.2-5.6,5.8-10.1,12.4-17.4,16.6l13.9,12.2c-1.2,2.5-17,8.1-20.9,9.6s-5,.1-8.2,1.3c-12.9,5-20.8,13.5-.5,14.4,16,.7,33.2-1.9,48.7,1.7,0-.6,0-1.2,0-1.7Z"/>
  <path class="st3" d="M258.9,497.5c.2-3.4-.9-5.9-2.7-8.6-9.2-14.1-27.8-30.8-39.1-45.5-1.4-1.8-4.5-2.9-6.7-6.4-8.3-13-10.9-26.1-6.9-41.6-10.5-2.1-15.7,6.7-22.9,11.4l13.9,23.6c-.2,2.2-17.3,9.4-20.8,9.6l8.7,19.2c4.6-2.8,5.9-7,12.8-4.9,2.2.6,2.4,2.8,2.9,3.2,6.6,4.7,11.4,11.6,19.2,14.8,0,1.7-16.2.7-19.2.9s-1.2,0-1.7,0v24.4c15.4.1,30.8-.2,46.2,0,3.3,0,6.5,1.8,7.7,1.8,4.2,0,5.7-1.2,8.7-1.7Z"/>
  <path class="st4" d="M163.2,555.1l1.7-17.5c10.5,1.6,21.7-1.3,31.3-1.7,0,6.4-1.2,13.5,1.7,19.2,17.4,0,34.8-.1,52.2,0,.6-5.7-2.2-13.3,2.6-17.5h25.2l-1.7,17.5c10.7.1,45-2.2,52.2,0,2.7-3.9.2-11.5,0-17.5,9.8.2,19.9-.8,29.7.8l1.6,16.7c4.4-1.2,45.7-1.7,53.9-1.7v-15.7h34.8v-1.7c0-7,0-14,0-20.9-11.5.6-23.3-.1-34.8,0,0,7.5,0,15.1,0,22.7l-5.2-1.7-44.1,1.5c-5.7-1.9-4.4-17.5-4.6-22.4,16.2-.1,32.5.1,48.7,0,1.7,0,3.5,0,5.2,0,0-5.2-.1-10.5,0-15.7-17-2.7-37-3-53.9,0,0,5.2-.2,10.5,0,15.7-10.4,0-21.3-1.2-31.3,1.7,0,6.9-.2,14,0,20.9-16.1-.3-32.4.4-48.5-.2-4.6-7.1-.6-14.6-.2-20.7-10,1.4-20-1.4-29.6-1.7-.2,7.1-1.1,13.9-1.8,20.9-17.3.6-34.9-.7-52.2,0,0-7,.1-14,0-20.9,17.9.1,36.1-.7,53.9,0,.2-5.2-.1-10.5,0-15.7-1.2,0-4.4-1.8-7.7-1.8-15.4-.1-30.9.2-46.3,0v-24.4c-10.4.6-20.6,1.5-31.3,1.7-.1,7.5,0,15.1,0,22.7s0,1.2,0,1.7c10.4-.3,20.9.2,31.3,0,0,5.2-.1,10.5,0,15.7-10.4,0-20.9,0-31.3,0,0,7,0,14,0,21-1.7,0-3.5,0-5.2,0-6.3.2-43,.9-45.4-.8-3-5.6-1.5-13.6-1.6-20.2,16.2-.1,32.5,0,48.7,0s2.3,0,3.5,0c0-5.2,0-10.5,0-15.7-1.3,0-4.4,1.7-7.7,1.8-7.2.2-36.8,1.1-41-.9-5.6-2.7-3.3-19.2-3.5-25.3,16.2-.3,32.5.3,48.7,0,1.2,0,2.3,0,3.5,0,.1-5.8,0-11.6,0-17.4,5.5-1.3,3.7,6.5,7.8,8.7,2.9-2.7,6.2-4.9,9.6-6.9l-8.7-19.2c3.5-.2,20.7-7.4,20.8-9.6l-13.9-23.6c-15.1,9.7-25.1,14.8-41.8,22.7l26.1,1.7v24.4c-17.4.4-34.9-.5-52.2,0-.3-4.1-2-8-1.7-12.2-18,8.8-33.9,11.7-43.5,31.4h12.2c-2.6-18.9,19.7-18.8,33.1-19.2.4,6.3-.2,12.9,0,19.2-5.4,0-30.9-1.1-32.9,2,.2,8.3,2,15.6,1.5,24.2,10.4,0,20.9,0,31.3,0,0,4.6-.1,9.3,0,14-9.8,0-19.7-.1-29.5,0-1.9,6.9-1.1,14.1-1.8,20.8,0,.6,0,1.2,0,1.7h31.3s0,17.5,0,17.5c16.8.1,33.7,0,50.5,0Z"/>
  <path class="st5" d="M258.9,497.5c2.1-.4,4.7.3,7,0-5.6-7.3-5.9-11,.9-17.4,8-7.6,19.6-13.7,21.7,1.7,3.9-1.5,19.7-7.1,20.9-9.6l-13.9-12.2c7.3-4.2,11.8-10.8,17.4-16.6l-23.5,3.5h-57.4c-2.9,0-10.6-4.2-14.8-3.5,11.3,14.6,29.9,31.4,39.1,45.5,1.8,2.8,2.9,5.2,2.7,8.6Z"/>
  <path class="st0" d="M112.7,455.6c17.3-.5,34.9.4,52.2,0v-24.4s-26.1-1.7-26.1-1.7c-9.5,4.5-18.5,9.4-27.8,14-.3,4.2,1.5,8.1,1.7,12.2Z"/>
  <path class="st5" d="M81.4,535.9c.7-6.7,0-14,1.8-20.8,9.8-.2,19.7,0,29.5,0-.1-4.6,0-9.3,0-14-10.4,0-20.9,0-31.3,0,.5-8.6-1.3-15.9-1.5-24.2,1.9-3.1,27.5-1.9,32.9-2-.2-6.3.4-12.9,0-19.2-13.4.4-35.6.3-33.1,19.2h-12.2c-5.1,10.5-4.1,15.5-5.2,26.2h19.1c-.2,4.1-2.9,9.1-1.7,14h-19.1c-.3,6.9-.1,14,0,20.9,6.1,2.8,14.7,2.8,20.9,0Z"/>
  <path class="st5" d="M328.5,555.1c16.6,5,15.6,4.4,31.3,0l-1.6-16.7c-9.8-1.5-19.8-.6-29.7-.8.2,5.9,2.7,13.5,0,17.5Z"/>
  <path class="st5" d="M448.6,555.1v-17.5h-34.8v15.7c10,0,23.2,1.8,34.8,1.7Z"/>
  <path class="st3" d="M448.6,555.1c9.8,0,19.8,0,29.6,0,.8-.8-1.3-19.4-1.7-22.7l-27.8,3.5v19.2Z"/>
  <path class="st4" d="M464.3,471.4c-1.5-5.7-7.4-14.4-12.2-18.3-8.8-7.1-27.9-11.7-38.2-16.6v17.5h30.5c5.4,0,4.2,14,4.4,17.5h15.7Z"/>
  <path class="st5" d="M112.7,555.1v-17.5s-31.3,0-31.3,0c-.5,5-3.2,11.3-1.7,17.5,11,.2,22.1,0,33.1,0Z"/>
  <path class="st5" d="M198,555.1c-2.9-5.7-1.7-12.8-1.7-19.2-9.7.4-20.9,3.3-31.3,1.7l-1.7,17.5c11.6,0,23.2,0,34.8,0Z"/>
  <path class="st5" d="M476.4,532.4c-1.1-7.4-4-14.3-5.2-20.9-7.5,2.2-14.8,3.1-22.6,3.5,0-6.3-1.7-13.1-1.7-17.5,7.1-.3,13.8-1.8,20.9-1.7-1.7-8.2-1.2-16.1-3.5-24.4h-15.7c0,.6,0,1.2,0,1.7.2,8.5-1.8,17.6-1.7,24.4-11,.4-22.1-.3-33.1,0,0,.6,0,1.2,0,1.7-.1,5.2,0,10.5,0,15.7,11.5-.1,23.3.6,34.8,0,0,7,0,14,0,20.9l27.8-3.5Z"/>
  <path class="st4" d="M323.3,431.2c4.6.9,9,8.5,14.5,6.8s14.4-22.8,13.3-24.3l-22.3-6.7c-3.1,8.3-2.6,15.5-5.5,24.1Z"/>
  <path class="st5" d="M276.3,555.1l1.7-17.5h-25.2c-4.8,4.1-2,11.7-2.6,17.5,8.7,0,17.4,0,26.1,0Z"/>
  <path class="st4" d="M398.1,429.5c-10.9-5.1-22.3-15.1-34.8-15.7l-1,15.6,2.1,3.3c9.8-1.2,26.2,4.1,33.7-3.2Z"/>
  <path class="st3" d="M471.2,511.5c-1-5.3-2.4-10.4-3.5-15.7-7.1,0-13.7,1.5-20.9,1.7,0,4.4,1.7,11.2,1.7,17.5,7.8-.4,15.2-1.2,22.6-3.5Z"/>
  <path class="st3" d="M79.7,555.1c-1.5-6.1,1.3-12.5,1.7-17.5s0-1.2,0-1.7c-6.2,2.8-14.7,2.8-20.9,0,.1,5.8-.8,11.8.8,17.6,2,2.9,14.2,1.5,18.4,1.6Z"/>
  <path class="st3" d="M60.5,515h19.1c-1.2-4.8,1.5-9.8,1.7-14h-19.1c-.5,4.4-1.5,8.3-1.7,14Z"/>
  <path class="st4" d="M361.6,455.6v19.2c16.4.2,32.9,0,49.4-.2l2.6-2.6v-13.5l-2.6-2.6c-16.4-.3-32.9-.4-49.4-.2Z"/>
  <path class="st4" d="M328.5,515c0-5.2-.2-10.5,0-15.7-15.5-3.7-32.7-1.1-48.7-1.7-.3,5.8.4,11.7,0,17.5h48.7Z"/>
  <path class="st5" d="M279.8,516.7c0-.6,0-1.2,0-1.7.4-5.7-.3-11.7,0-17.5-20.3-.9-12.4-9.4.5-14.4,3.2-1.2,6.8-.8,8.2-1.3-2.1-15.4-14.1-10.9-22.1-3.3-6.8,6.4-6.1,11.7-.5,19-2.2.3-4.9-.4-7,0-3,.6-4.5,1.8-8.7,1.7-.1,5.2.2,10.5,0,15.7,9.6.4,19.5,3.1,29.6,1.7Z"/>
  <path class="st4" d="M446.9,497.5c0-6.8,1.9-15.9,1.7-24.4-7.8.9-27.4-2.3-33.1,2.6-3.1,2.7-1.6,16.7-1.7,21.8,11-.3,22.1.4,33.1,0Z"/>
  <path class="st4" d="M359.8,497.5v-22.7c-7.2-.1-24.2,1.4-29.6-1.7,1.5,8.2-1.3,17.3-1.7,24.4h31.3Z"/>
  <path class="st5" d="M359.8,474.8c.6,0,1.2,0,1.7,0v-19.2c-.6,0-1.2,0-1.7,0-5.3,0-11.5-1.7-13.9-1.7-4.8,0-13.1,6.3-17.4,8.7.4,2.6-.6,6.5,0,8.7s.9,1.3,1.7,1.7c5.4,3.1,22.3,1.6,29.6,1.7Z"/>
  <path class="st5" d="M359.8,515c-.2-5.2,0-10.5,0-15.7,0-.6,0-1.2,0-1.7h-31.3c0,.6,0,1.2,0,1.7-.2,5.2,0,10.5,0,15.7s0,1.2,0,1.7c10.1-2.9,20.9-1.7,31.3-1.7Z"/>
  <path class="st4" d="M359.8,455.6v-22.7s-13.9,20.9-13.9,20.9c2.5,0,8.6,1.8,13.9,1.7Z"/>
  <path class="st4" d="M328.5,471.4c-.6-2.3.4-6.1,0-8.7-4.2,2.4-12.5,4.1-13.9,9.6l13.9-.9Z"/>
  <path class="st5" d="M196.3,473.1c.6,0,1.2,0,1.7,0v-15.7c-.5-.4-.7-2.6-2.9-3.2-6.9-2-8.2,2.2-12.8,4.9-3.4,2-6.7,4.2-9.6,6.9-4.1-2.1-2.3-10-7.8-8.7,0,5.8.1,11.6,0,17.4,10.7-.2,20.9-1.1,31.3-1.7Z"/>
  <path class="st4" d="M198,473.1c2.9-.2,19.1.8,19.2-.9-7.8-3.3-12.6-10.2-19.2-14.8v15.7Z"/>
  <path class="st0" d="M196.3,535.9c17.3-.7,34.9.5,52.2,0,.7-7,1.5-13.8,1.8-20.9-17.9-.7-36,.1-53.9,0,.1,7,0,14,0,20.9Z"/>
  <path class="st3" d="M159.7,535.9l1.7-20.9c-16.2,0-32.5-.1-48.7,0,.2,6.6-1.4,14.6,1.6,20.2,2.3,1.6,39,.9,45.4.8Z"/>
  <path class="st5" d="M196.3,515c-.1-5.2,0-10.5,0-15.7-10.4.3-20.9-.3-31.3,0,0,5.2,0,10.5,0,15.7,10.4,0,20.9,0,31.3,0Z"/>
  <path class="st1" d="M159.7,535.9c1.7,0,3.5,0,5.2,0,0-7,0-14,0-21-1.2,0-2.3,0-3.5,0l-1.7,20.9Z"/>
  <path class="st0" d="M328.5,537.7c-.2-6.9,0-14,0-20.9,0-.6,0-1.2,0-1.7h-48.7c0,.6,0,1.2,0,1.7-.3,6.1-4.3,13.6.2,20.7,16.1.6,32.4,0,48.5.2Z"/>
  <path class="st2" d="M408.6,535.9v-20.9c-16.2.1-32.5-.1-48.7,0,.2,4.9-1.1,20.5,4.6,22.4l44.1-1.5Z"/>
  <path class="st0" d="M413.8,537.7c0-7.5,0-15.1,0-22.7-1.7,0-3.5,0-5.2,0v20.9l5.2,1.7Z"/>
  <path class="st3" d="M164.9,499.3c0-.6,0-1.2,0-1.7-9.4-1.4-4.9-15.5-3.5-22.7-16.2.3-32.5-.3-48.7,0,.2,6.1-2.1,22.6,3.5,25.3,4.2,2.1,33.9,1.1,41,.9s6.4-1.8,7.7-1.8Z"/>
  <path class="st1" d="M164.9,474.8c-1.2,0-2.3,0-3.5,0-1.4,7.2-5.9,21.3,3.5,22.7,0-7.5-.1-15.1,0-22.7Z"/>
</svg>