<svg xmlns="http://www.w3.org/2000/svg" viewBox="0 0 80 80"><defs><linearGradient id="shade" x1="0" y1="0" x2="1" y2="1"><stop stop-color="#fff" stop-opacity=".28"/><stop offset=".5" stop-color="#fff" stop-opacity="0"/><stop offset="1" stop-color="#000" stop-opacity=".18"/></linearGradient></defs><rect width="80" height="80" fill="#b4a38d"/><path d="M3 8h34v19H3zM40 5h37v22H40zM-6 31h27v20H-6zM25 31h31v18H25zM60 29h24v22H60zM4 55h30v20H4zM38 54h39v23H38z" fill="#c8bda9" opacity=".42"/><path d="M38 6v20M22 30v20M57 29v22M35 55v19M0 28h80M0 53h80" stroke="#817463" stroke-width="3" opacity=".34"/><path d="M11 17h13M47 16h17M12 64h14M48 65h18" stroke="#fff5dc" stroke-width="2" opacity=".25"/><path d="M0 0h80v80H0z" fill="url(#shade)" opacity=".38"/></svg>
