<svg xmlns="http://www.w3.org/2000/svg" viewBox="0 0 80 80"><defs><linearGradient id="shade" x1="0" y1="0" x2="1" y2="1"><stop stop-color="#fff" stop-opacity=".28"/><stop offset=".48" stop-color="#fff" stop-opacity="0"/><stop offset="1" stop-color="#000" stop-opacity=".18"/></linearGradient></defs><rect width="80" height="80" fill="#bbcd82"/><path d="M56 57l2-5" stroke="#82915e" stroke-width="1.5" stroke-linecap="round" opacity=".45"/><path d="M69 52l3-6" stroke="#82915e" stroke-width="1.5" stroke-linecap="round" opacity=".45"/><path d="M6 47l4-7" stroke="#82915e" stroke-width="1.5" stroke-linecap="round" opacity=".45"/><path d="M19 42l2-8" stroke="#82915e" stroke-width="1.5" stroke-linecap="round" opacity=".45"/><path d="M32 37l3-5" stroke="#82915e" stroke-width="1.5" stroke-linecap="round" opacity=".45"/><path d="M45 32l4-6" stroke="#82915e" stroke-width="1.5" stroke-linecap="round" opacity=".45"/><path d="M58 27l2-7" stroke="#82915e" stroke-width="1.5" stroke-linecap="round" opacity=".45"/><path d="M71 22l3-8" stroke="#82915e" stroke-width="1.5" stroke-linecap="round" opacity=".45"/><path d="M8 17l4-5" stroke="#82915e" stroke-width="1.5" stroke-linecap="round" opacity=".45"/><path d="M21 12l2-6" stroke="#82915e" stroke-width="1.5" stroke-linecap="round" opacity=".45"/><path d="M34 7l3-7" stroke="#82915e" stroke-width="1.5" stroke-linecap="round" opacity=".45"/><path d="M47 78l4-8" stroke="#82915e" stroke-width="1.5" stroke-linecap="round" opacity=".45"/><path d="M60 73l2-5" stroke="#82915e" stroke-width="1.5" stroke-linecap="round" opacity=".45"/><path d="M73 68l3-6" stroke="#82915e" stroke-width="1.5" stroke-linecap="round" opacity=".45"/><path d="M10 63l4-7" stroke="#82915e" stroke-width="1.5" stroke-linecap="round" opacity=".45"/><path d="M23 58l2-8" stroke="#82915e" stroke-width="1.5" stroke-linecap="round" opacity=".45"/><path d="M36 53l3-5" stroke="#82915e" stroke-width="1.5" stroke-linecap="round" opacity=".45"/><path d="M49 48l4-6" stroke="#82915e" stroke-width="1.5" stroke-linecap="round" opacity=".45"/><path d="M62 43l2-7" stroke="#82915e" stroke-width="1.5" stroke-linecap="round" opacity=".45"/><path d="M75 38l3-8" stroke="#82915e" stroke-width="1.5" stroke-linecap="round" opacity=".45"/><path d="M12 33l4-5" stroke="#82915e" stroke-width="1.5" stroke-linecap="round" opacity=".45"/><path d="M25 28l2-6" stroke="#82915e" stroke-width="1.5" stroke-linecap="round" opacity=".45"/><path d="M38 23l3-7" stroke="#82915e" stroke-width="1.5" stroke-linecap="round" opacity=".45"/><path d="M51 18l4-8" stroke="#82915e" stroke-width="1.5" stroke-linecap="round" opacity=".45"/><path d="M64 13l2-5" stroke="#82915e" stroke-width="1.5" stroke-linecap="round" opacity=".45"/><path d="M1 8l3-6" stroke="#82915e" stroke-width="1.5" stroke-linecap="round" opacity=".45"/><path d="M14 79l4-7" stroke="#82915e" stroke-width="1.5" stroke-linecap="round" opacity=".45"/><path d="M27 74l2-8" stroke="#82915e" stroke-width="1.5" stroke-linecap="round" opacity=".45"/><path d="M40 69l3-5" stroke="#82915e" stroke-width="1.5" stroke-linecap="round" opacity=".45"/><path d="M53 64l4-6" stroke="#82915e" stroke-width="1.5" stroke-linecap="round" opacity=".45"/><path d="M66 59l2-7" stroke="#82915e" stroke-width="1.5" stroke-linecap="round" opacity=".45"/><path d="M3 54l3-8" stroke="#82915e" stroke-width="1.5" stroke-linecap="round" opacity=".45"/><path d="M16 49l4-5" stroke="#82915e" stroke-width="1.5" stroke-linecap="round" opacity=".45"/><path d="M29 44l2-6" stroke="#82915e" stroke-width="1.5" stroke-linecap="round" opacity=".45"/><path d="M42 39l3-7" stroke="#82915e" stroke-width="1.5" stroke-linecap="round" opacity=".45"/><path d="M55 34l4-8" stroke="#82915e" stroke-width="1.5" stroke-linecap="round" opacity=".45"/><path d="M68 29l2-5" stroke="#82915e" stroke-width="1.5" stroke-linecap="round" opacity=".45"/><path d="M5 24l3-6" stroke="#82915e" stroke-width="1.5" stroke-linecap="round" opacity=".45"/><path d="M18 19l4-7" stroke="#82915e" stroke-width="1.5" stroke-linecap="round" opacity=".45"/><path d="M31 14l2-8" stroke="#82915e" stroke-width="1.5" stroke-linecap="round" opacity=".45"/><path d="M44 9l3-5" stroke="#82915e" stroke-width="1.5" stroke-linecap="round" opacity=".45"/><path d="M57 80l4-6" stroke="#82915e" stroke-width="1.5" stroke-linecap="round" opacity=".45"/><circle cx="28" cy="20" r="1.2" fill="#d6e1bb" opacity=".42"/><circle cx="75" cy="43" r="1.45" fill="#d6e1bb" opacity=".42"/><circle cx="42" cy="66" r="1.7" fill="#d6e1bb" opacity=".42"/><circle cx="9" cy="9" r="1.2" fill="#d6e1bb" opacity=".42"/><circle cx="56" cy="32" r="1.45" fill="#d6e1bb" opacity=".42"/><circle cx="23" cy="55" r="1.7" fill="#d6e1bb" opacity=".42"/><circle cx="70" cy="78" r="1.2" fill="#d6e1bb" opacity=".42"/><circle cx="37" cy="21" r="1.45" fill="#d6e1bb" opacity=".42"/><circle cx="4" cy="44" r="1.7" fill="#d6e1bb" opacity=".42"/><circle cx="51" cy="67" r="1.2" fill="#d6e1bb" opacity=".42"/><circle cx="18" cy="10" r="1.45" fill="#d6e1bb" opacity=".42"/><circle cx="65" cy="33" r="1.7" fill="#d6e1bb" opacity=".42"/><circle cx="32" cy="56" r="1.2" fill="#d6e1bb" opacity=".42"/><circle cx="79" cy="79" r="1.45" fill="#d6e1bb" opacity=".42"/><circle cx="46" cy="22" r="1.7" fill="#d6e1bb" opacity=".42"/><circle cx="13" cy="45" r="1.2" fill="#d6e1bb" opacity=".42"/><path d="M-3 65c16-6 28-6 44 0s28 6 42 0" fill="none" stroke="#c6d6a1" stroke-width="4" opacity=".34"/><path d="M0 0h80v80H0z" fill="url(#shade)" opacity=".38"/></svg>