<svg xmlns="http://www.w3.org/2000/svg" viewBox="0 0 80 80"><defs><linearGradient id="shade" x1="0" y1="0" x2="1" y2="1"><stop stop-color="#fff" stop-opacity=".28"/><stop offset=".48" stop-color="#fff" stop-opacity="0"/><stop offset="1" stop-color="#000" stop-opacity=".18"/></linearGradient></defs><rect width="80" height="80" fill="#d9c079"/><path d="M-4 58c16-11 31-10 48 0s30 10 42-1v27H-4z" fill="#e1cd96" opacity=".42"/><path d="M-8 30c18-8 35-8 54 0s31 8 44-2" fill="none" stroke="#eadbb3" stroke-width="4" opacity=".35"/><circle cx="60" cy="20" r="0.85" fill="#9c8854" opacity=".42"/><circle cx="11" cy="59" r="1.1" fill="#9c8854" opacity=".42"/><circle cx="42" cy="18" r="1.35" fill="#9c8854" opacity=".42"/><circle cx="73" cy="57" r="0.85" fill="#9c8854" opacity=".42"/><circle cx="24" cy="16" r="1.1" fill="#9c8854" opacity=".42"/><circle cx="55" cy="55" r="1.35" fill="#9c8854" opacity=".42"/><circle cx="6" cy="14" r="0.85" fill="#9c8854" opacity=".42"/><circle cx="37" cy="53" r="1.1" fill="#9c8854" opacity=".42"/><circle cx="68" cy="12" r="1.35" fill="#9c8854" opacity=".42"/><circle cx="19" cy="51" r="0.85" fill="#9c8854" opacity=".42"/><circle cx="50" cy="10" r="1.1" fill="#9c8854" opacity=".42"/><circle cx="1" cy="49" r="1.35" fill="#9c8854" opacity=".42"/><circle cx="32" cy="8" r="0.85" fill="#9c8854" opacity=".42"/><circle cx="63" cy="47" r="1.1" fill="#9c8854" opacity=".42"/><circle cx="14" cy="6" r="1.35" fill="#9c8854" opacity=".42"/><circle cx="45" cy="45" r="0.85" fill="#9c8854" opacity=".42"/><circle cx="76" cy="4" r="1.1" fill="#9c8854" opacity=".42"/><circle cx="27" cy="43" r="1.35" fill="#9c8854" opacity=".42"/><circle cx="58" cy="2" r="0.85" fill="#9c8854" opacity=".42"/><circle cx="9" cy="41" r="1.1" fill="#9c8854" opacity=".42"/><circle cx="40" cy="0" r="1.35" fill="#9c8854" opacity=".42"/><circle cx="71" cy="39" r="0.85" fill="#9c8854" opacity=".42"/><circle cx="22" cy="78" r="1.1" fill="#9c8854" opacity=".42"/><circle cx="53" cy="37" r="1.35" fill="#9c8854" opacity=".42"/><circle cx="4" cy="76" r="0.85" fill="#9c8854" opacity=".42"/><circle cx="35" cy="35" r="1.1" fill="#9c8854" opacity=".42"/><circle cx="66" cy="74" r="1.35" fill="#9c8854" opacity=".42"/><circle cx="17" cy="33" r="0.85" fill="#9c8854" opacity=".42"/><circle cx="48" cy="72" r="1.1" fill="#9c8854" opacity=".42"/><circle cx="79" cy="31" r="1.35" fill="#9c8854" opacity=".42"/><circle cx="30" cy="70" r="0.85" fill="#9c8854" opacity=".42"/><circle cx="61" cy="29" r="1.1" fill="#9c8854" opacity=".42"/><circle cx="12" cy="68" r="1.35" fill="#9c8854" opacity=".42"/><circle cx="43" cy="27" r="0.85" fill="#9c8854" opacity=".42"/><circle cx="74" cy="66" r="1.1" fill="#9c8854" opacity=".42"/><circle cx="25" cy="25" r="1.35" fill="#9c8854" opacity=".42"/><path d="M0 0h80v80H0z" fill="url(#shade)" opacity=".38"/></svg>