<svg xmlns="http://www.w3.org/2000/svg" viewBox="0 0 80 80"><defs><linearGradient id="shade" x1="0" y1="0" x2="1" y2="1"><stop stop-color="#fff" stop-opacity=".27"/><stop offset=".5" stop-color="#fff" stop-opacity="0"/><stop offset="1" stop-color="#000" stop-opacity=".18"/></linearGradient></defs><rect width="80" height="80" fill="#b2a38e"/><path d="M0 0h80v80H0z" fill="#c4b8a5" opacity=".24"/><path d="M0 16h80M0 32h80M0 48h80M0 64h80M20 0v16M59 0v16M0 16v16M39 16v16M78 16v16M20 32v16M59 32v16M0 48v16M39 48v16M78 48v16M20 64v16M59 64v16" stroke="#817364" stroke-width="2.4" opacity=".38"/><path d="M8 8h15M49 24h18M12 56h18M48 72h17" stroke="#fff4dc" stroke-width="2" opacity=".22"/><path d="M0 0h80v80H0z" fill="url(#shade)" opacity=".38"/></svg>
