<svg xmlns="http://www.w3.org/2000/svg" viewBox="0 0 80 80"><defs><linearGradient id="shade" x1="0" y1="0" x2="1" y2="1"><stop stop-color="#fff" stop-opacity=".28"/><stop offset=".48" stop-color="#fff" stop-opacity="0"/><stop offset="1" stop-color="#000" stop-opacity=".18"/></linearGradient></defs><rect width="80" height="80" fill="#83aeb9"/><path d="M0 22c8-7 16 7 24 0s16 7 24 0 16 7 32 0M0 44c8-7 16 7 24 0s16 7 24 0 16 7 32 0M0 64c8-7 16 7 24 0s16 7 24 0 16 7 32 0" fill="none" stroke="#bbd2d9" stroke-width="4" opacity=".55"/><ellipse cx="35" cy="31" rx="11" ry="5" fill="#ffffff" opacity=".16"/><path d="M0 0h80v80H0z" fill="url(#shade)" opacity=".38"/></svg>