<svg xmlns="http://www.w3.org/2000/svg" viewBox="0 0 80 80"><defs><linearGradient id="shade" x1="0" y1="0" x2="1" y2="1"><stop stop-color="#fff" stop-opacity=".28"/><stop offset=".48" stop-color="#fff" stop-opacity="0"/><stop offset="1" stop-color="#000" stop-opacity=".18"/></linearGradient></defs><rect width="80" height="80" fill="#aeca77"/><path d="M62 49l2-5" stroke="#82915e" stroke-width="1.5" stroke-linecap="round" opacity=".45"/><path d="M65 78l3-6" stroke="#82915e" stroke-width="1.5" stroke-linecap="round" opacity=".45"/><path d="M68 31l4-7" stroke="#82915e" stroke-width="1.5" stroke-linecap="round" opacity=".45"/><path d="M71 60l2-8" stroke="#82915e" stroke-width="1.5" stroke-linecap="round" opacity=".45"/><path d="M74 13l3-5" stroke="#82915e" stroke-width="1.5" stroke-linecap="round" opacity=".45"/><path d="M1 42l4-6" stroke="#82915e" stroke-width="1.5" stroke-linecap="round" opacity=".45"/><path d="M4 71l2-7" stroke="#82915e" stroke-width="1.5" stroke-linecap="round" opacity=".45"/><path d="M7 24l3-8" stroke="#82915e" stroke-width="1.5" stroke-linecap="round" opacity=".45"/><path d="M10 53l4-5" stroke="#82915e" stroke-width="1.5" stroke-linecap="round" opacity=".45"/><path d="M13 6l2-6" stroke="#82915e" stroke-width="1.5" stroke-linecap="round" opacity=".45"/><path d="M16 35l3-7" stroke="#82915e" stroke-width="1.5" stroke-linecap="round" opacity=".45"/><path d="M19 64l4-8" stroke="#82915e" stroke-width="1.5" stroke-linecap="round" opacity=".45"/><path d="M22 17l2-5" stroke="#82915e" stroke-width="1.5" stroke-linecap="round" opacity=".45"/><path d="M25 46l3-6" stroke="#82915e" stroke-width="1.5" stroke-linecap="round" opacity=".45"/><path d="M28 75l4-7" stroke="#82915e" stroke-width="1.5" stroke-linecap="round" opacity=".45"/><path d="M31 28l2-8" stroke="#82915e" stroke-width="1.5" stroke-linecap="round" opacity=".45"/><path d="M34 57l3-5" stroke="#82915e" stroke-width="1.5" stroke-linecap="round" opacity=".45"/><path d="M37 10l4-6" stroke="#82915e" stroke-width="1.5" stroke-linecap="round" opacity=".45"/><path d="M40 39l2-7" stroke="#82915e" stroke-width="1.5" stroke-linecap="round" opacity=".45"/><path d="M43 68l3-8" stroke="#82915e" stroke-width="1.5" stroke-linecap="round" opacity=".45"/><path d="M46 21l4-5" stroke="#82915e" stroke-width="1.5" stroke-linecap="round" opacity=".45"/><path d="M49 50l2-6" stroke="#82915e" stroke-width="1.5" stroke-linecap="round" opacity=".45"/><path d="M52 79l3-7" stroke="#82915e" stroke-width="1.5" stroke-linecap="round" opacity=".45"/><path d="M55 32l4-8" stroke="#82915e" stroke-width="1.5" stroke-linecap="round" opacity=".45"/><path d="M58 61l2-5" stroke="#82915e" stroke-width="1.5" stroke-linecap="round" opacity=".45"/><path d="M61 14l3-6" stroke="#82915e" stroke-width="1.5" stroke-linecap="round" opacity=".45"/><path d="M64 43l4-7" stroke="#82915e" stroke-width="1.5" stroke-linecap="round" opacity=".45"/><path d="M67 72l2-8" stroke="#82915e" stroke-width="1.5" stroke-linecap="round" opacity=".45"/><path d="M70 25l3-5" stroke="#82915e" stroke-width="1.5" stroke-linecap="round" opacity=".45"/><path d="M73 54l4-6" stroke="#82915e" stroke-width="1.5" stroke-linecap="round" opacity=".45"/><path d="M0 7l2-7" stroke="#82915e" stroke-width="1.5" stroke-linecap="round" opacity=".45"/><path d="M3 36l3-8" stroke="#82915e" stroke-width="1.5" stroke-linecap="round" opacity=".45"/><path d="M6 65l4-5" stroke="#82915e" stroke-width="1.5" stroke-linecap="round" opacity=".45"/><path d="M9 18l2-6" stroke="#82915e" stroke-width="1.5" stroke-linecap="round" opacity=".45"/><path d="M12 47l3-7" stroke="#82915e" stroke-width="1.5" stroke-linecap="round" opacity=".45"/><path d="M15 76l4-8" stroke="#82915e" stroke-width="1.5" stroke-linecap="round" opacity=".45"/><path d="M18 29l2-5" stroke="#82915e" stroke-width="1.5" stroke-linecap="round" opacity=".45"/><path d="M21 58l3-6" stroke="#82915e" stroke-width="1.5" stroke-linecap="round" opacity=".45"/><path d="M24 11l4-7" stroke="#82915e" stroke-width="1.5" stroke-linecap="round" opacity=".45"/><path d="M27 40l2-8" stroke="#82915e" stroke-width="1.5" stroke-linecap="round" opacity=".45"/><path d="M30 69l3-5" stroke="#82915e" stroke-width="1.5" stroke-linecap="round" opacity=".45"/><path d="M33 22l4-6" stroke="#82915e" stroke-width="1.5" stroke-linecap="round" opacity=".45"/><circle cx="18" cy="70" r="1.2" fill="#d6e1bb" opacity=".42"/><circle cx="35" cy="23" r="1.45" fill="#d6e1bb" opacity=".42"/><circle cx="52" cy="56" r="1.7" fill="#d6e1bb" opacity=".42"/><circle cx="69" cy="9" r="1.2" fill="#d6e1bb" opacity=".42"/><circle cx="6" cy="42" r="1.45" fill="#d6e1bb" opacity=".42"/><circle cx="23" cy="75" r="1.7" fill="#d6e1bb" opacity=".42"/><circle cx="40" cy="28" r="1.2" fill="#d6e1bb" opacity=".42"/><circle cx="57" cy="61" r="1.45" fill="#d6e1bb" opacity=".42"/><circle cx="74" cy="14" r="1.7" fill="#d6e1bb" opacity=".42"/><circle cx="11" cy="47" r="1.2" fill="#d6e1bb" opacity=".42"/><circle cx="28" cy="0" r="1.45" fill="#d6e1bb" opacity=".42"/><circle cx="45" cy="33" r="1.7" fill="#d6e1bb" opacity=".42"/><circle cx="62" cy="66" r="1.2" fill="#d6e1bb" opacity=".42"/><circle cx="79" cy="19" r="1.45" fill="#d6e1bb" opacity=".42"/><circle cx="16" cy="52" r="1.7" fill="#d6e1bb" opacity=".42"/><circle cx="33" cy="5" r="1.2" fill="#d6e1bb" opacity=".42"/><path d="M-3 65c16-6 28-6 44 0s28 6 42 0" fill="none" stroke="#c6d6a1" stroke-width="4" opacity=".34"/><path d="M0 0h80v80H0z" fill="url(#shade)" opacity=".38"/></svg>