<svg xmlns="http://www.w3.org/2000/svg" viewBox="0 0 80 80"><defs><linearGradient id="shade" x1="0" y1="0" x2="1" y2="1"><stop stop-color="#fff" stop-opacity=".28"/><stop offset=".48" stop-color="#fff" stop-opacity="0"/><stop offset="1" stop-color="#000" stop-opacity=".18"/></linearGradient></defs><rect width="80" height="80" fill="#d8bd75"/><path d="M-4 58c16-11 31-10 48 0s30 10 42-1v27H-4z" fill="#e1cd96" opacity=".42"/><path d="M-8 30c18-8 35-8 54 0s31 8 44-2" fill="none" stroke="#eadbb3" stroke-width="4" opacity=".35"/><circle cx="15" cy="5" r="0.85" fill="#9c8854" opacity=".42"/><circle cx="31" cy="9" r="1.1" fill="#9c8854" opacity=".42"/><circle cx="47" cy="13" r="1.35" fill="#9c8854" opacity=".42"/><circle cx="63" cy="17" r="0.85" fill="#9c8854" opacity=".42"/><circle cx="79" cy="21" r="1.1" fill="#9c8854" opacity=".42"/><circle cx="15" cy="25" r="1.35" fill="#9c8854" opacity=".42"/><circle cx="31" cy="29" r="0.85" fill="#9c8854" opacity=".42"/><circle cx="47" cy="33" r="1.1" fill="#9c8854" opacity=".42"/><circle cx="63" cy="37" r="1.35" fill="#9c8854" opacity=".42"/><circle cx="79" cy="41" r="0.85" fill="#9c8854" opacity=".42"/><circle cx="15" cy="45" r="1.1" fill="#9c8854" opacity=".42"/><circle cx="31" cy="49" r="1.35" fill="#9c8854" opacity=".42"/><circle cx="47" cy="53" r="0.85" fill="#9c8854" opacity=".42"/><circle cx="63" cy="57" r="1.1" fill="#9c8854" opacity=".42"/><circle cx="79" cy="61" r="1.35" fill="#9c8854" opacity=".42"/><circle cx="15" cy="65" r="0.85" fill="#9c8854" opacity=".42"/><circle cx="31" cy="69" r="1.1" fill="#9c8854" opacity=".42"/><circle cx="47" cy="73" r="1.35" fill="#9c8854" opacity=".42"/><circle cx="63" cy="77" r="0.85" fill="#9c8854" opacity=".42"/><circle cx="79" cy="1" r="1.1" fill="#9c8854" opacity=".42"/><circle cx="15" cy="5" r="1.35" fill="#9c8854" opacity=".42"/><circle cx="31" cy="9" r="0.85" fill="#9c8854" opacity=".42"/><circle cx="47" cy="13" r="1.1" fill="#9c8854" opacity=".42"/><circle cx="63" cy="17" r="1.35" fill="#9c8854" opacity=".42"/><circle cx="79" cy="21" r="0.85" fill="#9c8854" opacity=".42"/><circle cx="15" cy="25" r="1.1" fill="#9c8854" opacity=".42"/><circle cx="31" cy="29" r="1.35" fill="#9c8854" opacity=".42"/><circle cx="47" cy="33" r="0.85" fill="#9c8854" opacity=".42"/><circle cx="63" cy="37" r="1.1" fill="#9c8854" opacity=".42"/><circle cx="79" cy="41" r="1.35" fill="#9c8854" opacity=".42"/><circle cx="15" cy="45" r="0.85" fill="#9c8854" opacity=".42"/><circle cx="31" cy="49" r="1.1" fill="#9c8854" opacity=".42"/><circle cx="47" cy="53" r="1.35" fill="#9c8854" opacity=".42"/><circle cx="63" cy="57" r="0.85" fill="#9c8854" opacity=".42"/><circle cx="79" cy="61" r="1.1" fill="#9c8854" opacity=".42"/><circle cx="15" cy="65" r="1.35" fill="#9c8854" opacity=".42"/><path d="M0 0h80v80H0z" fill="url(#shade)" opacity=".38"/></svg>