<svg xmlns="http://www.w3.org/2000/svg" viewBox="0 0 80 80"><defs><linearGradient id="shade" x1="0" y1="0" x2="1" y2="1"><stop stop-color="#fff" stop-opacity=".28"/><stop offset=".48" stop-color="#fff" stop-opacity="0"/><stop offset="1" stop-color="#000" stop-opacity=".18"/></linearGradient></defs><rect width="80" height="80" fill="#afc883"/><path d="M7 59l2-5" stroke="#82915e" stroke-width="1.5" stroke-linecap="round" opacity=".45"/><path d="M13 17l3-6" stroke="#82915e" stroke-width="1.5" stroke-linecap="round" opacity=".45"/><path d="M19 51l4-7" stroke="#82915e" stroke-width="1.5" stroke-linecap="round" opacity=".45"/><path d="M25 9l2-8" stroke="#82915e" stroke-width="1.5" stroke-linecap="round" opacity=".45"/><path d="M31 43l3-5" stroke="#82915e" stroke-width="1.5" stroke-linecap="round" opacity=".45"/><path d="M37 77l4-6" stroke="#82915e" stroke-width="1.5" stroke-linecap="round" opacity=".45"/><path d="M43 35l2-7" stroke="#82915e" stroke-width="1.5" stroke-linecap="round" opacity=".45"/><path d="M49 69l3-8" stroke="#82915e" stroke-width="1.5" stroke-linecap="round" opacity=".45"/><path d="M55 27l4-5" stroke="#82915e" stroke-width="1.5" stroke-linecap="round" opacity=".45"/><path d="M61 61l2-6" stroke="#82915e" stroke-width="1.5" stroke-linecap="round" opacity=".45"/><path d="M67 19l3-7" stroke="#82915e" stroke-width="1.5" stroke-linecap="round" opacity=".45"/><path d="M73 53l4-8" stroke="#82915e" stroke-width="1.5" stroke-linecap="round" opacity=".45"/><path d="M3 11l2-5" stroke="#82915e" stroke-width="1.5" stroke-linecap="round" opacity=".45"/><path d="M9 45l3-6" stroke="#82915e" stroke-width="1.5" stroke-linecap="round" opacity=".45"/><path d="M15 79l4-7" stroke="#82915e" stroke-width="1.5" stroke-linecap="round" opacity=".45"/><path d="M21 37l2-8" stroke="#82915e" stroke-width="1.5" stroke-linecap="round" opacity=".45"/><path d="M27 71l3-5" stroke="#82915e" stroke-width="1.5" stroke-linecap="round" opacity=".45"/><path d="M33 29l4-6" stroke="#82915e" stroke-width="1.5" stroke-linecap="round" opacity=".45"/><path d="M39 63l2-7" stroke="#82915e" stroke-width="1.5" stroke-linecap="round" opacity=".45"/><path d="M45 21l3-8" stroke="#82915e" stroke-width="1.5" stroke-linecap="round" opacity=".45"/><path d="M51 55l4-5" stroke="#82915e" stroke-width="1.5" stroke-linecap="round" opacity=".45"/><path d="M57 13l2-6" stroke="#82915e" stroke-width="1.5" stroke-linecap="round" opacity=".45"/><path d="M63 47l3-7" stroke="#82915e" stroke-width="1.5" stroke-linecap="round" opacity=".45"/><path d="M69 5l4-8" stroke="#82915e" stroke-width="1.5" stroke-linecap="round" opacity=".45"/><path d="M75 39l2-5" stroke="#82915e" stroke-width="1.5" stroke-linecap="round" opacity=".45"/><path d="M5 73l3-6" stroke="#82915e" stroke-width="1.5" stroke-linecap="round" opacity=".45"/><path d="M11 31l4-7" stroke="#82915e" stroke-width="1.5" stroke-linecap="round" opacity=".45"/><path d="M17 65l2-8" stroke="#82915e" stroke-width="1.5" stroke-linecap="round" opacity=".45"/><path d="M23 23l3-5" stroke="#82915e" stroke-width="1.5" stroke-linecap="round" opacity=".45"/><path d="M29 57l4-6" stroke="#82915e" stroke-width="1.5" stroke-linecap="round" opacity=".45"/><path d="M35 15l2-7" stroke="#82915e" stroke-width="1.5" stroke-linecap="round" opacity=".45"/><path d="M41 49l3-8" stroke="#82915e" stroke-width="1.5" stroke-linecap="round" opacity=".45"/><path d="M47 7l4-5" stroke="#82915e" stroke-width="1.5" stroke-linecap="round" opacity=".45"/><path d="M53 41l2-6" stroke="#82915e" stroke-width="1.5" stroke-linecap="round" opacity=".45"/><path d="M59 75l3-7" stroke="#82915e" stroke-width="1.5" stroke-linecap="round" opacity=".45"/><path d="M65 33l4-8" stroke="#82915e" stroke-width="1.5" stroke-linecap="round" opacity=".45"/><path d="M71 67l2-5" stroke="#82915e" stroke-width="1.5" stroke-linecap="round" opacity=".45"/><path d="M1 25l3-6" stroke="#82915e" stroke-width="1.5" stroke-linecap="round" opacity=".45"/><path d="M7 59l4-7" stroke="#82915e" stroke-width="1.5" stroke-linecap="round" opacity=".45"/><path d="M13 17l2-8" stroke="#82915e" stroke-width="1.5" stroke-linecap="round" opacity=".45"/><path d="M19 51l3-5" stroke="#82915e" stroke-width="1.5" stroke-linecap="round" opacity=".45"/><path d="M25 9l4-6" stroke="#82915e" stroke-width="1.5" stroke-linecap="round" opacity=".45"/><circle cx="19" cy="65" r="1.2" fill="#d6e1bb" opacity=".42"/><circle cx="63" cy="1" r="1.45" fill="#d6e1bb" opacity=".42"/><circle cx="27" cy="17" r="1.7" fill="#d6e1bb" opacity=".42"/><circle cx="71" cy="33" r="1.2" fill="#d6e1bb" opacity=".42"/><circle cx="35" cy="49" r="1.45" fill="#d6e1bb" opacity=".42"/><circle cx="79" cy="65" r="1.7" fill="#d6e1bb" opacity=".42"/><circle cx="43" cy="1" r="1.2" fill="#d6e1bb" opacity=".42"/><circle cx="7" cy="17" r="1.45" fill="#d6e1bb" opacity=".42"/><circle cx="51" cy="33" r="1.7" fill="#d6e1bb" opacity=".42"/><circle cx="15" cy="49" r="1.2" fill="#d6e1bb" opacity=".42"/><circle cx="59" cy="65" r="1.45" fill="#d6e1bb" opacity=".42"/><circle cx="23" cy="1" r="1.7" fill="#d6e1bb" opacity=".42"/><circle cx="67" cy="17" r="1.2" fill="#d6e1bb" opacity=".42"/><circle cx="31" cy="33" r="1.45" fill="#d6e1bb" opacity=".42"/><circle cx="75" cy="49" r="1.7" fill="#d6e1bb" opacity=".42"/><circle cx="39" cy="65" r="1.2" fill="#d6e1bb" opacity=".42"/><path d="M-3 65c16-6 28-6 44 0s28 6 42 0" fill="none" stroke="#c6d6a1" stroke-width="4" opacity=".34"/><path d="M0 0h80v80H0z" fill="url(#shade)" opacity=".38"/></svg>