<svg xmlns="http://www.w3.org/2000/svg" viewBox="0 0 80 80"><defs><linearGradient id="shade" x1="0" y1="0" x2="1" y2="1"><stop stop-color="#fff" stop-opacity=".28"/><stop offset=".48" stop-color="#fff" stop-opacity="0"/><stop offset="1" stop-color="#000" stop-opacity=".18"/></linearGradient></defs><rect width="80" height="80" fill="#b4c983"/><path d="M72 61l2-5" stroke="#82915e" stroke-width="1.5" stroke-linecap="round" opacity=".45"/><path d="M33 20l3-6" stroke="#82915e" stroke-width="1.5" stroke-linecap="round" opacity=".45"/><path d="M70 55l4-7" stroke="#82915e" stroke-width="1.5" stroke-linecap="round" opacity=".45"/><path d="M31 14l2-8" stroke="#82915e" stroke-width="1.5" stroke-linecap="round" opacity=".45"/><path d="M68 49l3-5" stroke="#82915e" stroke-width="1.5" stroke-linecap="round" opacity=".45"/><path d="M29 8l4-6" stroke="#82915e" stroke-width="1.5" stroke-linecap="round" opacity=".45"/><path d="M66 43l2-7" stroke="#82915e" stroke-width="1.5" stroke-linecap="round" opacity=".45"/><path d="M27 78l3-8" stroke="#82915e" stroke-width="1.5" stroke-linecap="round" opacity=".45"/><path d="M64 37l4-5" stroke="#82915e" stroke-width="1.5" stroke-linecap="round" opacity=".45"/><path d="M25 72l2-6" stroke="#82915e" stroke-width="1.5" stroke-linecap="round" opacity=".45"/><path d="M62 31l3-7" stroke="#82915e" stroke-width="1.5" stroke-linecap="round" opacity=".45"/><path d="M23 66l4-8" stroke="#82915e" stroke-width="1.5" stroke-linecap="round" opacity=".45"/><path d="M60 25l2-5" stroke="#82915e" stroke-width="1.5" stroke-linecap="round" opacity=".45"/><path d="M21 60l3-6" stroke="#82915e" stroke-width="1.5" stroke-linecap="round" opacity=".45"/><path d="M58 19l4-7" stroke="#82915e" stroke-width="1.5" stroke-linecap="round" opacity=".45"/><path d="M19 54l2-8" stroke="#82915e" stroke-width="1.5" stroke-linecap="round" opacity=".45"/><path d="M56 13l3-5" stroke="#82915e" stroke-width="1.5" stroke-linecap="round" opacity=".45"/><path d="M17 48l4-6" stroke="#82915e" stroke-width="1.5" stroke-linecap="round" opacity=".45"/><path d="M54 7l2-7" stroke="#82915e" stroke-width="1.5" stroke-linecap="round" opacity=".45"/><path d="M15 42l3-8" stroke="#82915e" stroke-width="1.5" stroke-linecap="round" opacity=".45"/><path d="M52 77l4-5" stroke="#82915e" stroke-width="1.5" stroke-linecap="round" opacity=".45"/><path d="M13 36l2-6" stroke="#82915e" stroke-width="1.5" stroke-linecap="round" opacity=".45"/><path d="M50 71l3-7" stroke="#82915e" stroke-width="1.5" stroke-linecap="round" opacity=".45"/><path d="M11 30l4-8" stroke="#82915e" stroke-width="1.5" stroke-linecap="round" opacity=".45"/><path d="M48 65l2-5" stroke="#82915e" stroke-width="1.5" stroke-linecap="round" opacity=".45"/><path d="M9 24l3-6" stroke="#82915e" stroke-width="1.5" stroke-linecap="round" opacity=".45"/><path d="M46 59l4-7" stroke="#82915e" stroke-width="1.5" stroke-linecap="round" opacity=".45"/><path d="M7 18l2-8" stroke="#82915e" stroke-width="1.5" stroke-linecap="round" opacity=".45"/><path d="M44 53l3-5" stroke="#82915e" stroke-width="1.5" stroke-linecap="round" opacity=".45"/><path d="M5 12l4-6" stroke="#82915e" stroke-width="1.5" stroke-linecap="round" opacity=".45"/><path d="M42 47l2-7" stroke="#82915e" stroke-width="1.5" stroke-linecap="round" opacity=".45"/><path d="M3 6l3-8" stroke="#82915e" stroke-width="1.5" stroke-linecap="round" opacity=".45"/><path d="M40 41l4-5" stroke="#82915e" stroke-width="1.5" stroke-linecap="round" opacity=".45"/><path d="M1 76l2-6" stroke="#82915e" stroke-width="1.5" stroke-linecap="round" opacity=".45"/><path d="M38 35l3-7" stroke="#82915e" stroke-width="1.5" stroke-linecap="round" opacity=".45"/><path d="M75 70l4-8" stroke="#82915e" stroke-width="1.5" stroke-linecap="round" opacity=".45"/><path d="M36 29l2-5" stroke="#82915e" stroke-width="1.5" stroke-linecap="round" opacity=".45"/><path d="M73 64l3-6" stroke="#82915e" stroke-width="1.5" stroke-linecap="round" opacity=".45"/><path d="M34 23l4-7" stroke="#82915e" stroke-width="1.5" stroke-linecap="round" opacity=".45"/><path d="M71 58l2-8" stroke="#82915e" stroke-width="1.5" stroke-linecap="round" opacity=".45"/><path d="M32 17l3-5" stroke="#82915e" stroke-width="1.5" stroke-linecap="round" opacity=".45"/><path d="M69 52l4-6" stroke="#82915e" stroke-width="1.5" stroke-linecap="round" opacity=".45"/><circle cx="28" cy="20" r="1.2" fill="#d6e1bb" opacity=".42"/><circle cx="75" cy="43" r="1.45" fill="#d6e1bb" opacity=".42"/><circle cx="42" cy="66" r="1.7" fill="#d6e1bb" opacity=".42"/><circle cx="9" cy="9" r="1.2" fill="#d6e1bb" opacity=".42"/><circle cx="56" cy="32" r="1.45" fill="#d6e1bb" opacity=".42"/><circle cx="23" cy="55" r="1.7" fill="#d6e1bb" opacity=".42"/><circle cx="70" cy="78" r="1.2" fill="#d6e1bb" opacity=".42"/><circle cx="37" cy="21" r="1.45" fill="#d6e1bb" opacity=".42"/><circle cx="4" cy="44" r="1.7" fill="#d6e1bb" opacity=".42"/><circle cx="51" cy="67" r="1.2" fill="#d6e1bb" opacity=".42"/><circle cx="18" cy="10" r="1.45" fill="#d6e1bb" opacity=".42"/><circle cx="65" cy="33" r="1.7" fill="#d6e1bb" opacity=".42"/><circle cx="32" cy="56" r="1.2" fill="#d6e1bb" opacity=".42"/><circle cx="79" cy="79" r="1.45" fill="#d6e1bb" opacity=".42"/><circle cx="46" cy="22" r="1.7" fill="#d6e1bb" opacity=".42"/><circle cx="13" cy="45" r="1.2" fill="#d6e1bb" opacity=".42"/><path d="M-3 65c16-6 28-6 44 0s28 6 42 0" fill="none" stroke="#c6d6a1" stroke-width="4" opacity=".34"/><path d="M0 0h80v80H0z" fill="url(#shade)" opacity=".38"/></svg>