<svg xmlns="http://www.w3.org/2000/svg" viewBox="0 0 80 80"><defs><linearGradient id="shade" x1="0" y1="0" x2="1" y2="1"><stop stop-color="#fff" stop-opacity=".28"/><stop offset=".48" stop-color="#fff" stop-opacity="0"/><stop offset="1" stop-color="#000" stop-opacity=".18"/></linearGradient></defs><rect width="80" height="80" fill="#91ad73"/><path d="M2 53l2-5" stroke="#687d53" stroke-width="1.5" stroke-linecap="round" opacity=".45"/><path d="M29 46l3-6" stroke="#687d53" stroke-width="1.5" stroke-linecap="round" opacity=".45"/><path d="M56 39l4-7" stroke="#687d53" stroke-width="1.5" stroke-linecap="round" opacity=".45"/><path d="M7 32l2-8" stroke="#687d53" stroke-width="1.5" stroke-linecap="round" opacity=".45"/><path d="M34 25l3-5" stroke="#687d53" stroke-width="1.5" stroke-linecap="round" opacity=".45"/><path d="M61 18l4-6" stroke="#687d53" stroke-width="1.5" stroke-linecap="round" opacity=".45"/><path d="M12 11l2-7" stroke="#687d53" stroke-width="1.5" stroke-linecap="round" opacity=".45"/><path d="M39 80l3-8" stroke="#687d53" stroke-width="1.5" stroke-linecap="round" opacity=".45"/><path d="M66 73l4-5" stroke="#687d53" stroke-width="1.5" stroke-linecap="round" opacity=".45"/><path d="M17 66l2-6" stroke="#687d53" stroke-width="1.5" stroke-linecap="round" opacity=".45"/><path d="M44 59l3-7" stroke="#687d53" stroke-width="1.5" stroke-linecap="round" opacity=".45"/><path d="M71 52l4-8" stroke="#687d53" stroke-width="1.5" stroke-linecap="round" opacity=".45"/><path d="M22 45l2-5" stroke="#687d53" stroke-width="1.5" stroke-linecap="round" opacity=".45"/><path d="M49 38l3-6" stroke="#687d53" stroke-width="1.5" stroke-linecap="round" opacity=".45"/><path d="M0 31l4-7" stroke="#687d53" stroke-width="1.5" stroke-linecap="round" opacity=".45"/><path d="M27 24l2-8" stroke="#687d53" stroke-width="1.5" stroke-linecap="round" opacity=".45"/><path d="M54 17l3-5" stroke="#687d53" stroke-width="1.5" stroke-linecap="round" opacity=".45"/><path d="M5 10l4-6" stroke="#687d53" stroke-width="1.5" stroke-linecap="round" opacity=".45"/><path d="M32 79l2-7" stroke="#687d53" stroke-width="1.5" stroke-linecap="round" opacity=".45"/><path d="M59 72l3-8" stroke="#687d53" stroke-width="1.5" stroke-linecap="round" opacity=".45"/><path d="M10 65l4-5" stroke="#687d53" stroke-width="1.5" stroke-linecap="round" opacity=".45"/><path d="M37 58l2-6" stroke="#687d53" stroke-width="1.5" stroke-linecap="round" opacity=".45"/><path d="M64 51l3-7" stroke="#687d53" stroke-width="1.5" stroke-linecap="round" opacity=".45"/><path d="M15 44l4-8" stroke="#687d53" stroke-width="1.5" stroke-linecap="round" opacity=".45"/><path d="M42 37l2-5" stroke="#687d53" stroke-width="1.5" stroke-linecap="round" opacity=".45"/><path d="M69 30l3-6" stroke="#687d53" stroke-width="1.5" stroke-linecap="round" opacity=".45"/><path d="M20 23l4-7" stroke="#687d53" stroke-width="1.5" stroke-linecap="round" opacity=".45"/><path d="M47 16l2-8" stroke="#687d53" stroke-width="1.5" stroke-linecap="round" opacity=".45"/><path d="M74 9l3-5" stroke="#687d53" stroke-width="1.5" stroke-linecap="round" opacity=".45"/><path d="M25 78l4-6" stroke="#687d53" stroke-width="1.5" stroke-linecap="round" opacity=".45"/><path d="M52 71l2-7" stroke="#687d53" stroke-width="1.5" stroke-linecap="round" opacity=".45"/><path d="M3 64l3-8" stroke="#687d53" stroke-width="1.5" stroke-linecap="round" opacity=".45"/><path d="M30 57l4-5" stroke="#687d53" stroke-width="1.5" stroke-linecap="round" opacity=".45"/><path d="M57 50l2-6" stroke="#687d53" stroke-width="1.5" stroke-linecap="round" opacity=".45"/><circle cx="18" cy="22" r="8" fill="#809865" opacity=".32"/><circle cx="56" cy="52" r="10" fill="#abc195" opacity=".28"/><path d="M12 76c10-20 10-40 0-60M58 76c-7-20-7-39 0-58" stroke="#687d53" stroke-width="3" opacity=".18"/><path d="M0 0h80v80H0z" fill="url(#shade)" opacity=".38"/></svg>