<svg xmlns="http://www.w3.org/2000/svg" viewBox="0 0 80 80"><defs><linearGradient id="shade" x1="0" y1="0" x2="1" y2="1"><stop stop-color="#fff" stop-opacity=".28"/><stop offset=".48" stop-color="#fff" stop-opacity="0"/><stop offset="1" stop-color="#000" stop-opacity=".18"/></linearGradient></defs><rect width="80" height="80" fill="#b8c77f"/><path d="M33 75l2-5" stroke="#82915e" stroke-width="1.5" stroke-linecap="round" opacity=".45"/><path d="M21 79l3-6" stroke="#82915e" stroke-width="1.5" stroke-linecap="round" opacity=".45"/><path d="M9 7l4-7" stroke="#82915e" stroke-width="1.5" stroke-linecap="round" opacity=".45"/><path d="M73 11l2-8" stroke="#82915e" stroke-width="1.5" stroke-linecap="round" opacity=".45"/><path d="M61 15l3-5" stroke="#82915e" stroke-width="1.5" stroke-linecap="round" opacity=".45"/><path d="M49 19l4-6" stroke="#82915e" stroke-width="1.5" stroke-linecap="round" opacity=".45"/><path d="M37 23l2-7" stroke="#82915e" stroke-width="1.5" stroke-linecap="round" opacity=".45"/><path d="M25 27l3-8" stroke="#82915e" stroke-width="1.5" stroke-linecap="round" opacity=".45"/><path d="M13 31l4-5" stroke="#82915e" stroke-width="1.5" stroke-linecap="round" opacity=".45"/><path d="M1 35l2-6" stroke="#82915e" stroke-width="1.5" stroke-linecap="round" opacity=".45"/><path d="M65 39l3-7" stroke="#82915e" stroke-width="1.5" stroke-linecap="round" opacity=".45"/><path d="M53 43l4-8" stroke="#82915e" stroke-width="1.5" stroke-linecap="round" opacity=".45"/><path d="M41 47l2-5" stroke="#82915e" stroke-width="1.5" stroke-linecap="round" opacity=".45"/><path d="M29 51l3-6" stroke="#82915e" stroke-width="1.5" stroke-linecap="round" opacity=".45"/><path d="M17 55l4-7" stroke="#82915e" stroke-width="1.5" stroke-linecap="round" opacity=".45"/><path d="M5 59l2-8" stroke="#82915e" stroke-width="1.5" stroke-linecap="round" opacity=".45"/><path d="M69 63l3-5" stroke="#82915e" stroke-width="1.5" stroke-linecap="round" opacity=".45"/><path d="M57 67l4-6" stroke="#82915e" stroke-width="1.5" stroke-linecap="round" opacity=".45"/><path d="M45 71l2-7" stroke="#82915e" stroke-width="1.5" stroke-linecap="round" opacity=".45"/><path d="M33 75l3-8" stroke="#82915e" stroke-width="1.5" stroke-linecap="round" opacity=".45"/><path d="M21 79l4-5" stroke="#82915e" stroke-width="1.5" stroke-linecap="round" opacity=".45"/><path d="M9 7l2-6" stroke="#82915e" stroke-width="1.5" stroke-linecap="round" opacity=".45"/><path d="M73 11l3-7" stroke="#82915e" stroke-width="1.5" stroke-linecap="round" opacity=".45"/><path d="M61 15l4-8" stroke="#82915e" stroke-width="1.5" stroke-linecap="round" opacity=".45"/><path d="M49 19l2-5" stroke="#82915e" stroke-width="1.5" stroke-linecap="round" opacity=".45"/><path d="M37 23l3-6" stroke="#82915e" stroke-width="1.5" stroke-linecap="round" opacity=".45"/><path d="M25 27l4-7" stroke="#82915e" stroke-width="1.5" stroke-linecap="round" opacity=".45"/><path d="M13 31l2-8" stroke="#82915e" stroke-width="1.5" stroke-linecap="round" opacity=".45"/><path d="M1 35l3-5" stroke="#82915e" stroke-width="1.5" stroke-linecap="round" opacity=".45"/><path d="M65 39l4-6" stroke="#82915e" stroke-width="1.5" stroke-linecap="round" opacity=".45"/><path d="M53 43l2-7" stroke="#82915e" stroke-width="1.5" stroke-linecap="round" opacity=".45"/><path d="M41 47l3-8" stroke="#82915e" stroke-width="1.5" stroke-linecap="round" opacity=".45"/><path d="M29 51l4-5" stroke="#82915e" stroke-width="1.5" stroke-linecap="round" opacity=".45"/><path d="M17 55l2-6" stroke="#82915e" stroke-width="1.5" stroke-linecap="round" opacity=".45"/><path d="M5 59l3-7" stroke="#82915e" stroke-width="1.5" stroke-linecap="round" opacity=".45"/><path d="M69 63l4-8" stroke="#82915e" stroke-width="1.5" stroke-linecap="round" opacity=".45"/><path d="M57 67l2-5" stroke="#82915e" stroke-width="1.5" stroke-linecap="round" opacity=".45"/><path d="M45 71l3-6" stroke="#82915e" stroke-width="1.5" stroke-linecap="round" opacity=".45"/><path d="M33 75l4-7" stroke="#82915e" stroke-width="1.5" stroke-linecap="round" opacity=".45"/><path d="M21 79l2-8" stroke="#82915e" stroke-width="1.5" stroke-linecap="round" opacity=".45"/><path d="M9 7l3-5" stroke="#82915e" stroke-width="1.5" stroke-linecap="round" opacity=".45"/><path d="M73 11l4-6" stroke="#82915e" stroke-width="1.5" stroke-linecap="round" opacity=".45"/><circle cx="73" cy="35" r="1.2" fill="#d6e1bb" opacity=".42"/><circle cx="55" cy="13" r="1.45" fill="#d6e1bb" opacity=".42"/><circle cx="37" cy="71" r="1.7" fill="#d6e1bb" opacity=".42"/><circle cx="19" cy="49" r="1.2" fill="#d6e1bb" opacity=".42"/><circle cx="1" cy="27" r="1.45" fill="#d6e1bb" opacity=".42"/><circle cx="63" cy="5" r="1.7" fill="#d6e1bb" opacity=".42"/><circle cx="45" cy="63" r="1.2" fill="#d6e1bb" opacity=".42"/><circle cx="27" cy="41" r="1.45" fill="#d6e1bb" opacity=".42"/><circle cx="9" cy="19" r="1.7" fill="#d6e1bb" opacity=".42"/><circle cx="71" cy="77" r="1.2" fill="#d6e1bb" opacity=".42"/><circle cx="53" cy="55" r="1.45" fill="#d6e1bb" opacity=".42"/><circle cx="35" cy="33" r="1.7" fill="#d6e1bb" opacity=".42"/><circle cx="17" cy="11" r="1.2" fill="#d6e1bb" opacity=".42"/><circle cx="79" cy="69" r="1.45" fill="#d6e1bb" opacity=".42"/><circle cx="61" cy="47" r="1.7" fill="#d6e1bb" opacity=".42"/><circle cx="43" cy="25" r="1.2" fill="#d6e1bb" opacity=".42"/><path d="M-3 65c16-6 28-6 44 0s28 6 42 0" fill="none" stroke="#c6d6a1" stroke-width="4" opacity=".34"/><path d="M0 0h80v80H0z" fill="url(#shade)" opacity=".38"/></svg>