<svg xmlns="http://www.w3.org/2000/svg" viewBox="0 0 80 80"><defs><linearGradient id="shade" x1="0" y1="0" x2="1" y2="1"><stop stop-color="#fff" stop-opacity=".28"/><stop offset=".48" stop-color="#fff" stop-opacity="0"/><stop offset="1" stop-color="#000" stop-opacity=".18"/></linearGradient></defs><rect width="80" height="80" fill="#be7f59"/><path d="M0 18l26-18 24 18 30-10v72H0z" fill="#a7704e" opacity=".48"/><path d="M-4 48l20-18 24 16 20-24 26 20" fill="none" stroke="#895b40" stroke-width="4" opacity=".38"/><path d="M8 12h64M2 36h76M13 61h58" stroke="#dbb9a4" stroke-width="3" opacity=".32"/><circle cx="56" cy="40" r="1" fill="#5d3e31" opacity=".42"/><circle cx="59" cy="67" r="1.25" fill="#5d3e31" opacity=".42"/><circle cx="62" cy="14" r="1.5" fill="#5d3e31" opacity=".42"/><circle cx="65" cy="41" r="1" fill="#5d3e31" opacity=".42"/><circle cx="68" cy="68" r="1.25" fill="#5d3e31" opacity=".42"/><circle cx="71" cy="15" r="1.5" fill="#5d3e31" opacity=".42"/><circle cx="74" cy="42" r="1" fill="#5d3e31" opacity=".42"/><circle cx="77" cy="69" r="1.25" fill="#5d3e31" opacity=".42"/><circle cx="0" cy="16" r="1.5" fill="#5d3e31" opacity=".42"/><circle cx="3" cy="43" r="1" fill="#5d3e31" opacity=".42"/><circle cx="6" cy="70" r="1.25" fill="#5d3e31" opacity=".42"/><circle cx="9" cy="17" r="1.5" fill="#5d3e31" opacity=".42"/><circle cx="12" cy="44" r="1" fill="#5d3e31" opacity=".42"/><circle cx="15" cy="71" r="1.25" fill="#5d3e31" opacity=".42"/><circle cx="18" cy="18" r="1.5" fill="#5d3e31" opacity=".42"/><circle cx="21" cy="45" r="1" fill="#5d3e31" opacity=".42"/><path d="M0 0h80v80H0z" fill="url(#shade)" opacity=".38"/></svg>