<?xml version="1.0" encoding="UTF-8"?>
<svg id="a" xmlns="http://www.w3.org/2000/svg" width="523.3" height="544.4" version="1.1" xmlns:xlink="http://www.w3.org/1999/xlink" viewBox="0 0 523.3 544.4">
  <!-- Generator: Adobe Illustrator 29.2.1, SVG Export Plug-In . SVG Version: 2.1.0 Build 116)  -->
  <defs>
    <style>
      .st0 {
        fill: #101822;
      }

      .st1 {
        fill: #fff;
      }

      .st2 {
        fill: none;
      }

      .st3 {
        fill: #e2e2e2;
      }

      .st4 {
        isolation: isolate;
      }

      .st5 {
        fill: #8c522b;
      }

      .st6 {
        clip-path: url(#clippath);
      }
    </style>
    <clipPath id="clippath">
      <path class="st2" d="M-30.3,259.3v74-74Z"/>
    </clipPath>
  </defs>
  <g class="st4">
    <g id="b">
      <g class="st6">
        <path class="st0" d="M-47.5,365.6c5.2-2.4,10.3-5.5,8.6-10"/>
      </g>
      <g>
        <path class="st5" d="M422.9,567.9h-.8c.5.4.8,0,.8,0Z"/>
        <path class="st2" d="M565.3,415.9c0,80.5-67.6,145.5-150.9,145.5H112.7c-83.4,0-150.9-65.2-150.9-145.5V90.5c0-80.5,67.6-145.5,150.9-145.5h301.5c83.4,0,150.9,65.2,150.9,145.5v325.2h.2v.2h0Z"/>
      </g>
    </g>
  </g>
  <g>
    <path class="st1" d="M385.2,86.2c13.4,7,11.4,22.6,5,34.4,14.5,3.7,14.7,17.8,13.2,30.4-1.3,11.3-14.1,29.9-19.6,41.3-3.6,7.4-4.5,15.9-11,21.9-17.8-8.3-12.2-25.2-14.2-40-2.1-15.3-7.3-51.1-21.8-58.8-3.3-1.8-8.9-3-12.7-3.9-22.6-4.9-100.9-8.2-119.1,3.4-9.8,6.3-19.4,30.3-22.8,41.4-5.2,17.3-4.5,33.9-8.9,51.1-10,1.8-11-13-19.5-.3-1.5,5.2,14.7,52.2,18.9,56.3,1.6,1.6,4.4,1.1,5.8,2.8,4.6,5.2,10.7,31.4,15.5,40,3.9,7.1,14.1,14.7,17.2,20.6,7.3,14-2.1,49.7-1.6,65.5s8,17.9,8.3,28.1c.2,9.5-5.7,21-4.7,30.8,1,9.5,10.2,19.9,11.5,31.4,1.8,15.8-3.7,21.1-5,32.8-1.1,9.6,5.3,17.5-2.5,23.9l-8.1-6.8-14.2-49.1c.4,12.7-9,25.1-6.6,38.4,1.1,6.1,6.4,8.8,4.8,18.1s-5.6,13.9-10.4,12.3c-8.9-5.9-11.3-17.7-11.1-27.7l-14.1,9.9c-17.6-9.8.2-29.1,0-43.5-.1-7.4-4.2-14.7-4.1-22.1-3.2-.9-6,4.6-7.2,6.8-9.6,17-4.5,25.8-9.2,40s-2.8,4.6-3.7,7.1c-16.4.2-17.9-23.5-14.6-35.8-19.7,7.6-4.3-31.4-6.6-34.5l-26.4,8.2v-9.8c-5.8,3.1-8.8,1.6-12.3-3.4-11.2-15.6,1.4-44.6,7.4-60.6-24.7,6.6-16.6-24.2-10.7-37.7,5.6-12.8,16.8-20.9,22.1-32.2,4.8-10.4,4-22.8,8.1-31.3s11.1-10.1,14.3-15.4c4.8-8.1,3.5-19.2,10.1-27.7s13.1-7.8,17-15.9c5.2-11-8.9-37.1,2-45.3-10.5-19.1-17.7-38.4,6.5-54.7-11.9-18.7-5.9-44.7,19.9-43.4-5.4-19.9,14.8-40.7,34.7-29.5,1.8-21.1,30.4-31.7,43.9-13.2,9.9-19.7,42-21.9,43.9,3.3,18.7-16.4,40.5-7,44.7,16.4,18.5-10.1,36.6,2.2,33.1,23,7.3-1.2,9.5.4,14.9,3.3-18.9,2.1-16.1,13.4-18.6,26.7-.6,3-6.5,13.3-2.1,14.3,10,2.3,8.9-22,11.5-27.9s10.1-5.8,9.1-13.1ZM228.1,86.2c3-8.3-6.1-16-6.6-22.3s7.5-15.5,6.5-19.4c-7.6-7.2-5.7-.6-7.8,3.4s-4.2,5.1-5,8.2c-2.8,12.1,3.4,18.8,7.8,29l5.1,1ZM264.5,81.3c12.7.4,3.1-17.7,5-27.1.9-4.7,9.2-7.7,2.3-12.2-19.3,2.5-7,26.7-7.3,39.3ZM304.2,82.9c2.8-1.7,1.4-32.1,11.5-35.5l-4-5.2c-13.9,7.1-10.8,25.2-13.9,38.1.5,2.3,4.9,3.5,6.4,2.6ZM355.5,60c-18.5-.9-16.1,19-18.6,31.5s-5.2,6.3-.3,9.5c13.1-1.6,7.3-16.9,10.2-26s9.4-7.9,8.8-15ZM186.2,61.8c-17.8,4.8-6.4,44.4,3,42.4s-4.2-14.9-5-18c-2.4-8.9,1.6-15.8,7.5-22.2-1.7-2.1-2.5-3-5.5-2.2ZM159.5,97.7c-9.7,15.2-3.8,27,9.9,36.1,9.6-6.8-3.9-10.2-6.2-15.1-4.1-8.6,4.3-18.1-3.7-21ZM393.5,130.5c-17.9.7-19.5,21.5-24.8,34.5,11.9,0,10.6-14.6,15.1-21.9,3.3-5.4,10.6-5.8,9.7-12.5ZM165.2,173.2c2.7-9.8-10.3-17.5-12.5-24.5-1.6-5.2,1.2-10.9-3.2-14.8-12.1,9.1,1.7,29.1,9.4,36.6s2.2,3.5,6.4,2.7ZM145.4,240.5c-1.5-1.4-3.9-.2-5.4,2.1-4.9,7.5-17.7,23.1-19,30.3-1.3,7,.7,13-2.8,20.2-3.3,6.6-8.6,5.3-12.2,10.9-4.1,6.5-4.1,17-8.1,24.7-7.4,14-23.3,17.7-23.5,35.8,0,2.7,2,16.8,4.2,17.2,5.9,1.2,3.6-10.9,4.2-13.8,3.1-14.2,15.8-24,21.7-35.9,3.2-6.6,3.8-14.6,7.1-20.9s10.8-8.6,12.9-13.4c2.9-6.7.8-16.6,4.9-26.3s19.3-27.7,16.2-30.7ZM118.9,460.4c6.3.3,4.5-7,6.2-11,6.4-15,11.8-16.9,10.3-35.7-.5-6.4-3.8-13-3.2-19.5.8-8.8,8.6-15.7,11-23.6,5.1-16.3-3.2-29.4,1.6-47.6s6.8-13.8,9.1-20.5c1.1-3.1,2.3-3.5-1.2-6.1-18.5,18.5-15.2,44.3-19.5,67.6-1.8,9.6-7.9,22.2-8.5,30.6-.7,9.6,5.7,19,5.5,27.2-.3,11.9-13.8,25.7-11.4,38.7ZM120.6,312.7c0,6.9-1.9,14.5-4.7,20.8-3.9,9-16.6,20.2-18.1,28s-.3,15.2-2.5,23.8c-3.1,11.9-14.5,26-14.5,38.3,0,6.3,5.1,8.3,6.6,1.5,3.4-15.7,13.4-24.2,15.9-35.1,2.1-9-1.1-19.9,1.4-28.1s8.5-8.9,11.6-13.1c7.1-10,8.9-21.6,10.7-33.4l-6.4-2.6ZM172.7,322.6c-5.2,3.8-1,9.3-.8,13.9.8,20.1-6.1,47.4-.8,64.8,2,6.5,6.2,10.8,7.2,19.1,1.5,11.9-3.5,25.2-1.1,35.6.9,4,5.3,7.5,6.7,11.4,6.5,19.7-9.5,35.1-8.7,52.8s4.7,23.2,9.1,22.2c5.3-1.1-.9-17.7-.8-22.1.3-16.3,10.4-30.8,8.3-49.3-.9-7.9-6.5-15.2-6.7-23-.1-5.4,2.7-9.9,3.2-14.9,1.8-16.9-9.8-29.8-11.4-45.8-2.2-21.7,10.6-46.3-4.2-64.8ZM208.2,489.2c1,7.4,0,18.3,0,26.3s2.5,3.6,4.2.9c4.2-6.9,2.2-28.3,0-36.2s-8.5-14.6-9.2-22c-1.2-10.9,5.7-21.3,5-32.8-.8-15.1-14.4-23.9-14.7-39.6s5.3-19.3,6.4-28.5l-6.4.2c-3.9,12.6-7.2,24.1-4.4,37.7,3.2,15.5,15.6,21,12.1,41.4s-5,9.7-5.9,13.9c-3,14.2,11,25.2,12.9,39ZM147,383.3h-4.9c1.5,14.9,7.1,25.4,4.6,41.4s-25.4,60.7-22.4,78.8c.4,2.3,3.4,10.6,5.4,11.1,6.7-.8,1.2-7.3.8-12.3-1.3-17.2,8.3-26.4,13.3-41,4.1-12,12.9-42.4,11.1-53.8-1.2-7.8-7-16.1-7.9-24.2ZM104,452.2c.3-8-1.5-15.3.5-23.4,1.4-5.8,5.6-11.7,7.4-17.3,1-3.1,6.8-25,1.3-25l-17.2,45.2,3,19.4,5.1,1ZM157,521.2c2.7.2,3.8.6,5.7-1.7,2.2-2.6,8.7-22.9,9.2-27,1.9-17.3-7.7-25.5-8.2-39.7s2.8-14,3.8-20.6c1.2-8.4-3.2-8.4-6.3-1.3-10.4,23.6,4.2,36,4.3,55,0,12.4-7.8,23.1-8.4,35.3Z"/>
    <path class="st3" d="M172.7,322.6c14.7,18.4,2,43.1,4.2,64.8,1.6,16.1,13.2,28.9,11.4,45.8-.5,5-3.3,9.5-3.2,14.9.2,7.9,5.8,15.2,6.7,23,2.1,18.5-8,33-8.3,49.3s6.2,20.9.8,22.1c-4.4.9-9-18.8-9.1-22.2-.8-17.7,15.2-33.1,8.7-52.8s-5.7-7.5-6.7-11.4c-2.4-10.4,2.6-23.7,1.1-35.6-1-8.3-5.2-12.5-7.2-19.1-5.3-17.4,1.6-44.7.8-64.8s-4.3-10.2.8-13.9Z"/>
    <path class="st3" d="M118.9,460.4c-2.4-13.1,11.1-26.9,11.4-38.7.2-8.1-6.3-17.5-5.5-27.2.6-8.3,6.7-21,8.5-30.6,4.3-23.3,1-49.1,19.5-67.6,3.5,2.5,2.3,2.9,1.2,6.1-2.3,6.7-7,12.6-9.1,20.5-4.8,18.2,3.4,31.4-1.6,47.6-2.5,7.9-10.3,14.9-11,23.6-.6,6.5,2.7,13.1,3.2,19.5,1.6,18.8-3.8,20.7-10.3,35.7s0,11.3-6.2,11Z"/>
    <path class="st3" d="M145.4,240.5c3.1,3-14.1,26-16.2,30.7-4.1,9.7-2,19.6-4.9,26.3-2.1,4.8-9.4,6.6-12.9,13.4s-3.8,14.3-7.1,20.9c-5.9,11.9-18.6,21.7-21.7,35.9-.6,3,1.7,15.1-4.2,13.8-2.1-.4-4.2-14.6-4.2-17.2.2-18.1,16.1-21.8,23.5-35.8,4.1-7.7,4-18.3,8.1-24.7,3.6-5.6,8.9-4.2,12.2-10.9,3.6-7.2,1.5-13.2,2.8-20.2,1.4-7.2,14.1-22.8,19-30.3,1.5-2.3,3.9-3.5,5.4-2.1Z"/>
    <path class="st3" d="M208.2,489.2c-1.9-13.8-15.9-24.8-12.9-39,.9-4.2,5-8.7,5.9-13.9,3.5-20.4-8.9-25.9-12.1-41.4-2.8-13.5.5-25,4.4-37.7l6.4-.2c-1.1,9.2-6.6,19.1-6.4,28.5.4,15.7,13.9,24.5,14.7,39.6.6,11.5-6.2,21.9-5,32.8s7.3,14.5,9.2,22,4.2,29.4,0,36.2-4.2-.2-4.2-.9c0-7.9,1-18.9,0-26.3Z"/>
    <path class="st3" d="M147,383.3c.9,8,6.7,16.4,7.9,24.2,1.8,11.4-7,41.8-11.1,53.8-5,14.6-14.6,23.8-13.3,41s5.9,11.5-.8,12.3c-2.1-.5-5-8.7-5.4-11.1-3-18.1,19-57.9,22.4-78.8s-3.1-26.5-4.6-41.5h4.9Z"/>
    <path class="st3" d="M120.6,312.7l6.4,2.6c-1.7,11.8-3.5,23.5-10.7,33.4-3,4.2-10.1,8.4-11.6,13.1-2.5,8.2.7,19.2-1.4,28.1-2.6,10.9-12.5,19.4-15.9,35.1-1.5,6.8-6.6,4.8-6.6-1.5,0-12.3,11.4-26.4,14.5-38.3,2.2-8.6,1-16.3,2.5-23.8s14.2-19,18.1-28c2.8-6.4,4.7-13.9,4.7-20.8Z"/>
    <path class="st3" d="M157,521.2c.6-12.2,8.4-22.9,8.4-35.3,0-19-14.7-31.4-4.3-55s7.5-7.1,6.3,1.3c-.9,6.6-4,13.8-3.8,20.6.5,14.1,10,22.4,8.2,39.7-.4,4.1-7,24.4-9.2,27-1.9,2.3-3,1.9-5.7,1.7Z"/>
    <path class="st3" d="M104,452.2l-5.1-1-3-19.4,17.2-45.2c5.5,0-.3,21.8-1.3,25-1.7,5.6-6,11.5-7.4,17.3-1.9,8-.2,15.3-.5,23.4Z"/>
    <path class="st3" d="M355.5,60c.6,7.1-6.7,8.3-8.8,15s3,24.4-10.2,26c-4.9-3.2-.4-5.8.3-9.5,2.5-12.5,0-32.4,18.6-31.5Z"/>
    <path class="st3" d="M228.1,86.2l-5.1-1c-4.4-10.2-10.6-16.9-7.8-29,.7-3.2,3.5-5.5,5-8.2,2.2-4.1.2-10.6,7.8-3.4,1,3.9-6.9,13-6.5,19.4s9.6,13.9,6.6,22.3Z"/>
    <path class="st3" d="M385.2,86.2c1,7.4-6.3,6.9-9.1,13.1s-1.5,30.2-11.5,27.9c-4.4-1,1.5-11.4,2.1-14.3,2.5-13.3-.3-24.6,18.6-26.7Z"/>
    <path class="st3" d="M264.5,81.3c.3-12.6-12.1-36.8,7.3-39.3,6.9,4.6-1.3,7.6-2.3,12.2-1.9,9.3,7.7,27.4-5,27.1Z"/>
    <path class="st3" d="M186.2,61.8c2.9-.8,3.8,0,5.5,2.2-5.9,6.4-9.9,13.3-7.5,22.2.8,3.1,11.2,16.7,5,18-9.4,1.9-20.8-37.7-3-42.4Z"/>
    <path class="st3" d="M304.2,82.9c-1.5,1-5.9-.3-6.4-2.6,3.1-12.9,0-31,13.9-38.1l4,5.2c-10.1,3.4-8.7,33.7-11.5,35.5Z"/>
    <path class="st3" d="M165.2,173.2c-4.2.8-4.2-.5-6.4-2.7-7.7-7.5-21.5-27.6-9.4-36.6,4.4,3.9,1.6,9.7,3.2,14.8,2.2,7,15.2,14.7,12.5,24.5Z"/>
    <path class="st3" d="M393.5,130.5c.9,6.8-6.3,7.1-9.7,12.5-4.5,7.3-3.2,22-15.1,21.9,5.3-12.9,6.9-33.7,24.8-34.5Z"/>
    <path class="st3" d="M159.5,97.7c8,2.9-.4,12.4,3.7,21,2.3,4.9,15.8,8.3,6.2,15.1-13.7-9.1-19.6-20.9-9.9-36.1Z"/>
  </g>
</svg>